<mxfile host="app.diagrams.net" modified="2023-02-08T15:51:22.133Z" agent="5.0 (Windows NT 10.0; Win64; x64) AppleWebKit/537.36 (KHTML, like Gecko) Chrome/109.0.0.0 Safari/537.36" etag="GJ5pkc_b5gMVoFkJXAxw" version="20.8.17" type="github">
  <diagram name="PÃ¡gina-1" id="ytX--Y85FsWB8EHXXyhq">
    <mxGraphModel dx="880" dy="452" grid="1" gridSize="10" guides="1" tooltips="1" connect="1" arrows="1" fold="1" page="1" pageScale="1" pageWidth="827" pageHeight="1169" math="0" shadow="0">
      <root>
        <mxCell id="0" />
        <mxCell id="1" parent="0" />
        <mxCell id="wFE6L6VrelONgTwsdIlD-2" value="" style="rounded=0;whiteSpace=wrap;html=1;" vertex="1" parent="1">
          <mxGeometry width="800" height="600" as="geometry" />
        </mxCell>
        <mxCell id="wFE6L6VrelONgTwsdIlD-52" value="" style="shape=image;verticalLabelPosition=bottom;labelBackgroundColor=default;verticalAlign=top;aspect=fixed;imageAspect=0;image=data:image/png,iVBORw0KGgoAAAANSUhEUgAABBIAAAMnCAIAAAAMKuYBAAAACXBIWXMAAAsTAAALEwEAmpwYAAAgAElEQVR4nOzd93cUV7rv//sXjWfmnHtn7vkuI4lowGCMQRIZSUSBAJFzDibnHETO0SQDJudkwCInGbA6KbbUrc7dd3k0X0YWWFtVu9W7q+r9WvunM2ft6qpibz8fdXU9/ysGAAAAAA36Xw3/zwAAAABAbAAAAAAgQGwAAAAAIEBsAAAAACBAbAAAAAAgQGwAAAAAIEBsAAAAACBAbAAAAAAgQGwAAAAAIEBsAAAAACBAbAAAAAAgQGwAAAAAIEBsAAAAACBAbAAAAAAgQGwAAAAAIEBsAAAAACBAbAAAAAAgQGwAAAAAIEBsAAAAACBAbAAAAAAgQGwAAAAAIEBsAAAAACBAbAAAAAAgQGwAAAAAIEBsAAAAACBAbAAAAAAgQGwAAAAAIEBsAAAAACBAbAAAAAAgQGwAAAAAIEBsAAAAACBAbAAAAAAgQGwAAAAAIEBsAAAAACBAbAAAAAAgQGwAAAAAIEBsAAAAACBAbAAAAAAgQGwAAAAAIEBsAAAAACBAbAAAAAAgQGwAAAAAIEBsAAAAACBAbAAAAAAgQGwAAAAAIEBsAAAAACBAbAAAAAAgQGwAAAAAIEBsAAAAACBAbAAAAAAgQGwAAAAAIEBsAAAAACBAbAAAAAAgQGwAAAAAIEBsAAAAACBAbAAAAAAgQGwAAAAAIEBsAAAAACBAbAAAAAAgQGwAAAAAIEBsAAAAACBAbAAAAAAgQGwAAAAAIEBsAAAAACBAbAAAAAAgQGwAAAAAIEBsAAAAACBAbAAAAAAgQGwAAAAAIEBsAAAAACBAbAAAAAAgQGwAAAAAIEBsAAAAACBAbAAAAAAgQGwAAAAAIEBsAAAAACBAbAAAAAAgQGwAAAAAIEBsAAAAACBAbAAAINH8/sCTxy9/PH15y+b9c2evyhsytVePEZnpQ9u37du6Zc+UL9MZXAEzXYG0lMz2bft27ZLbp9fIKZMXb9yw59zZq3Z7CVuPsRAbAABIhMpK99mzV5cu2Tyg3/jmqZnKKzkGV0D5FejZfcTyZVse/PwkGo2yDSU/YgMAAE2ouNi5b+/xvKHTUptlKK/SGFyB5LwCPboN273rWHm5m80omREbAACIv0AgdPHCzfwRM5UXZAyugFGuQOuWPdet3VlVVc2WlJyIDQAAxFNJSdma1Ts6tM9WXoQxuAJGvAJft8s6sP9kJBJhY0o2xAYAAOKjvNy9bu3OVi16KC+8GFwBo1+BwQMnvXtXzN6UVIgNAADI8np9a9fs4CVIymtNhpmuQOuWPX88fZntKXkQGwAAkHLt6t2u3w1WXmMxuAKmvALLl23hgaUkQWwAAEAnu805dvRc5XUVgytg7iswferSQCDEPqUcsQEAAD2uXL79dbss5RUVgytghSsweeLCUIjkoBixAQAAbfz+wPJlW5QXUgyugKWuwNzZq+gKpxaxAQAADVyusn7ZY5uuNvq6XVb/fuNH5s+aOmXJ7JkrFi3cEPfRsjnvejL/aJ7arX+/8RPGz/9+3pr4/vuZNWPFhPHzhw+bnt51SIJPasvm/exWChEbAABorDdv3sX918+dOvafMW3Z/n0nCgtfVFd7EnAzevYYobyoZTTdFRgxbMblS7dqanwJ+Lfk9dYUFr7YWnAgd9DktJTMpr6tqc3S79x5lIDzwmcRGwAAaJS7dx+1bdMnXgXQd50HrV2zs7DwRSQSTfANGD/ue6p2U16BjK5D7t5VVlU7naWbN+377tuBTXqO33To53KVqTpHiyM2AAAgdvvWgxZp3eWLntRmGWNGz7129a7Cd0ru2H5YeYHLiPsVGD5susfjjakWDIYOHDj5TYd+TXeLp0xerPosLYrYAACAwJ07j1o2j0NmGDdm3vNnb5Rf7hfP31C1m+wKjBg2IxgMxpKG11uzdMmm1GYZTXS+t24+UH2KVkRsAACgIY8ePpNv/9yn18iHD54kyYWORqPdMvOUV7qMeF2Brt8Nrqhwx5LP3buPmuiZpV49RoRCYdXnZznEBgAA/lRR0QfJ3zO0bN5j544jyVbi7N93gqrdNFfg0sWbsWTlcpXmNM2bx06dvKj65CyH2AAAwOdVVlZ3y5D6q3z3zGEvnqt/KulTNTW+Th37K693GfJXYED/8UnezaCmxjcyf1bc73WfXiOT/MTNh9gAAMBnhELh4XnTZcqaiRMWeDw1SXtxj//wE1W7Ca7A4cM/xpKez+cfMnhy3M+dXzgkGLEBAIDPWLG8QKagWbG8QOG7khojGo2OHjlbedXLkLkCLdK6JeevGj5VXe3p02tkfG/3pIkLVZ+WtRAbAACo797dX2SqmV07jxjimrrd1XGv5BiJvAITxs+PGUfR2/dtWvWK4+m3bN49Gd45ax3EBgAA/sDj8cq0gt5acMBAF9TpLO3SOc59rxmJuQKpzTIeP34RM5QTJ87H9yKcP39d9TlZCLEBAIA/mDVzhe4iZs2q7Ya7mu/f23r3zKfWN9wVmP/92pjRRKPRYUOnxfEizJq5QvU5WQixAQCA/7h/v1B3BTN+3PeRiCFf7VJT45s5Y7nyOpjR+CswaODEQCCJ+rs13utXv6alZMbrXnfLyFN9QhZCbAAA4N8ikUhW39H6ypfePfOT+b1JjXHmx8tN1JyLEd8rMCp/ttdr4H9ssyW+0Pt0VFYa40fhJkBsAADg344ePauvcGmR1u3lyyITXEe/P3D0yJm+vUdR6CfnFfimQ7/Dh04b9Eutj16+LIrjNblz55HqE7IKYgMAAL/zeLwdv87RV7hs23rQZBex6O37AwdOzpi+rH/OuO++Hfh1uyyGqivQ8euc3j3zZ89c8ePpywZ9MOlTcfyFww/Hzqk+G6sgNgAA8Ls9u4/pq1r69h4VDoe5iEDjHTl8Jl6xoWCLkd5dZmjEBgAAfu8J3aXzIJ6RABKjrKwiLSUjLrFh8aKN3LXEIDYAABA7cVzn6+THj/ueywfokJ01Ji6xYeb05Vz/xCA2AAAQ09244OmTV1w+QIcF89fFJTbMnrWS658YxAYAgNU9efxSX70yfNh01Z8dMKpjel9cVm/Mm7ta9alYBbEBAGB1S5ds1lev3Lh+X/VnB4zq9q0HcYkNCxesV30qVkFsAABYWigU7tA+W0ex0qljf16gBOj2+tWvcYkNvEkpYYgNAABLu3b1rr5iZeXyrao/O2BgJa6yuMSGU6cuqj4VqyA2AAAsbdHCDfqKlSePX6r+7ICBxSs2/Hz/sepTsQpiAwDA0rpl5OmoVNq3zYpEIqo/O2BgDrsrLrHB5SxTfSpWQWwAAFiXzebUV6lMmrhQ9WcHjO3t2/fymeHrdtmqz8NCiA0AAOs6duycvmLlwIGTqj87YGw3b9yXjw3D83gJcuIQGwAA1jVrxnJ9xcrTp3R5A6QcOXxGPjasXMGbCRKH2AAAsK6MrkN0VCqtWvQIBkOqPztgbMuWbpGPDadO8hqlxCE2AAAsqqy0Ql+lMmTwZNWfHTC8vCFT5WPD8+dvVJ+HhRAbAAAWdenSLX2VyupV21V/dsDYotFo+7ZZkpkhLSXT7w+oPhULITYAACxq9art+oqVCxduqP7sgLHF5e2rvXvmqz4PayE2AAAsKnfQJH3FisNRovqzA8Z2/do9+dgwfdpS1edhLcQGAIAVBQKBls2766hUOncaqPqzA4a3fdsh+diwY/th1edhLcQGAIAVFRa+0FepTJm0SPVnBwxvxrRl8rHhxvX7qs/DWogNAAAr2rPnB32Vyu5dx1R/dsDwevfMl48NTiePCyYUsQEAYEWTJy3SV6k8fPhU9WcHjC0QCDZP7SaZGb5ul6X6PCyH2AAAsKLO3w7UUamkpWTW1PhUf3bA2F48fyP/VcOwvGmqz8NyiA0AAMux2Zz6KpV+2WNVf3bA8E6dvCgfG5Yv26L6PCyH2AAAsJyzZ6/qq1SWLN6k+rMDhrdyxVb52HD8+HnV52E5xAYAgOUsXbJZX6Vy+vQl1Z8dMLz84TPlY8PTp69Un4flEBsAAJbTL2ecvkrl/bti1Z8dMLxvOvSTzAypzTJ8Pn5llGjEBgCAtdTU+NJSMnVUKu3bZkWjUdUfHzC2kpJy+a8aenYfofo8rIjYAACwlp/vP9ZXqYwZPVf1ZwcM7/atB/KxYdqUJarPw4qIDQAAa9m+7ZC+SqVgywHVnx0wvN27jsnHhm1bD6o+DysiNgAArGXc2Hn6KpXbtx6o/uyA4c2etVI+Nly7elf1eVgRsQEAYCHRaLRD+2wdZUpqswy3u1r1xwcML7vvaPnYYLc5VZ+HFREbAAAW8u7XYn1lSq8e+ao/O2B4wWCoZfPukpmhbZs+vJxACWIDAMBCTp64oK9SmTd3jerPDhje61e/yn/VMDR3iurzsChiAwDAQhbMX6evUjl29Kzqzw4Y3pkfL8vHhqVLNqs+D4siNgAALKR3r3x9lcqrl0WqPztgeGvX7JSPDceOnVN9HhZFbAAAWEVVVXVqMz1lSptWvcLhsOqPDxje6FFz5GPDk8cvVZ+HRREbAABWceumzj5Tw/Kmq/7sgBl07jRQMjOkNkv3en2qz8OiiA0AAKvYvGmfvkpl/bpdqj87YHiVlVXyXzV0zxym+jysi9gAALCK/BEz9VUqVy7fVv3ZAcO7f69QPjZMnrRI9XlYF7EBAGAJkUikbZs++iqVkpJy1R8fMLz9+07Ix4aCLQdUn4d1ERsAAJbw6mWRvjIlvesQ1Z8dMIN5c9fIxwa++lOI2AAAsISjR87oK1OmT12q+rMDZtA/Z5x8bCgutqs+D+siNgAALGHO7JX6ypR9e4+r/uyA4UUikdYte0pmhq9a945Go6pPxbqIDQAAS+iWkaevUiksfKH6swOGV1T0Qf6rhtzBk1Wfh6URGwAA5ldWVqGvTGmR1s3vD6j++IDhnf/punxsWLxoo+rzsDRiAwDA/K5euaOvTBk0YKLqzw6YwcYNe+Rjw9EjZ1Sfh6URGwAA5rdu7U59ZcqK5QWqPztgBuPHfS8fG3755bnq87A0YgMAwPyG5k7RV6acO3dV9WcHzCC9S658bKiu9qo+D0sjNgAATC4UCut+hUtxsaMxhwgEAr5/8f9RIBAI/lEoFAr/UeSPeFEMzKe62pPaLEMyM2SmD1V9HlZHbAAAmNyTJ6/0lSnfdOjXmPkrKyttTclutzv+yPlHLper5I9KS0vL/qj8jyoqKir/qOoT1X/k8Xi8f+T7RL3UVC8yBYPBepHp09TU9P8coMDDh0/lv2qYNHEhN08tYgMAwOT27zuhr0yZMH6+cPJIJNKkmQENRyan01kvMpWUlDQcmcrLy+tFpk9TU73IVF1dXS8y1dTUNByZPk1NVv6i6dDB0/KxYcvmfarPw+qIDQAAk5s2ZYm+MmX7tkPCyf1+P5U9DP1Fk9vtbvwXTYGAnvcRL1ywXj42XLp0S9cGgLghNgAATO67bwfpK1Pu3ysUTl5VVUXRDEuprq7WugYHDZwoHxs+fLDr3QMQH8QGAICZuZxl+mqUtJQMj6dGOH9ZWZnqKg5IKJfLpWkNRiLRr1r3lswMrVv25KcvyhEbAABm9pPe3rRZfUY3Zn673U7RCkspLS3VtAY/fLDJf9UwaCCNF9UjNgAAzGzFsgJ9ZcqC+euEk4dCIdUlHJBobrdb0xq8fOmWfGxYuGC9xDaA+CA2AADMbGD/CfrKlBPHzwsn93q9FK2wGq9XW8+1gi375WPDoUOnJbYBxAexAQBgWj5foEVaN31lytu375V3bACSUDAY1LQMJ09aJB8bHj58KrETID6IDQAA03rw4Im+GqVtmz6N+f2ly+VSXcIBiaa1v0S3jDz52FBVpfn1TYg7YgMAwLR27jyir0YZmT9LODmN3mBBWl+j5PXWpDbLkMwM6V1yJbYBxA2xAQBgWhPGz9dXpmzauFc4OY3eYEEVFRWa1mBh4Qv5rxomjBP3a0cCEBsAAKb1TYd++sqUG9fvCyevrq5WXcIByd7r7djRs/KxYeOGPRLbAOKG2AAAMKcPH+y6y5Ty8krh/DR6gwX5/X5Ny3Dpkk3yseHihZsSOwHihtgAADCn06cu6atRumXmNWZ+h8OhuoQDEi0cDmtahkOHTJWPDe9+Lda7DSCeiA0AAHNatHCDvhpl9swVwslp9AYLcjgcmtZgNBpt3zZLMjO0atGjMa81QwIQGwAA5pTVZ5S+MuXQQXFjKRq9wYJKS0s1rUG73SX/VcPA/hMktgHEE7EBAGBCHo9X92sfnz17LZyfRm+wILfbrWkZXrt2Vz42zP9+rcROgHgiNgAATOjOnUe6n4gIBkPC+Wn0Bgvyer2aluH2bYfkY8OB/ScldgLEE7EBAGBCWzbv11ejDBk8WTh5NBpVXb8BCgSDQU3LcNrUJfKx4cHPTyR2AsQTsQEAYEKjRs7WV6OsXrVdODmN3mBN0WhU0zLs2WOEfGyorNT2ZBSaDrEBAGA2/3p/S199NcqFCzeE89PoDRbkcrk0LUO/P5CWkimZGbp0HiSxEyDOiA0AALN58+ad7jLF4SgRzk+jN1hQeXm5pmX47Nlr+a8axo6ZJ7ETIM6IDQAAszl27Jy+GqVzp4GNmZ9Gb7Cg6upqTcvwxInz8rFhw/rdercBxB+xAQBgNnPnrNZXo0yZtEg4OY3eYE0+n0/TMly5fKt8bPjp3DWJnQBxRmwAAJhNj+7D9dUou3cdE05eU1Ojun4DFAiHw5qW4YhhM+RjQ1HRB4mdAHFGbAAAmEplpVt3jfLw4dNGzF9J0QqrcTgcWldix69zJDNDi7TuoZC4iQoShtgAADCV69fu6atR0lIya2rEj2GUlJSoLuGARCstLdW0DEtcZfJfNfTLGSexEyD+iA0AAFPZsH63zhole6xwchq9wZrcbm3NE27e/Fk+Nsybu1piJ0D8ERsAAKYyLG+avhplyeJNwskDgYDq+g1QwOv1alqGu3YekY8N+/edkNgJEH/EBgCAeYRCoTateumrUU6fviScn0ZvsKZgMKhpJc6asUI+Nty7VyixGSD+iA0AAPN48fyN7hrl/bti4fzl5eWq6zdAgWg0qmkl9u09Sj42lJdrezIKTY3YAAAwj4MHTukrUNq3zWpMYUSjN1iQy+XStAyDwWCLtG6SmaFzpwESOwGaBLEBAGAeM6Yv01ejjBk9Vzh5OBxWXb8BCpSXl2tahq9eFsl/1TBm9ByJnQBNgtgAADCPrl1y9dUoBVsOCCen0Rusqbq6WtMy/PH0ZfnYsG7tTomdAE2C2AAAMAmXxKvib996IJzf7Xarrt8ABXw+cT+Tutas3iEfG86evSqxGaBJEBsAACZx8cJNfQVKarMMt1v891QavcGawuGwppU4Kn+2fGx48+adxGaAJkFsAACYxKqV2/QVKL165Asnj0ajdrtddf0GJJrdbte6Ejt17C+ZGVqkdQ+FtGUVJACxAQBgEoMGTtRXo8ybu0Y4OY3eYE2lpaWalmFFhVv+q4bsrDESOwGaCrEBAGAGgUCgRVp3fTXKsaNnhfN7PB7V9RugQGVlpaaVePfuI/nYMHf2KonNAE2F2AAAMINfHj3TXaO8elkknJ9Gb7Amr9eraSXu3XtcPjbs2fODxGaApkJsAACYwZ7dx/QVKG1a9WrMLz6dTqfq+g1QIBgMalqJ8+aslo8Nd+8+ktgM0FSIDQAAM5g8caG+AmVY3nTh5DR6g2U1pnt6Xf2yx8rHhrKyConNAE2F2AAAMINvvxmgr0BZv26XcHIavcGaXC6XpmUYDodbteghmRk6dewvsROgCREbAACGV1xs112jXLl8Wzg/jd5gTeXl5ZpWYtHb9/JfNYzKnyWxGaAJERsAAIZ35swV3TVKSYm4MKLRG6ypulrcBrGun85dk48Nq1dtl9gM0ISIDQAAw1u6eJO+AiW96xDh5DR6g2X5fD5NK3H9ut3yseHH05clNgM0IWIDAMDwcrLG6CtQpk9dKpycRm+wrMa8ZKyucWPmyceGxrwQGUoQGwAAxlZT40tLydRXoOzbe1w4P43eYE12u13rYuzSebBkZmiemhkIhPRuBmhaxAYAgLHdu1eou0YpLHwhnJ9Gb7Cm0tJSTSvR7a6W/6ohq88oic0ATYvYAAAwtm1bD+orUFqkdfP7A8L5afQGa6qsrNS0Eh/8/EQ+NsyauUJiM0DTIjYAAIxt7Oi5+gqUQQMmCien0Rssy+v1alqJBw+cko8Nu3cdk9gM0LSIDQAAA4tGo1+3y9JXoKxYXiCc3+fzqS7eADUCAfF3cXUtmL9OPjbcvvVAYj9A0yI2AAAMrKjog+4C5dy5q8L5afQGy4pGo5oW46ABE+VjQ0lJmcR+gKZFbAAAGNjx4+d1FyjFxQ7h/KWlpaqLN0ABp9OpaSVGItE2rXpJZoYO7bMlNgM0OWIDAMDA5s9bq69A+aZDv8bMb7fbKVphQeXl4u7pdb1/Vyz/VcOI4TP07gRIBGIDAMDAevfM11egTBg/Xzh5MBhUXbwBalRVVWlaiRcv3JSPDatWbpPYDNDkiA0AAKOqqqpObaazQNm+7ZBwfhq9wbJ8Pp+mxbh50z752HDq5EWJ/QBNjtgAADCqGzfu6y5Q7t8rFM5fUVGhungD1AiFtLVqnjhhgXxsePHircR+gCZHbAAAGNXGDXv0VSdpKRkeT41wfhq9wZrsdrvWxZiZPlQyM6SlZDam/SIUIjYAAIxqxPAZ+gqUrD6jhZNHIhHVxRugRmlpqaaV6PXWpDbLkIwNvXvlS2wGSARiAwDAkCKRyFete+srUBbMXyecn0ZvsKzKykpNi7Hwl+fyTyjNmL5MYj9AIhAbAACG9PJFke4C5cTx88L5q6qqVBdvgBper1fTYjx65Ix8bNi544jEfoBEIDYAAAzp8KEfdRcob9++F85PozdYViCg7TcGixdtlI8NN27cl9gPkAjEBgCAIc2auUJfddK2TZ9IJCKcn0ZvsKzGLJC6hgyeLB8bXM4yif0AiUBsAAAYUmaGzje3jMyfJZycRm+wLKfTqWklRqPRdl/1kcwMqc0yTp26aLdpOzQSjNgAADCestIK3QXKpo17hfN7vV7VxRugRnl5uabFWFzskP+q4eNI75I7d/aqU6cu1tRo6zeHBCA2AACM5/Kl27rrkhvXxY9Q0+gNllVVVaVpMV69cieOseHjKCurkNgh0CSIDQAA41mzeofucqS8XPxySRq9wbJ8Pm1/5t9acCDumeHbbwZIbA9oKsQGAIDx5Or9CWa3zDzh5DR6g5WFQiFNi3HqlCVxjw2jR82R2B7QVIgNAACDCYXCrVr00FeOzJ65Qjg/jd5gWXa7Xet67Nl9eNxjw9o1O/RuD2hCxAYAgME8Lnyhuxw5dPC0cH4avcGySkpKNC1Gn8+flpIR99hw9uxViR0CTYXYAAAwmL17jusuR549ey2cn0ZvsKzKSvEvf+p6+vRV3DPD7w0Z37yT2CHQVIgNAACDmTJ5sb5apFWLHsGg+LltGr3Bsjwej6bFePyHn+KeGVqkdQ+FwhI7BJoKsQEAYDDffTtIXzkyJHeKcHIavcHKAoGApsW4fNmWuMeGftljJbYHNCFiAwDASOw2p+5yZPWq7cL5afQGK4tEIprW47C86XGPDXPnrJbYIdCEiA0AACM5d/aq7nLkwoUbwvlp9AbLcjqdWtdjh/Y5cY8N+/ed0Ls9oGkRGwAARrJs6Wbd5YjDIX5LjMvlUl28AWqUl5drWoxOZ2ncM0PKl+n37xdK7BBoQsQGAICR9O83Tl8t0rnTQOHkNHqDlVVVVWlajDdv3G+K2FBR4ZbYIdCEiA0AAMPw+QLNUzP11SJTJi0Szu/3+1VXboAyPp9P03rcueNI3DND52/F8R6qEBsAAIbx4OcnusuR3buOCeen0RusLBQSv564rpkzlsc9NowdPVdih0DTIjYAAAxjx/bDusuRhw+fCucvKytTXbkBatjtdq3rsU+vkXGPDevX7dK7PaDJERsAAIYxftz3+mqRtJRMn88vnJ9Gb7CskhLxCwPqCgaDzVO7xT02/PTTdYkdAk2L2AAAMIZoNNrx65ymayAVCoVUV26AMpWVlZrW44sXb+OeGVK+TC8q+iCxSaBpERsAAMbw7l2x7lpkyeJNwvlp9AYr83g8mtbj6VMX454ZWrXoofX3FUgkYgMAwBhOndRfppw+fUk4f2VlperKDVAmEAhoWo+rV22Pe2zo32+cxA6BJkdsAAAYw8IF63WXI+/fFQvnp9EbrCwSiWhajyPzZ8U9Nsyft1Zih0CTIzYAAIxB92tb2rfNikajDU8ejUZVl22AMk6nU+t67NSxf9xjw4H9JyV2CDQ5YgMAwACqq72pzTL01SJjx4jfBE+jN1hZWVmZpvVYVlYR98yQ8mX6g5+fSGwSaHLEBgCAAdy+9UB3LVKw5YBw/urqatWVG6BMVVWVpvV4586jpogNVVXafpaNBCM2AAAMYMvmfbprkdu3Hgjnp9EbrKympkbTety754e4Z4au3w2W2CGQCMQGAIABjByh8/eXqc0y3O5q4fwOh0N15QYoo/W1p3Nmr4p7bBg/7nuJHQKJQGwAACS7SCTStk0ffbVIrx75wvlp9AYrs9vtWpdkdtaYuMeGjRv26N0hkCDEBgBAsnv16lfdtci8uWuE89PoDVZWUlKiaT2Gw+GWzXvEPTZcvHBTYpNAIhAbAADJ7ujRs7prkWNHzwrnp9EbrKyyslLTenzz5l3cM0PKl+nvGtFcBWoRGwAAyW6uxIPUr14WCeen0RuszOPR9v6is2evxj0ztG7ZU2u/OSQesQEAkOy6Zw7TV4u0adUrHA43PDmN3mBxgUBA03pcv25X3GPDwAET5DYJJAKxAQCQ1Coq3LprkWF504Xz0+gNFqf1z/xjx8yNe2xYMH+dxCaBBCE2AACS2tWrd3XXIuvX7RLOT6M3WJnT6dS6JL/rPCjuseHQodX0hJ8AACAASURBVNN6dwgkDrEBAJDU1q3V/0TElcu3hfPT6A1WVlZWpmk9ut1Vcc8MKV+mP3r4TGKTQIIQGwAASS1vyFTdtUhJSblwfhq9wcqqqqo0rcf79wubIjZUVYl7MkI5YgMAIHmFQuHWLXvqK0TSuw5pxPwh1WUboFJNTY2mJXlg/8m4Z4b0LrkSmwQSh9gAAEheT5++0l2LzJi2TDh/TU0NRSusLBQKaVqS879fG/fYMGH8fIlNAolDbAAAJK/9En/a3L/vhHB+Gr3Byux2u9YlOaD/+LjHhs2b9undIZBQxAYAQPKaPnWp7lqksPCFcP6SkhLVlRugTElJiab1GIlE2rTqFffYcOnSLYlNAolDbAAAJK8uel/12CKtm98vaGJFozdYXEVFhab1+O7db3HPDClfpn/4oPlLDyhBbAAAJCmXq0x3ITJowETh/IFAQHXZBqjk8Xg0LckLF27EPTO0btlTa785qEJsAAAkqfPnr+uuRVYsLxDOT6M3WJzf79e0JDdt3Bv32DB44CSJTQIJRWwAACSpFcsLdNci585dFc5fXl6uumwDVNL6Z/4J4+fHPTYsWrhBYpNAQhEbAABJauCACbprkeJih3B+Gr3BypxOp9Ylmd51SNxjw5HDZ/TuEEg0YgMAIBn5fIEWad30FSLfdOgnnD8cDqsu2wCVysrKNC1Jj8eb2iwj7rHhl1+eS+wTSChiAwAgGT18+LRJu0fR6A0WV1VVpWlJPnr0LO6ZIeXL9Opqr8Q+gYQiNgAAktGunUd1FyLbtx0Szu92u1WXbYBKNTU1mpbk4cM/xj0zZGYMldgkkGjEBgBAMpo4YYHuWuT+vULh/DR6g8WFQiFNS3Lxwg1xjw2TJy6U2CSQaMQGAEAy6tSxv75CJC0lw+MR/Bk1Go3a7XbVZRugjN1uj0ajmpZk7qDJcY8NWzbvl9snkFDEBgBA0vntg113IZLVZ7Rwfhq9weJKSko0LcloNNruqz5xjw1XLt+W2CeQaMQGAEDS+fH0Zd2FyMIF64Xzezwe1WUboFJFRYWmJVn8myPumeFfL0rW/BJYKERsAAAkncWLNuouRE6cOC+cn0ZvsDiPx6NpSV65fDvumaFtm95aH5SCWsQGAEDSyeo7Wnct8vbte+H8TqdTddkGqOT3+zUtyYItB+IeG4bkTpHYJKAAsQEAkFxkukq1bdMnEok0PD+N3gDhMqlnyqRFcY8NSxZvlNsqkGjEBgBAcrl795HuQmRk/izh/DR6g8U5HA6tq7J75rC4x4Zjx87p3SSgBrEBAJBcZB6H2LRxr3B+Gr3B4srKyjQtSZ/Pn5ai8wvABsaTxy8l9gkoQGwAACSX0aPm6C5Ebly/L5yfRm+wOLfbrWlJPnn8Mu6ZIbVZutfrk9gnoACxAQCQRKLR6NftsnTXIuXllcL5afQGi6upEfRDrOeHY+fiHhu6Zw6T2yqgALEBAJBE3r55p7sQ6ZaZJ5yfRm9AMBjUtCqXLd0S99gwZfJiiX0CahAbAABJRObvmrNnrhDOT6M3QGu3hGFDp8U9NmzbelBin4AaxAYAQBKZN3e17kLk0MHTwvlp9AaLKykpSeRzg382rl29K7FPQA1iAwAgifTsPkJ3IfLs2Wvh/DR6g8VVVFRoWpIOuyvumSHly3S7zSmxT0ANYgMAIFlUVXl0VyGtWvQIBkMNz0+jN8Dj8Whaldev3Yt7Zmj3VV+tD0ohGRAbAADJ4sb1+7oLkSG5U4Tz+3w+qkZYnN/v17Qqt287FPfYkDdkqsQ+AWWIDQCAZLFxwx7dhciaVduF89PoDYhEIppW5Yxpy+IeG5Yt3SyxT0AZYgMAIFkMz5uuuxC5eOGmcP7S0lKqRliZw+HQuip798yPe2w4/sNPejcJqERsAAAkhVAo1KZVL92FiMMhfj8Mjd5gcWVlZZpWZSAQbJ7aLe6x4enTVxJbBZQhNgAAksLz5290VyGdOw0Uzh8MBlXXbIBibrdb06p8IbEq/2ykNsvw+XwSWwWUITYAAJLCoYOndRciUyYtEs5PozegpqZG06o8dfJi3GNDz+4jJPYJqERsAAAkhZnTl+suRHbvOiacv6KigqoRFhcMBjWtypUrtsY9NkyfulRin4BKxAYAQFJI75KruxB5+PCpcH4avQFauyXkD58Z99iwfdshiX0CKhEbAADqlZZW6K5Cmqd28/kEr6KPRCKUjLA4l8uldWF+06GfZEho91XfvCFT01IyP/5frl+7J7FVQCViAwBAvUsXb+quS/pljxXOT6M3oKKiQtOqLCkpl/9uYfSoObFYrKbGd+3q3YUL1nfpPMjpFL/0DMmJ2AAAUG/1qu2665IlizcJ56+qqqJqhMVVV1drWpW3bz2Qjw1rVu+oO6fWp6SQVIgNAAD1Bg+cpLsuOX36knB+Gr0Bfr/gWb56du86Jh8bzpy5IrExILkQGwAAigUCgZbNu+uuS96/KxYegkZvQDgc1rQwZ89aKR8b3rx5J7E3ILkQGwAAiv3yy3PdRUn7tlnCxx5o9AY4HA6tCzO772jJzNAirVsgEJLYG5BciA0AAMX27PlBd10ydsxc4fxer5eqERZXVlamaVWGQmGZ7wBrR3bWGImNAUmH2AAAUGzypEW665KCLQeE89PoDXC73ZpW5evX7+SfUJoze6XExoCkQ2wAACjW+duBuuuS27ceCOd3uVxUjbC4mpoaTavyzI+X5WPDnj0/SGwMSDrEBgCASsXFTt1FSWqzDLdb8E5JGr0BNpstGAxqWphr1+yUjw137jyS2x6QXIgNAACVzp69qrso6dUjXzg/jd4Am82mtWHC6FFz5GNDWam2BnNIcsQGAIBKS5ds1l2UzJu7Rjg/jd4Al8uldWF27qT/0cHa8U2Hfnp3BSQpYgMAQKV+2WN11yXHjp4Vzk+jN6CiQttf/Ssrq+S/ahiVP0tiY0AyIjYAAJSpqfGlpWTqrktevSwSHoJGb0B1teAnQPXcv1coHxtWr9ousTcgGREbAADK3L+vvzpp06qXsOstjd4Am83m9/s1Lcz9+07Ix4YfT1+W2x6QdIgNAABltm09pLsoGZY3XTg/jd4Am80mDNj1fD9vjXxsaMyXgTAWYgMAQJmxY+bpLkrWr9slnJ9Gb4DD4dC6MPvnjJPMDM1TMwOBkN6NAUmK2AAAUCMajXZon627Lrly+bbwEDR6A0pLSzUtzEgk0rplT8nY0Lf3KIm9AUmK2AAAUOPXXz/I1CUlJeUNz0+jN8Bms7ndbk0Ls6hIamHWjlkzV8htD0hGxAYAgBonjp/XXZSkdx0inN/v91M1Al6vV9PCPP/TdfnYsGvnUYm9AUmK2AAAUGP+92t1FyUzpi0Tzk+jN8BmswWDQU0Lc+OGPfKx4fatBxJ7A5IUsQEAoEbvXvm6i5L9+04I5y8rK6NqBKLRqKaFOX7c9/KxoaSkTGJvQJIiNgAAFKiqqk5tpr8oKSx8ITwEjd4Al8uldW2md8mVzAwd2mfr3RiQ1IgNQOI4nSVXr946fPjk9m37N27cuXvX4TNnLr579xv3ABZ088bPuouSFmnd/P5Aw/OHQiFKRqCiokLTwqyu9qQ2y5CMDSOGz5DbHpCkiA2AHhUV7qNHTo0dM7Nb5sC01G9TmnVq17ZbVtbwmTMWHz9+prT0Py94sdkcu3cdzh08Ni312y/+kvbZ8VWbzA0bdng82n61Bhjapo17dRclgwZMFM5PozfAZrNVV1drWpgPHz6Vf0Jp5YqtEnsDkhexAdDmt99sE8bP+fvfWv5ZBvjiL2l/+2uLvKET1qwu6JY5sIH/t3qjTeuMy5dv+Hw+bgmsIH/ETN1FyYrlBcL5KysrqRoBv9+vaWEePnRaPjacOnlRYm9A8iI2AI315nXR2rVb//mPto1PAjrGf/29ZZ/eeWtWFxQVvefewKwikUjbNr11FyXnzl0VHoJGb4DNZguHw5rW5sIF6+Vjw/PnbyS2ByQvYgMg4PP59u492qVLTpOmhc+OIbnjX716yx2C+bx6WSRTlBQXOxqePxqNUjICDodgpXxq0MCJkpkhLSVT+NMjGBSxAfhTkUhkz+7DzdO+S3xgqPvlw86dB7lJMJkjh8/oLkq+6dBPOD+N3gCbzVZaWqppYUYi0a9a6/8asHb07pUvsTcgqREbgM978uRFetf+CgND3bFl827uE8xk9qyVuouSCePnC+evrq6magTcbremhfnhg03+CaUZ08WtGGFQxAbgMw4cOP7f/9VKeVr4OP76RfPHhc+4VTCNzIyhuouS7dsOCeen0Rtgs9m8Xm0v6Lt86ZZ8bNi544jE3oCkRmwA6luyZJ3ynPDpGJk/lVsFcygrq5ApSu7fKxQewuFwUDUCwWBQ09os2LJfPjbcuHFfYntAUiM2AH+wauVm5Qnhs+Of/2gbCoW4WzCBK5dv665I0lIyPJ6ahuen0RtQKxqNalqbkyctko8NTmeJ3A6B5EVsAP7j7NlLyuNBA8Nud3K3YAJr1+zQXZFk9RktnJ9Gb4DNZnO5XFrXZrfMPMnM8HW7LL0bAwyA2AD8W1lZeQONnJNhlJX9p/k0YFxDcqfoLkoWLlgvnJ9Gb4DNZisv1/afDK+3Ji0lQzI2DM+bLrE3INkRG4B/mzplvvJg0MD4+99aRiIR7haMLhQKt27ZU3dRcuLEeeEhSkpKqBqB6upqTWuzsPCF/BNKK5aJO7jDuIgNwO/sduff/9ZSeTZoYKR37c+tggk8efxSpih5+1bQPZ1Gb0Atn8+naW0eO3pWPjYcPy4O9jAuYgPwu4Ite5QHg4bHmtX8CQdmsG/vcd0VSds2fYTfudHoDagVDoc1rc2lSzbJx4ZnT1/L7RBIasQG4Hf9cvKVB4OGx5vXRdwqmMC0KYt1VyQj82cJ56fRG2Cz2ex2u9a1OXTIVMnMkNosQ+tXHDAWYgPwu//7z3bKg0EDI2/oBO4TzOG7bwfpLko2bdwrnJ9Gb4DNZistLdW0MKPRaPu2WZKxoWf3ERJ7AwyA2ADEKircyoNBA+OvX6QV0iIapmC3l8gUJTeui9tI0egNsNlsbrdb49p0yT+hNG3KEontAQZAbABiHz4UK88GDYzp0xZyk2AOP/10XaYoKS+vbHh+Gr0Btbxer6a1ee3aXfnYsG3rIbkdAsmO2AAkdWxo2aJLRYW2PxoBSWvFsgLdFUm3zDzh/DU1NVSNgM1mCwaDmtbm9m2H5GPDtat3JbYHGACxAYhVV3uUx4PPjr9+0fzmTXZhmMeAfuN1VySzZ64Qzk+jN6BWNBrVtDanTV0iHxvs9hKJ7QEGQGwAfvf//c/XykPCp2Pz5l3cHpiGzxdokdZNd0Vy6OBp4SFo9AbYbDaXy6V1efbsMUIyM7T7qq/WrALDITYAv8vqOyzBkeD//K1lZmqnwV+lj/q6+7hvekz+ttfM7/p8n569KDNnefd+63oP3Nw3t/jxM24PTOPBgycyRcmzZ4L3wdPoDahVXl6uaW36/YG0lEzJ2JA3ZKrcDgEDIDYAv1u+bEPiHj36S9qANl039R20NSu34fHj/GXcHpjGzh1HdFckrVr0CAZDDc8fCASoGgGbzVZdXa1pbT579lr+CaWlSzbL7RAwAGID8Ltr124nKDN8kTahUw9hYKgdBVm5biePisIkJoybr7siGZI7RTg/jd6AWlp7rp04cV4+Nvxw7JzE9gBjIDYAsdLS8s7fZiUmNvRu2bmRmaF2PDh6gjsEE4hGox2/ztFdkaxZtV14iPLycqpGwGazhcNhTctz5fKt8rHhyeOXEjsEjIHYAMSGDpmQmMzwty+ar+45QFNsOD5jPncIJvD+fbFMRXLxwk3hIWj0BthsNrvdrnV5jhg2QzIzpDZL93q1fcUBIyI2wOpu3bqfmMzwxV/S2vzftpoyw+8je4jfo61rD5CETp26KFOUOByCp/XC4TAlI2Cz2UpLS7UuT5lvAmtH98xhEtsDDIPYAKsbMXxywmJDekonzbEhK/e3X56ovkiArEUL1uuuSDp3Giicn0ZvQK3KSkEz9XpKXGXyTyhNmbxYYnuAYRAbYGk+n/8f/+erhMWGzs066IgNT85eUH2dAFl9e4/SX5FMWiSc3+12UzUCNpvN69X2BfWtmw/kY0PBlgMS2wMMg9gASyssfJawzPDFX9L+579aFWiPDTd37FV9nQAp1dXe1GYZuiuS3buOCQ9BozegViAQ0LQ8d+3U/2bkj+PqlTsSOwQMg9gASzt29HQiY8MXf0lbkJGtNTZcWsvLsGFst28/lKlIHj582vD80WjUbrdTNQI2m01rq+ZZM1bIx4biYqfcJgFjIDbA0rZu3Zvg2JD7VbrW2HBu6WrV1wmQsmXzft3lSPPUbj6fv+H5afQG1HK5XIl8gLB2fNW6t9asAoMiNsDS1q3bluDY8NX/tNMaG84sWqH6OgFSRo2crbsi6Zc9Vji/x+OhagRsNlt5ebmmtRkMhlo27y4ZG3IHT5bYHmAkxAZYWsGWPQmODX/9Ik1r64YLqzaovk6AfpFIpH3bvrorkiWLNwkPQaM3oFZ1dbWm5fnqZZH8E0pLFm+U2CFgJMQGWNrBg8cTHBu++EvamA49NMWGa5vF/XGBpPX69TuZiuT06UvCQzidTqpGwGaz+Xzaeq79ePqyfGw4euSMxA4BIyE2wNLu3nmQ+NjwXbOOmmLDwx9Oqb5OgH7Hjp2TqUjevytueH4avQEfhcNhTctzzeod8rGhsPAFW6RFEBtgaWVl5YmPDf/8e0tNr2EtunNf9XUC9Js7Z7XucqR92yzhTy1p9AbUstvtWpfnaInfHX0c1dXaOkXAuIgNsLpO3/RJfHJY2q1f42OD28GL7WBgPboN012OjB0zVzg/jd6AWqWlpVqXZ6eO/SUzQ2bGUL17A4yH2ACrm//9ysTHhjEduzcyM+wfNUn1FQL0q6x0N3XrWRq9AbUqKys1Lc+KCqnlWTsmTVwosUPAYIgNsLrHiW0UXTv6te7S2N9Db9mh+goB+l27elemIrlz+2HD89PoDfjI69X2sNDdu4/kY8OWzfvYIq2D2ADE0rv2T3Bs6NH820bGBttTfmoGA1u/bpfuciS1WYbbLXibJI3egI8CgYCm5bl373H52HDp0i25TQJGQmwAYocPn0xwbMhp3LcNB0ZNikQi3CEYV97QabrLkV498oXz0+gN+Ehrq+Z5Eq8r+Dg+fND8O2wYF7EB+L0dVZfvshOWGf76l7R5XbMaExuenL3A7YFxhUKh1i176i5H5s1dIzwEjd6AWk6n5pdn9MseK5kZWrfsyd+2LIXYAPzu1q37TZcT0lO/mf5d78nf9urXukv3tG+nf9e7MZlh77CxYY3fOANJ5dnT1zIVybGjZ4WHoNEbUKu8vFzT8gyHw61a9JCMDYMH8tIOayE2AP82etT0psgM//XX5ht6D9LU3612vLh8nXsDQzuw/6RMRfLqZVHD89PoDfioqqpK0/Isevte/gmlRQvWy20SMBhiA/BvbndVm9YZcY8N//h7Cx2Z4eTshTGNT6kCyWb6tKW6y5E2rXoJ+936fD6qRqCWz+fTtDx/OndNPjYcPvSj3CYBgyE2AP/x5MmLf/6jbdx/ybCxj7ZvG3YMHFFh40dmMLyuXXJ1lyPD8qYL56fRG/BRKBTStDzXr9stHxsePXwmsUPAeIgNwB9cuXLrv/7eMr7JYU7jfgBdOwqyct/eustdgdG5XGUy5cj6dbuEhygtLaVqBGw2m92u+S9N48bMk48NVVWCVyTDZIgNQH1Xr9763//dJvGvW60dj344zS2BCVy8cFOmHLly+bbwEHa7nZIRsNlsJSUlWldol86DJTNDepdcvdsDjIrYAHzG/fuP0lK/jVds+PK/WzcyM9zefYD7AXNYuWKrTEVSUiJ4LUwwGKReBGpVVlZqWp5ud7X8Vw0Txs+X2yRgPMQG4PPsdmfPnrnxSg7LuvcTZoa7+49wM2AagwZO1P9XzK5DhPPT6A34yOv1alqeD35+Ih8bNm3cK7FDwJCIDcCfikQiWzbv/t//3Vo+Nkz+tlcDgWHn4Hx+zwAzCQQCLdK66y5HZkxbJjxERUUFVSNQK6Cxyc/BA6fkY8PFCzclNgkYErEBECgqep8/YopkbJja+U9jw4lZCyrtDm4DzOSXR89kypH9+04ID0GjN+Ajra2aF8xfJx8b3r0rltgkYEjEBqBRHvxcOGjgGH2Z4a9fpK3uOeCzfaBfXL5GfwaYz+5dx2TKkcePXzQ8fyQSoWQEajmdTq0rdNAA/c8Q1o5WLXpozSowAWIDoMHr10UzZyz+v/9spyk2dPqyQ73AcGDUpCdnL4Q1fq0MGMWkiQt1lyMt0rr5/YKlQaM34KPycsH7A+qJRKJtWvWSjA0D+0+Q2yRgSMQGQDOfz3/u3OVRI6c1pjfcP/7WcmWP/h/TwrUtO2xPX/BHGphbp479dZcjgwZMFM5fVVVF1QjUqqqq0rQ837+3yT+hNP/7tRI7BIyK2ADoFwqF7t9/tGZNQVbW8P/53FcQrZp9s3f+8kc/nC66c9/tcHGtYQXFxXaZcmTF8gLhIWj0Bnzk8/kS2VOldhw8cEpik4BRERuA+IhGox8+FJ89e2n1qi2TJs2b//3Kc+cuBwIhri+s5syPl2XKkXPnrgoPQaM34KNQSNt/aDZv2icfGx78/ERik4BRERsAAPG0ZPFGmXKkuFjwYjEavQEf2e12rSt04oQF8rGhstItsUnAqIgNAIB4ys4ao7sW6dSxv3B+r9dL1QjUKikp0bpCM9OHSmaGrt8N1rs9wNiIDQCAuKmp8aWlZOouRyaMny88BI3egI8qKys1rVCvtya1WYZkbBg3dp7EJgEDIzYAAOLm3t1fZMqR7dsOCQ/hcrmoGoFaHo9H0wot/OW5/BNKG9bvltgkYGDEBgBA3GwtOCBTjty/V9jw/DR6A+oKaOz/c/TIGfnY8NNP1+X2CRgVsQEAEDdjRs/RXYukpWR4PDUNz0+jN6AurV2AlizeJB8bioo+yO0TMCpiAwAgPqLR6NftsnTXIll9RgsPQaM34COn06l1kQ4ZPFkyM7Rq0UPrK19hGsQGAEB8vH37QaYcWbhgvfAQNHoDPiovL9e0QqPRaLuv+kjGhv79xklsEjA2YgMgq6w09vPd2NEDsa0bYssWxGZNio0eEhs9NDbm/x+TR8eWzIsVbIgdOxi7cSVmK45Fo1x2mNDx4+dlypETJ84LD0GjN+CjqqoqTSu0uNgh/4TS9/PWSGwSMDZiA6BHiSt2+Xxs/YrYhPzY0BzNY+yw2NplsXOnYqUurj/MY/68tTLlSNHb9w3PT6M3oC6fz6dphV69ckc+Nuzfd0Jun4CBERsADdzu2MVzsQWz9ESFPxuL5vw+Z2UFNwKG16vHCN21SNs2fYQ/7qTRG1CX1t8YSL7orHbcvy943RlMjNgANMq7otjmtbG8fvEMDHXHsAGxHVtiDhu3A0ZVVeVJbaa/FhmZP0t4CBq9AR/Z7Xati3TqlCXysaGiwq13k4DhERsAgTevYisXN1Va+HRsXB378I6bAuO5ceO+TC2yaeNe4SFo9AZ8VFJSonWR9uw+XDIzdP52oN4dAmZAbAD+VEV5bNvGxAWGumP31liNl1sDI9m4YY9MOXLj+v2G56fRG1BXZWWlphXq8/nTUjIkY8OY0XPk9gkYG7EB+Ixo9PffG4wcrCYz1I6JI2P3bnN3YBgjhs2QKUfKywU1kN/vp2oEPvJ4PJpW6NOnr+SfUFq3dpfcPgFjIzYA9VVWxlYl8KmkhsfmtTGfoG0uoF4kEmnTqpfuWqR75jDhIWj0BtQVCAQ0LdITcu9Hrh1nz16V2CdgeMQG4A9ePI2NG64+LdQdMyfGbL9xm5DUXrx4K1OLzJ65QniIsrIyqkbgI+Gbx+pZvmyLfGx4+4bf3lkasQH4j+uXY8P6q88Jn46Rg3lgCUnt0KHTMrXIoYOnhYdwOByUjEAtp9OpdZEOy5sumRlapHUPhcJ6NwmYAbEB+Ldjh9THg4bH5QvcLCSpWTOWy5Qjz569bnj+UChEvQh8VFZWpnWRdmifIxkbcrLGSGwSMANiA2CMzFA7zp/hfiEZZXQdorsWadWiRzAo6FpFozegrqqqKk0r1OkslX9Cae7sVXL7BAyP2ADEjh1UnwcaP+ZM+f130vt3xS6cjb19HQvzjTFUKyutkKlFhuROER6isrKSqhH4qKZG27sybsq1Vakde/ccl9gnYAbEBljdpZ/UJwGZMSYvtnsbv5mG0kV06ZZMLbJm1XbhIWj0BtQVCgm+oKtn544j8rHh7t1HEvsEzIDYAEt7+jiW10996R+XsWNLzKvtLd5AfKxetV2mFrl44WbD80ejUUpG4CO73a51kc6U+/VR7Sgrq5DYJ2AGxAZYl8sVGz1UfbkfxzEhP/bLA9WXFdaTO3iyTC3idJY2PD+N3oC6SkpKtC7SPr1HSmaGTh37S2wSMAliAywqHI4tmqO+0G+Kce2S6osLKwkEAi2bd9ddi3TuNFB4iOrqaqpG4KPKSkFL9XqCwWCLtG6SsWHUyNkS+wRMgtgAizp8QH1933Tj4jnV1xeWUVj4QqYWmTJpkfAQNHoD6vJ4PInsxlg71qzeIbFPwCSIDbAcrye2s0B9Zd/U49HPqi80rGHvnuMytcjuXceEh6DRG1BXIBDQtEhPn7ooHxvO/HhZYp+ASRAbYC3Pn8Ymj1Zf0ydgjMmLubV9jw3oMWXyYpla5OHDpw3PT6M3oJ5IJJLIlxbUjlevfmWLBLEBFnL5gvpqPpFj+ybVVxwW0PnbgboLkeap3Xw+f8Pz0+gNqMvpdGpdpCPzZ0lmhuapmYGAtle+wpSIDbCKc6fV1/EJHnn9Yk7Nr+kDNLDbnDK1SP+cccJD0OgNqKusrEzrJtWpY3/J2JDVZxQ7I4gNsIqHI5HkxgAAIABJREFU99UX8UrG4X2qLz1M7dzZqzK1yJLF4m/ESkpKqBqBj6qqqjQt0rIyqSbutWP2rJUS+wTMg28bYH6VlWbrz9D4MXFkLBpVfQNgXsuWbpapRU6fFrwtmEZvQD01NTWaFumdO4/kY0NjXl0AKyA2wPw2rFJfviscxR9U3wCYV7+ccTK1yPt3xQ3PT6M3oJ5QSNtvDPbu+UE+Nty+/VBuq4BJEBtgch/eqS/c1Y6b11TfA5iUz+dLS8nUXYi0b5sVFX0XRqM3oC67XfPv1ebMXiUfG0pLKyS2CpgHsQEmV7BefeGudhzco/oewKR+vv9YphAZO2au8BA0egPqKikp0bpOs7PGSGaGjl/n6N0kYDbEBphZIBDLH6y+cFc75k1TfRtgUtu3HZKpRQq2HBAegkZvQF0VFdr+6h8Oh1s27yEZG/JHzJTYJ2AqxAaYWeEj9VV7Mowqt+o7ATMaN3aeTC1yR/S0NI3egHo8Ho+mRfrmzTv5J5RWrdwmt1XAPIgNMLNTP6gv2ZNh/HxX9Z2A6USj0Y5f5+guRFKbZVRVCQqgmpoaqkagLr9f0B6xnrNyr0iuHadOXZTbLWAexAaY2ea16kv2ZBi7+VMR4u3dr8UyhUivHvnCQ9DoDagnEoloWqfr1+2Sjw0vXryV2CpgKsQGmNmkUepL9mQY08SteAFtTp64IFOIzJu7RngIGr0BdTkcDq371NgxcyUzQ1pKpt8fYH9ELWIDTMtuV1+vJ88odam+HzCXBfPXydQix46ebXh+Gr0B9ZSVlWldp991HiQZG/r0GimxT8BsiA0wrUs/qS/Wk2fcuKL6fsBc+vQaKVOLvHpZ1PD8gUCAqhGoq6qqStMidbur5Z9Qmjl9udxWAVMhNsC0LN4cut4oWK/6fsBEqqu9qc30FyJtWvUKh8OiQ1RTMgJ11dTUaFqnP/8s1VmlduzceURut4CpEBtgTpFIbMxQ9cV68ozxI2KihrxAY92+9UCmEBmWN114iPLyckpGoK5QKKRpkzqw/6R8bLh542d2RnxEbIA5Fb1VX6kn2yj+oPquwCy2bN4nU4isX7dLeAgavQF12e32qMa//cz/fq18bHA5Nf+gAiZGbIA5nTmpvkxPtnFB8BtUoLFGjpglU4hcuXy74fnD4TAlI1BXSUmJ1h1qQP/xkpnh63bZbIuoi9gAc1qxSH2ZnmxjLT9sQzxEIpG2bfrI1CIlJeUNH4JGb0A9FRUVWtdpm1a9JGPDiGEz5HYLmA2xASYUCMRGDFJfpifbGJkbE/0MFRB79epXmUIkvesQ4SHcbjdVI1CXxyPoql7Pu3e/yT+htGJ5AXsi6iI2wISeP1VfoyfnePta9b2B8R09ckamEJkxbZnwEDR6A+rx+/2a1umFCzfkY8OJ4+cltgqYELEBJnTskPoCPTnH6eOq7w2Mb87slTKFyP59JxqePxqN2u12qkagrkgkommdbtq4Vz42vHj+Rm63gNkQG2BCC2erL9CTcyxboPrewPi6ZeTJFCKPH79oeH4avQH1OBwOret04vgFkpkhtVmGzxeQ2CpgQsQGmE1NTSyvn/oCPTnHsAExv0/1HYKRVVS4ZQqRFmnd/H5BIeLxeKgagbrKyjS/BTW96xDJ2NCrxwiJrQLmRGyA2Tz8WX11nszj6WPVdwhGdvXKHZlCZNCAicJD0OgNqMftdmtapx6PN7VZhmRsmD51qcRWAXMiNsBs9u9SX5on8zh6QPUdgpGtW7uzqV/M4nQ6qRqBumpqajSt00ePnklmhpQv07dvOySxVcCciA0wm1mT1ZfmyTzmz1R9h2BkQ3OnyBQi585dbXh+Gr0BnwoGg5rW6eHDP8rHhuvX7sntFjAhYgNMxV2pvi5P8pHXL+apVn2fYEyhULh1y54yhUhxseCXnT6fj6oRqCcajWpaqosXbpCPDQ6H5r7UMD1iA0zlzg31dXnyjwf8CQm6PHnySqYK6dSxv/AQNHoD6nG5XFqXau6gyZKZod1XfbVmFVgBsQGmsmOz+qI8+cfeHarvE4xp//6TMoXIhPHzhYeg0RtQT0VFhaZ1Go1G233VRzI25A2dJrFVwLSIDTCVKWPUF+XJP2aIX2YDfMb0qUub9BeWNHoDPuXxeDTtR8W/OeSfUFq2dDObID5FbIB5OO3qK3KjjHLNLwEHYl06D5IpRO7fK2z4ItLoDfiU3+/XtPtcuXxbPjYc/+Entjx8itgA87hyQX05bpRx65rquwWjcTnLZKqQtJQMj0fwEkkavQGfikQimpZqwZYD8rHhyZNXchsGzInYAPPYuFp9OW6UsW2T6rsFozl//rpMFZLVZ7TwEDR6A+pxOAQvH/vUlEmLJDNDarP0mhqf3q0CZkZsgElEIrFxw9SX40YZ08apvmEwmhXLC2QKkYUL1gsPQaM3oJ6yMs1PlHbPHCYZG3p0G6Z3n4DJERtgEu+K1NfiBhp5/VTfMBjNwP4TZAqREyfONzw/jd6AT7ndbk3r1Ofzp6VkSMaGaVMWy+0WMC1iA0zi3Cn1tbiBxpg81TcMhuLzBVqkdZMpRIrevhcdgkZvQH01NYJfBNXz5PFLycyQ8mX61oIDchsGTIvYAJNYtVh9LW6gsX6F6hsGQ3n48KlMFdK2TR/hzzpp9AZ8KhgMalqqPxw7Jx8brl69K7dhwLSIDTCDcDiWP1h9LW6g8fKZ6nsGQ9m584hMFTIyf5bwEKWlpVSNQD1aWzUvW7pFPjbYbE6J3QJmRmyAGTgd6gtxA41jgqZbQH0Txs+XqUI2bdwrvKZ2u52SEajL5XJp3YyGDZ0mmRnatumtNavAOogNMAMavTUyMIwfEbt2WfXdggF906GfTCFy4/r9hucPBoPUi0A9FRUVmtZpNBr9ul2WZGwYkjtFbreAmREbYAahUGxkrvq/4ifVyMsJjcwpnTmqZMu62OF9sQtnYy+exgIB1bcKBvThg12yECkvr2z4EDR6Az5VXV2taak67C75J5SWLqatD/4UsQEmsWur+ko98WNYTnB0jmtCzqtp2bfnZJ9ZkL1/afa61Vnfb8waX5A1ZGtW7pUNW1XfGRje6VOXZKqQ7pnid8BXVFRQNQL1+P1+TUv1+rV78rHh6NGzErsFTI7YAJOorIhNGqW+jm+KkZcTGpXjmJD9fFrOrTnZpxdk71mevXZN9tyN2eO2ZuU2PM4tWaX6zsDwFi3cIFOFzJ4pfm8Xjd6AT4XDYU1Ldfu2Q/Kx4XHhC4ndAiZHbIB5OGyx2ZPVV/lxHwuzdwrjwZ+N4zPnq74tMLysvqNlqpBDB083PH8kEqFkBOpxOBxal+qMacskM0Nqs3Sv1yexW8DkiA0wlXA4dvdWbNum2MLZsXFD/UNzosqLfvkxJ/tH3bHh4Fh+3AYpHo83tZlU09lnz143fIhAIEDJCNRTWlqqdbX27pkvGRu6ZdAKFA0hNsC0Xly6VpCVtyFr0qrsRUuyNs3PPjgmx6Y8A+gYU3Pu644Nu3JHqr4PMLY7dx7JVCGtWvQIBkMNHyIcDlMyAvW43W5NSzUQCDZPlWrlnvJl+uSJC+U2DJgcsQGm9fLqjXo19Jzs08ozgI4xLued7thQkJUb0fh0LFBXwZYDCXiZo9/vLy8vLykpcblcTqfT4XBQRMLivF6vpr3oxfM3kpkh5cv0LZv3swGiAcQGmNara7fq1dALs3crzwA6xvCcGt2xYWtWrrdS25+sgLpGj5ojU4WsWbVd5npGo9FwOBwKhYLBYCAQ8Pl8NTU1Xq/X4/FU/Yvb7a6oqCj7l9LSUpfL5fgX1SUfICsYDGpaLKdOXpSPDZcv3WYDRAOIDTCtNzfv1Cugl2etUZ4B9I1N2aN1x4by34pV3woYVTQabd+2r0wVcvHCTYUfPvwvoVCoNnLUpo56kaO8vPxj5OCLDiQPra2aV67YKh8bfvtgb7IVCTMgNsC03t6+V6+AXpM1R3kA0DfWZH+vOzbYn79UfStgVG/fvJOsQpxOzT/rTAbRaDQSiXyMHH6//2PkqK6u/jRy1D5e5XA47Ha76moTZuByubT+o80fPlNytX7VunckEmmaJQWTIDbAtIru/lyvgN6cNUZ5ANA3lmRt0h0bfr33QPWtgFH9cOycTBXSudPAmCU1/GyV2+2urKysfbaqbuTg2Sp8VFFRofVf3Tcd+knGhtxBk5pmQcA8iA0wrXf3H35aQw/P8SvPADrG99lHdceG5xevqr4VMKp5c1fLVCFTJi1SfQbG08hnq/g5h7lVV1dr+mdTUlIu/4TSooUbmuzfNUyC2ADTev/gl09r6FE5DuUZQMeYkX1dd2x4dOJH1bcCRtWj+3CZKmT3rmOqz8BatD5bxc85kpbf79d062/feiAfG44cPtNk/zZhEsQGmNaHR48/raEn5jxTngF0jAnZz3XHhjt7D6m+FTCkykq3ZBXy8OFT1SeBJn+2ip9zNIWwxhdn7951TD42/PLoGQsGDSM2wLR+K3z6aQ09Leem8gygY4zMKdMdG65u3Kb6VsCQrl+7J1OCNE/t5vNp+4spjItnq+LI4XBovf6zZ62Ujw3V1do6RcCCiA0wLdvTz/yFfk72KeUZQMfIy4kUZA3TFxt+WrZG9a2AIW1Yv1umBOmfM071GcCQkYNnq0pLNb9/LLvvaMnMkNF1SNPcXpgKsQGmZX/+8tMa2qAd34bmxNZnTdcXG07MWqD6VsCQhuVNk6lClizepPoMYN2fcxj62Sq3W1uPzlAo3LJ5d8nYMHEC/6WAGLEBpuV4+frTGnp51mrlAUDfWJ69Sl9sODR+mupbAeMJhUJtWvWSqUJOn76k+iSARkWO2t9y1EaO2rzx8RfklZWVdbtz1DYEbOrI4fVqe1jo9WvZ/iopX6Zv3rSPfy4QIjbAtFyv335aQ6/Nmq08AOgbC7L36osNu4eMVn0rYDwvnr+RrELev6M9Oczs47ccwWCw7rcckpHD4XBo7bl25sfL8rHh0kVlDd1hIMQGmFZp0btPa+jNWaOUBwB9Y1b2T7p/FR2l8Sc0OnjglEwJ0r5tVjQa5aoDjXlpld/vr40cXq9X6zuUYrHY2jU75WPD+/fkfIgRG2Bapb++/2wNPSzHpzwD6BiTsz/Tva6Rw6excxAwY/oymRJk7Ji5XEMgMUaPmiOZGVq37Kn1Kw5YE7EBplX+4bfP1tBjcuzKM4COMTb786fTmFFRbFd9N2Aw6V1yZaqQgi0HVJ8BYBWdOw2UjA0DB0xQfRIwBmIDTKui2PbZGnpizlPlGUDHGJ7jL8gaoi82OF68Vn03YCQuV5lkFXLn9kPVJwFYQmVllfwTSgvmr1N9HjAGYgNMq9Lu+GwNPS37hvIMoG9syhqnLzb8v/bu+62pZW8b+H+0dbezy3kQEHuviIIliZWmiIKC2FBRVCxYwAKIWFBBUazYEBAVO6JiA8UQ0kjvJHkvzX45mo2kzEoma637c80vz3Wdx5WZybC/d9aaNR8foYYDH9y+1UhSgkQMmqbV6jHiAEHw6GEzeWyoOHMZkwXeQGwAztJI5X3W0JuEF6kHAP/aHsFW/2JDa20D7dkANtmbf4SkBJkZm0K7BwB8caq8mjw2PHnSQrsfwA6IDcBZWrmizxp6q7CMegDwr20XlvgXG55fvEp7NoBNFi3IJClBcjbhYHKAINmcs488NuD2IHgJsQE4S6/s7rOG3iXMpx4A/GubhNX+xYam8kraswGsYbFYoiKJTpytOneNdicA+GKeKJ0wM0ydEk+7E8AaiA3AWQaVus8aukCQTT0A+NfWiO75FxvqDx+lPRvAGs+fvyasQt6+aaPdCQBesNvtw4bEES7YFembafcDWAOxATjLpNP1WUMXCZZSDwD+tZWid/7Fhuu79tOeDWCNE8erSEqQ4UNn+nFeFQD4oa2tg/wJpYMHTmDwwUuIDcBZFr3hR2X0Ynae+JYi6vv+icd2ceM22rMBrLEqYytJCbI4eS3tHgDwxY3rDeSx4cYNvDMDvIXYAJxlMRp/VEYvF3ZSzwB+tCSRo0iwxI/YULkSlRx4a+L4+SQlSGHBMYw1QHAcPHCCPDa0t3dgvsBLiA3AWTaL5UdldKawhXoG8K/tF2b7ERtOJC2nPRvADmKxlLAEuVN7n3YnAPhiRfpmwgU7NCrWbrfT7gewBmIDcJbdZvtRGb1O2EA9APjXdgoK/HlOSZiA/zCAN65evUNYhcjl3RhqgOCInhJPuGDnz12ByQLvITYAZzns9h+V0ZuE1dQDgH9ti+C0f9sbTDod7QkBFtix/RBJCRI9NYF2DwD4QqfTRwyaRhgbtuTghRngA8QG4LLiH9TQ24VHqQcA/9p64S3/YoNa0kV7NoAFRILlJCXIujU7afcAgC+ePn1JmBnCw6JPnbpIux/AJogNwGUlwoQ+a+jdwt3UA4B/LVP4wr/YIH37nvZsQKgzGk2R4TFEJUh5Ne1OAPBFZcVl8tjw+NEL2v0ANkFsAC4rnZvUZw1dIFxHPQD415YJu/yLDZ+ePKc9GxDqHj5sJixBXrxopd0JAL7YmltIHhvUag3tfgCbIDYAlx1dsLjPGrpIsIR6APCvJYlsJYK+b6H0397U3aU9GxDqjpRUkNQfUZHTzWYL7U4A8MXCBRmEmWHyxIW0OwEsg9gAXFa2KOVHZfRikZF6BvCvHRBk+hEbmi/X0J4NCHVpy3NISpCF8zOcbGa32x0OB+1PAeAVu90xYtgswtiQtmwThht8gtgAXHYsIfVHZfRykZh6APCv5Qt3+BEbHp4+R3s2IKQ5HI6xo4UkJcjuXcVO1lIoFJ1fSSSSrq4umUwml8uVSmV3d7dardZoNFqtVq/XGwwGk8lkNputVqvNZkPSAFo6OjrJn1DC4YzgK8QG4LITSct/VEZnil5QDwD+te3Co37EhobiMtqzASGtra2DsASpqalzspPdbu8k0xs2FAqFUqlUqVSupKHT6fR6vdFoNJlMFovFZrP19PTgngaQq719jzw21Fxj65oFWhAbgMtOLk7/URm9TlhHPQD41zYKL/sRG27mF9KeDQhp1RduEJYgYjFbX/JrMpkIY4N/MaPPpOG6p4GkAf0rLjpFHhs+fOjAOINPEBuAy8pTVv6ojM4RXqAeAPxrq4UP/YgNlzZtpz0bENK2bN5PUn9MGDfPyVoajaYz5LmShlQq7TNpuGLGt/c0aA8qBNaqzG2EmSEqcobNZsM8gU8QG4DLTqf+cPfwdkEp9QDgX0sXtfkRG85mrqc9GxDSZsWlkJQgGStynezf2MAx3+7T+FHSMJvNSBpsND0miTA2zBWm0e4EsA9iA3DZmbSsH5XRu4W7qAcA/9oSkd6P2HAyGf+FgB/SanURg4hKkKOllSwdX4fDIZFIaFf4ocJtk0afScNisbh2hOOeBi0GgzEyfBphbNi0cS+1DgBrITYAl1WsWPOjMrpQwNYT3xJFzsOCH74h6kftiCjRiZdLwg803n1MWII8etjM0tG1WCy0a3VOJY3u7u4+k4YrZiBpMKK5uZVwwYaHRZefvMDMpwE+QWwALjubsf5HZTR7T3xLFDn3CXL8uOFgMRppTwiEqEMHT5LUH5Hh0/R6tn67dDod7cKbd1ybNFyPTrnFDIPBYLHg0EAPqs5dI48ND5ueB2eJAZcgNgCXnVuV3U8ZvVikpx4A/Gs7hAf9iA2aLhntCYEQtWTxOpL6QzB7mZO1lEol7Soa3OGmRP925B0ijw1KpSpIaww4BLEBuKxq9aZ+yujlos/UA4B/bbPwrB+xQfb+A+0JgVBkt9tHDic6bnZrLotf79vV1YWyPdTgaIv+JSasJswME8fPD9ICA25BbAAuO7+2v4d5MkXN1AOAf22dsM6P2PDpKVufPoeAetPaRliCVFffYOkc2Ww22hUyuJPJcF+0Pw6HY/RIAeGaXZa6MWirDLgEsQG4rDo7t58yep3oDvUA4F/LEL3yIza8rb9He0IgFFVWXCEsQdo+fHKyk8PhUCgUUqkUL1MKHd3d3bS/FyFNIpGRP6G0f99R2v0AVkJsAC67uHFrP2V0jvA89QDgX0sVKfyIDS+uXKc9IRCKstfvJqk/Rg6fbbc7nOzncDh6enpsNpvFYjGZTEajUa/Xa7VajUajUqmUSqVCoZDJZHioKdB0Oh3t70JIq69vIo8NV6/eod0PYCXEBuCyS5u291NGbxccoR4A/GtJInuxIMnX2PDoTBXtCYFQFDMtkaT+WJqS7eQfu92OgBEgZrOZ9vSGtNIjFeSx4d27j7T7AayE2ABcdmXLzn7K6HzBTuoBwO9WKFzta2y4W3Kc9oRAyFEqVYT1x6GDJ2l3ggU3MXAHw3t2u532pIW0NavzCNdsVOR0i8VGux/ASogNwGVXt+7qp4wuFKylXv373XYL8n2NDTf3HKA9IRByam/fJyxB7jY8ot0JTgUMq9XK50ekpFIp7XkIdXGxSwjXrGAOi9+YDHQhNgCXXdu+p58yukiwOEnkoB4A/GtbBSd8jQ2XN++gPSEQcvbtPUpYgnR3q2l3gnd6t2GYzWaOBQzsh+6f2WyJDI8hXLMbN+QH6ZsKnIPYAFxWs2Nv/5V0ikhHPQD417JFNb7GhnOr+PgMOvQvIT6LpP6YEZOMEWbRPu/QDxjYD92/V6/eEWaG8LDoE8exzw38hNgAXHZjd0H/lXSa6BP1AOBfWyV84mtsOLl4Be0JgdBis/UMjYolqT82ZONnS24GDIPBQCVgmEwm2iMR0qqrb5DHhgcPntHuB7AVYgNw2c38wv4r6Uzhc+oBwL+WJuzwNTaUiJJoTwiElpYXbwjrj8qKy7Q7AaHyplpGAkZPTw9mtB/5u0rIY4NSocIgg38QG4DLbu071H8lvV5YSz0A+NeSRSafY4Mg3mI00p4TCCHlJy8Q1h+vXr2j3QkIXXa73bXJu3cPhk6n6+cOBs6H9mhJ8jrCNTtujCgYcw8chdgAXFZbUNR/GZ0jrKIeAPxuhwRpvsYGrUxOe04ghKzJ2k5SfwyNirVa8RpHYOwOhsPBhXMDA2rcGBFhbFi6BJvcwH+IDcBldw6U9F9GbxeWUK/+/W57BLm+xgb5h3bacwIhZPLEhST1R0J8Fu0eAPCIXKYkf0Jpb/4R2v0AFkNsAC6rO1TafxmdL9hBvfr3u+UJi32NDZ+ft9CeEwgVEomcsP7Yt6eUdicAeORe4xPy2HD50m3a/QAWQ2wALmsoLuu/jC4UrqZe/fvdcoTnfY0N7+7epz0nECqu19QT1h+3bjbS7gQAjxwrO0seG960ttHuB7AYYgNw2d2S4/2X0cWCZPae+LZG1OhrbGi5dpP2nECo2LWziLD+kEoVtDsBwCPZ63YTrtnI8BiLxUK7H8BiiA3AZY2lJz1W0ilCLfUA4F9bKXrra2x4XHmB9pxAqJg3N52k/pg0YQHtHgDwy5xZqYSxYc6sVNqdAHZDbAAuu3fslMdKOk34kXoA8K8tFal8jQ13S0/QnhMICSaTJSpyOkn9kZW5jXYnAHjEarUNGTyDMDZkr9tFux/AbogNwGX3T5zxWElnCZ9RDwD+tSSRo0iw2KfYcGvfIdpzAiHhyeMWwvrj+LEq2p0A4JG3b9oI12x4WPSxsnO0+wHshtgAXNZUXumxkl4vvE09APjd9gvW+xQbLm3eSXtOICQcLa0krD+ePn1JuxMAPHLlci15bLjX+IR2P4DdEBuAyx6ePuexks4RnqNe/fvddgr3+RQbzqzcSHtOICSsSN9MUnwMjphuMplpdwKAR/btPUoeG2QyJe1+ALshNgCXPa7w/IrSPGEx9erf75Yr9Lx549t2LGkl7TkB+hwOB+FZs/NE6bQ7AcAvy5ZuIMwMY0YJaXcCWA+xAbjsydlqj5V0viCPevXvd8sW3vRtV7QomfacAH0fP4oJ648deazfJONwOOx2O+1PAeCtCePmES7bJYvXYbiBEGIDcNnTqkseK+lCQRb16t/vtkrY7FtsEMTb8NJu3rt06RZh/XHlci2rR9Fut3d1dXV+JZFIpFKpXC5XKpXd3d1qtVqr1er1eoPBYDKZLBaLzWbr6elxOBy0PzXwl0qlIX9CKX93Ce1+AOshNgCXPau+4rGMLhYkJ7L2xLdlok5fY4NOjmdb+W5bbiFh/fHpo9jJZkajsdN3Eomkq6tLJpMpFAqlUqlSqTQajStjGI3GbzMG7f4B1zQ1PSOPDRercdwnkEJsAC57fumaN5V0ikhDPQD415JF1hJBgk+xQdH+kfa0ALsPjRo9UsD2n95VKpUfscHvjNHd3Y2AASROnrxAHhtev36PWQBCiA3AZS+uXPemkk4XsfXEt0SR84Agw6fY8LkZ783kNZ3OEDFoGknxkbZ8k5Plep9QCgUeb2JYrVY8JcVzORv3EmaGyPAYs9lCux/AeogNwGUt17zaMZwlekq9+ve77RHm+RQb3jc20Z4WoOn+/aeE9Udx0WlWT6HFYulkJzwlxVtzhWmEy3ZWXArtTgAXIDYAl726ftubSnq98Bb16t/vtl1Q6lNseFlzi/a0AE1Fh8sJ648H95+yego1Gk0nD7gyhmurN7ZhsFpPT8/QqFjCZbt2zQ7a/QAuQGwALnt98443lfQWQSX16t/vtlF42afY8KjyAu1pAZpSU7JJio+IQdO0Wj2rp1Amk9Eu6dlxEwPvkgoRbR8+EWaG8LDoo6WVtPsBXIDYAFzWWlvvTSWdJzxMvfr3u60WPvApNpTFp8o/tNOeGaDDbrePHD6bpPiYGcvuRx16enpoV+kshqekqLheU08eG+42PKLz6YFbEBuAy97U3fWmks4XbKde/fvdVojafIoNJYL444nLVGIJ7ckBCt69+0hYfORs2sfqmdPr9bRrb77Ay2qZUlhwnDw2SKVyxj4Q8BhiA3DZ2/p73pTRBwSrqFf/frcs0VNfY0OJIL46OxdH5PLQuXPXCIuPqnPXnGymVCqx1kRcAAAgAElEQVRpl9Pg+SYGTsP4VvryHMJlO2aUgNqSA25BbAAue9/o1QM8xYKkJJGdegDwoyWJbIWCtX7EhhJBfOutOtrzA8G2acMewvrj7Zs29k6bw+GQSCQo29nr2yO9VSoVT470njJpEeGyTU5aQ7sTwBGIDcBljysveFlDp4jU1DOAH22V8Il/maFEEH9+Devfvg++mhGTTFJ8DB86k+1HIHd3d0ulUoQHngSM3uP21Gq1RqPR6XRGo9HJKhqNjvwJpV07i2j3AzgCsQE4S/r2/RFRopc1dLqojXoG8KPlCQ/7HRtKBPHdn8W0ZwmCR6XSEBYfi5PXcmbCHA5HT0+P1Wo1m81Go1Gv12u1WrVa3d3drVAoZDJZSB0JBwxiV3J48riFPDZcuHCDdj+AIxAbgLPOr83xvoDOEj2mngH8aIWC1SSx4V3DPdqzBMFTV9dEWHwUFhzn24S50oXFYjGZTL3pQqVSKZVKpAuWslqtTvY4c/oSeWx4+fIt7X4ARyA2ADd9bm7xqYDOFt2kngF8bUkie7HA29spfbbHZ3GGA48U7D9GWHzU3XlAuxOhGy1sNpsrXRgMBq1Wq9FoXOlCLpd3dXXhsagQIZGw7CVyuVsKCJdtxKBpJpOJdj+AIxAbgJvqi476VEBvEVawMTaQZIYSQXzTyQraEwXBk5S4hrD+kMu7MWHk6eLbx6I0Gg0eiwompVLJru/wwvkZhMs2dsZi2p0A7kBsAG46szzLpwI6T3CIegzwoxULkkliQ/Mldr9ME7xns/UMGxJHUnxET03AgAeB3W7vvXHR52NRuHFBQqfTsehrbLc7hg+dSRgb1mTl0e4HcAdiA3CRw+H9ZmhX2yvcRj0D+NH2CjaTxIa2JpwbyhcvX74lLD7WrdlJuxPQ92NRvTcuXOkC+7n7YbFYWPQ1+vSpk3DZhodFHyk5Q7sfwB2IDcBBFqPR1wL6gCCTegbwo20RnPY7MxyZm2Rh1RtFgMTpUxcJi49T5dWYApa+LerbGxdqtZq3+7klEgm7jnS4dbORPDbU1zXR7gdwB2IDcJHvdxuKBYlsPPEtTfjZ79hQs2Mv7XmC4Fm7Zgdh8fHiRSsmjPM3LoxGo06n671xoVAouHTMhUKhcLLK4UPl5LFB0iml3Q/gDsQG4CZf9zaUCOKXilTUY4AfbZdgrz+xQZigaP9Ie5YgeKZOJjpoNipyutnMpqc7gFnc2M/Nro0NTqczY2UuYWYYOXw2u26wQIhDbABu8vVNSl9OfBN+oJ4B/GipIkWRYImvnb1beoL2FEHwyGRKwuJj4fwMTBiw/ZgLdm1scDqdMdGJhCs3MT6LdieAUxAbgJs+P/ft3IYvJ74JH1HPAP61DNFLn16pdGXLThurDjwC6k9I795VjFmAoB1zEYjMwLqNDQaDMWLQNMKVuyPvMO1+AKcgNgBnXfDllOgSQfwG4XXqAcDvtkr4pEiw1KstDXl7bTj6h2fyd5cQFh81NXW0OwH8wvh+btZtbGh+/ppw2YaHRVdV1dDuB3AKYgNwVtebdyXCBO9jwxbhGerVP0lbJpLlC3f108FjCakt1246WfV7GzBiwfyVhMWHWNyFuYCQjRYWi8UVLXr3cysUCrlc/u1+boPB4GSVc2evkseGlhdvaPcDOAWxAbjs+aVr3seGXYK91Et/8pYufL9VeLxQ8L8d4Ydmx6+bPHvOkMnt79toTwhQYDZboiKnk1QeE8bNw8wBezkcDrvd7mSbvO2HCDNDxKBog8FEux/AKYgNwHHPq68WexcbKjJzlyX68A7WeXHSmdFPYibVThlXPWHUiTHDD4wbVTZh1PEpYy9MGX8xdsoDUWxHgtBGKz8kiWyzJp3/69exA36KdLWXL/ECTT569vQVYfGRsSKXdicAeCdh0SrClTsjJpl2J4BrEBuA+z49fX4qNbO/zCBMuFty3GYy3a3rrxAXxXVMGX9x+ODc//618NefR/eW4/20nwcOD/s7YdTQPTOm3I8XmIOWGRbMUg2NzHb7MPfu4UxoPjpWdo6w+DhaWkm7EwD84nA4Ro2YTbhyV2Vuo90P4BrEBuAFq8nceqvuwvotbrsdTianNR492d0h7v1fNtY5lyX29Nbf8ULz9MkNwwZv+f3XKd7khP4ixIARQyKyYyffSwzsuXKOqeMu//bLuH9/gJqaWqqTAGx99fujh82YPIBgEou7CJdteFh0cdFpzBowC7EB+MVqMsvefxC/eCV51apTKPvcHyz+rIgYtGL4kO0R/7f8l4EjCdPCv9sf/4mbPLYqXsj8zYfZMa8G/XfJj65bUVFNY8iBsgnj5pFUHpHh0/R6I+1OAPBL3Z0H5LHhTu192v0ArkFsAHDX1SVjPCr8u/3+69QpYy8kCB2MBAZhbHtUxNoBPw3u54olJScx2XzzuUNCWHkIZi+j3QkA3ikpPk0eG8RiCe1+ANcgNgC46+zsCkJscLX/+yt+ZvQTkkeS4qY+HBKxduCA/gKDq+3efQiTzTdXLtcSVh5bcwtpdwKAd1Zn5RGu3BHDZrHreDtgBcQGAHdisSRoscHVIsPS46Y+9OnOw/xZigmjTvzxnzjvr7Jx405MNt9s33aQsPiorr5BuxMAvBM3YzHhyo1ftIp2J4CDEBsA3HV0iIMcG1ztP79Fjx5WMGPy3fmzun/0fqQZUxrHjDj8378W9v88Up8tPT0bk803QsFywuKj7cMn2p0A4BeTyRwZPo1w5W7fdpB2P4CDEBsA3H38+JlKbPi2/f7rlL//nDvovykRYWmD/rvk7z9Fvwz06pWv/bT4+HRMNq8YDKbI8BiSymPk8Nl2O55zAAiqly/fEmaG8LDoc2evYtqAcYgNAO7a2z9Rjw2BaHFx8ZhsXmlqekZYeSxNwR0qgGCrvnCDPDY8f/4aMweMQ2wAcPfhw0fqJX4g2vjxszHZvEL+MpZDB9n99i2Hw2G322l/CgDf7NpZRB4bdDoDxh0Yh9gA4O79uzbqJX4g2uDISZhsXlm+bCNh5XG3gcUni9vt9q6urs6vJBKJVCqVy+UKhaK7u1utVmu1Wr1ebzAYTCaTxWKxWq09PT148wyEguSktYQrNyY6kXYngJsQGwDcvX37gXqJH4j2269DMdn84XA4xowSEBYf3d1qJ2sZjcZOv3R1dclkMoVCoVQqVSqVRqNxZQyj0ejKGDabraenh3b/gLPGjhYRrtzMjK20OwHchNgA4K619R31Ej9AzWQyYb554sOHDsLKY0ZMspPNVCpVZ4BJJJJ/ZwydTucWMHATA7wnlSrIn1AqOlyOMYdAQGwAcPf6NWdjg1wux3zzxIXz1wkrjw3Z+U42631CKRT0GTD+fRMDOzGg8e4j8thw+/Y9jCQEAmIDgLtXr95Qr+8D1N69a8N888TmnH2ElUdlxWUna1kslk528jJg4Ckprio7epY8NnR0SGj3A7gJsQHAXUtLK/X6PkDtyeNmzDdPxM1YQlh5vHr1zslaGo2mkwfcMkbvVm8EDPZav24X4codNiQOt60gQBAbANy9aH5Fvb4PUKutvYv55gOtVk9YeQyNirVabU7WkslktEt6lt3EwLukQsTsWUsJF+/CBRm0OwGchdgA4O7585fU6/sAtQsXcG4oL9xtIH08OiE+y8laPT09tKt0FsNTUhRZrdaoyOmEi3drbiHNPgCnITYAuHv69AX1+j5A7fixSsw3Hxw8cIKw8ti3p9TJWnq9nnbtzbuMgW0YjGht/UC4csPDoivYvCsJQhxiA4C7J4+bqdf3AWoFBUcw33ywmPi4qFs3G52spVQqaZfT4MNNDLysttflS7fIY8PTpy9pLj/gNMQGAHePHz8PZim/aGFa6tI1AwcMDsK1tubuxXxznt1uHz50JmHlIZUqnOzkcDgkEgnKdvbi85Hee/eUkscGrVZHux/AWYgNAO4ePnwWtMyQnrbeddE9+YeDcLmsVZsx35z3+vV7wrJj0oQFTjbr7u6WSqUID7y6g9Hd3d173J7BYGBpqFiakk24eKOnxNPuBHAZYgOAu6YHT4IWG06dqgrmPuwli1dhvjmv4sxlwsojK3ObkxMcDkdPT4/VajWbzUajUa/Xa7VatVrd3d2tUChkMllIHQkHDDIajU4WmjBuHuHiXZm+hXYngMsQGwDc3bv3KGix4U7tP0+Qm0ymnwdGBfpyQsESzDfnrV9L+t7348f+SbM80ZsuTCbTt+lCqVQiXbCU1Wp1so1SqSJ/QunggRO0+wFchtgA4K6x8WHQYsPr1/87UWvihDmBvtzUKXMx35w3bWoCYeWBLZU/ihY2m81isbjShU6n02g0KpXKlS7wWFTokEhYeUbygwfPyGMDq19mAKEPsQHA3d2GpqDFBpVK03vdFSs2BPpyw4dNw3xzm1JB+oPl4IjpJpOZdj9Yny6+fSyqN13gsajgUCqVThY6eeI8eWz42C6m3Q/gMsQGAHf19feDkxn+8/vwb69bXHwy0Ff8+6/RmG9uu337HmHZMU+UTrsTfEkXvTcuXOmi98YF0gUhnY6VrxLauGEP4eIdGhVrt9tp9wO4DLEBwN2dO/eCExvGjokL/sNR+I8Kt5G/wHFH3iHanYA+HosyGAzf3riQy+XYz/0jFouFjd8hoWA54eJdMG8l7U4AxyE2ALirrb0bnNgwV5Ty7XW7u9VBfiwKuCd+YSZh5XHlci3tTgDpfm6NRsPbt0VJJBI2vn21p6dnyOBYwsW7ZfN+2v0AjkNsAHB361ZDcGJDZmaO26WHDY0O9EU7OvDkK2dZLJYhg2cQVh6fPuIbwkF2u72f/dwymYwzx1woFKw8qfD9+4+EKzc8LPr0qYu0+wEch9gA4O7mjbrgxIbdu92fBklOygj0RVtaWjHlXNXc3EpYdoweKWDjL7UQiMeiWLqfm6UbG65dqyOPDU8et9DuB3AcYgOAu+vX7wQnNpw8ec7t0nv3FAX6oo2NTZhyrjpB/CaWtOWbaHcCQl2IH3PB0o0NhQXHyGODWo1nUCGwEBsA3F27djs4seHWrYbgJ5arV29hyrlqVeY2wrKjuOg07U4A9/dzB+6YC5ZubHA6nWnLNxEu3imTFtLuBHAfYgOAu2tXgxQbXr50f17o8+fOQF/0zOkLmHKumjRxAWHl8eD+U9qdAB750TEXfu/nZunGBqfTOXnSQuJbhe6b5QAYh9gA4O7KlZvBiQ1KZbfbpR0OR9j/jQ3oRYuLTmDKOamzU0pYdkQMmqbV6mn3A6C//dwGg+Hb/dxyufzbGxcGg4GNw6fR6MifUDpQeJx2P4D7EBsA3F26dD0ImeH334b1eTNdJFwS0Ovu3nUQU85J5FsqZ8Z+90ZgABZxOBzsPZTm8eMX5LHhek097X4A9yE2ALi7WF0ThNgwenRsn0Ofm7snoNfdkJ2HKeekHXmHCcuOnE37aHcCgI9On7pIHhva2jpo9wO4D7EBwN2FC1eDEBuEgiV9Dn1V1ZWAXjdt+XpMOSfNFaYRlh1V567R7gQAH23ZvJ9w8UZFzrDZbLT7AdyH2AAQ7MLd1Vau2Njn0Le2vgvodRctTMOUc4/RaIoMjyGsPN6+aaPdDwA+mj9vBeHinStKp90J4AXEBgB3585eCkJs2LmjsM+ht9lsv/82LHDXjZ2xCFPOPY8eNROWHcOHzuzp6aHdDwDesdvtw4fOJFy/OZv20u4H8AJiA4C7ysqLQYgNx49V/mjoY6YtCNx1x42diSnnntIjFYRlx+LktbQ7AcBHHz9+Jly84WHRp8qrafcDeAGxAcDdmTMXghAbbly/86OhX7tma+CuGxE+AVPOPelpOYRlR2EB3t4IQMHNm3fJY8PDh82YPAgCxAYAd6dPByM2tLS4n/XW68TxysBd99dfhmDKOcbhcIwdLSQsO+ruPKDdDwA+OnTwJHls6O7W0O4H8AJiA4C78vKqIMQGuVz5o6F//Ph5QC9tMpkw61zS3t5BXnbI5e6HDwJAEGSsyCVcvJMmzMdMQXAgNgC4O3nibKAzw6+/DOnnZCK93jBwQACv3tUlw6xzycXqm4RlR/TUBNqdAOCp6KkJhOt3+bK+38sHwDjEBoCgPiPkaiNHTO9/3MeOiQvc1d+8eY9Z55LcLQWEZce6NTtpdwKAj/R6Q8SgaYTrt2B/Ge1+AF8gNgC4O3asItCxYc7spP7HffmydYG7+qNHzzDrXDJrZgph2YHXsABQ8ezZK8LFGx4Wfe1aHaYPggOxAcDd0aOnAx0b0tM8HNV86NCxwF391q0GzDpnaLW6iEGkZceLFz/coA8AgVNZeYU8Nrx//xFzBMGB2ADgrvTIqUDHhu3b9/c/7nV19wJ39fPnr2LWOeNe4xPCmmPI4BkWi5V2PwD4aPvWA4TrNypyhs2GgxohSBAbANyVlJwMdGw4evR0/+OuUHQH7uplZWcw65xx+FA5YdmxcH4G7U4A8FT8wlWE61coWE67E8AjiA0A7oqLTgQ6NtTU1Hoc98GRkwN09f37SzDrnJGyZD1h2bF7VzHtTgDwkcPhGDViNuH63bRhD+1+AI8gNgC4O3w4gPsKXO3585cexz1+UVqArr5lSz5mnRvsdvvI4bMIy46aGuynBKBA/LmLcPGGh0WfOHEekwdBg9gA4O7gwbJAxwapVO5x3HfvOhigq69atRmzzg1v37SRlx1icRftfgDw0Z3a++Trt6kJb8aD4EFsAHB3oLA0oJnh54FR/Zz11uva1dsB+gDJyZmYdW44W3mVsOaYMG4e7U4A8FRx0Wny2KBUqmj3A3gEsQHAXUHBkYDGhmHDor0Z9Pb2TwH6AALBYsw6N2zIziesOTJW5NLuBABPZWVuQ+wHdkFsAHC3b19xQGPDzJkJ3gy6w+H4689RgfgAUyYLMevcMH1aEmHZcbS0knYnAHhqRkwy4fpNTcmm3QngF8QGAHf79gY2NixLXevloM+elUTxdgeEOKVSRf6Ew6NHzbT7AcBHJpM5Mnwa4frdu6eUdj+AXxAbANzt3VMU0NiwNXevl4Oes2lXID7AX3+OwqxzAPl+ysjwaXq9kXY/APio5cUb8th/5bLnd3kDMAixAcBdfv6hgMaG0iOnvBz0ysqLAfoMNpsNE892+/cdJaw5BLOX0e4EAE+dr6ohjw1v37TR7gfwC2IDQPDefOpq167e9nLQW1paA/QZVCq8fIP1EuOzCGuOrbmFtDsBwFM7dxQRrt/BETEWC34AgqBCbABwt3NHYUBjw9MnL7wcdIvF9usvQwLxGT62d2DiWc1m6xk2JI6w7KiuvkG7HwA8lZy4hvhuYSrtTgDvIDYAuMvLKwhobOjs9OF0rSlTRIH4DM3NrzDxrNbS8pb8CYe2D59o9wOAp8aMEhCu3+z1u2l3AngHsQHA3fZt+wKXGQYOGOzTvoLMzJxAfIy7DU2YeFY7VV5NWHOMGjHbbnfQ7gcAH3V1yclj//FjVbT7AbyD2ADgbmvu3sDFhqjBk30a8aNHTwfiY9ypbcTEs9qarDzCmmMpJ974brc7X75wtr5yijucGvWX/xMg9DXUPySPDffvPaHdD+AdxAYAd1u25AcuNsTOWOTTiDc9eBKIjyGTKTDxrDZ54kLCmuPQwZNO9quvdSaKvmsrFjs3rHLu2Ow8uNdZXua8eM5Ze8P56IHzzWtnp9ip1TgduMUCtJUeqSCPDXK5knY/gHcQGwDcbc7ZHbjYkLp0jU8jrtPpGf8Mo0fHYtZZjZEnHO42PHKy36F97rHBm5ay0Ll2hTMvx1mwy1l6yFl1xnmrxnm/wdn81Pmp3alW4a4FBNa6NTsJ1++4MSJMEgQfYgOAu02bdgYuNmzZku/riI8cMZ3Zz5CZsQmzzmrXrzcQ1hwRg6apVBon+61a5k9s8KalJTk3ZP0TLU4ccV6s+idavG75ctcC0QJIzIpLIVzCKUvWYwog+BAbANxt2LAjcLGhuNjnJ0NSlmQx+xnKy7GRjt127ywmrDlmxCQ72U+tClRmYCpa4IEo+Der1To4YjrhEt6TfwRjC8GH2ADgbkN2XuBiw6VL130d8YKCI8x+htev32HWWW3+3BWENceGbJ/veoWgx02UY4PHtmSBM2PpP9Hi8H7n6eP/RIvHTc53bxAteKr19XvC9RseFn3p4i3a/QA+QmwAcLd+3fbAxYaHD5/5OuKVlRcZ/AB//TnKjtfNsJnJZImKJP2psrLispP9Kk7SDwbkLWWhh2hhMNAeaGDUpYu3yGNDa+sHTAsEH2IDgLu1a7cGLjZ8/tzp64hv2czkm53mz8fBouz25EkLec3x+tV7J/tt20i/6A9ytMjf/mUPtyta1Nd+2cPtihZGI+3JAK/tyT9CuH4jw2PMZguGHIIPsQHA3ZrVuQHKDAMHRFosPpz15jJrZiKDn2Hf3mJMOauVHT1LWHMMjYq1Wn3+HoYam+3LI0DUC3q2RAu5zNnD+jnniJTF6wmX8KyZKbQ7ATyF2ADgLmvV5gDFhsGRk3wdbrvd/sd/RjD4Gerr72PKWW1l+hbCmiMhPsvJfm3v6VfqrGvLE53rM748DVVU4FR1055Cvho/di7hEl63diftTgBPITYAuMvMzAlQbJges8DX4X7z5j2zn0Gj0WLKeV5z7NtT6mS/m9foV+GsbvfqaU8hL8nl3YTrNzwsuuzoWdr9AJ5CbABwl7FyY4Biw5LFq3wd7nNnLzH4ASZNFGC+We3TJzF5zXHrZqOT/Q7vp195s7pJxLSnkJfu33tCvoTv3uXCWY3ARogNAO5WrNgQoNiQs2kX3bPn1q3bjvlmtcuXbpPXHFKpwsl+gTvojQ9t5RKcKUHH8WNV5EtYJlVS+vjAd4gNAO7S09YHKDYcPnzM1+GOi41n8AOcO3sJ881q27YeICw4Jk/0+Um5EET9oDe2t6IC2lPIVxuy8wmX8JhRuGkM1CA2ALhbvmxdgGJD9YVrPg23zWb7/bfhDH6AtrZPmG9WE8xOJaw5sjK3Odkv9A96C/F25ybtKeQr4ZxlhEt4cdJa2p0A/kJsAHCXmromQLGh6cETn4b71as3DF49LGycw+HAfLOXTmeIGDSNsOY4fqzKyX7cOOiNYsPGBipstp4hg2cQLuHdO/ESbaAGsQHAXerSQMWGjg7fNiGeOXOBwasnJa7EZLPagwfPCAuO8LDop09fOtmPPwe9BaJhYwMt7959JF/C1RduUOsA8B5iA4C7lCVZAYoNJpPZp+HOXr+dwasfPFiGyWa1osOnCAuOwRHTff0ShiAc9EYYG7CxgZZrV++Qx4ZXL99R6wDwHmIDgLvFi1cFIjNEhE/wdaxjYhZQfEQKQk3q0g2EBcc8UbqT/XDQG2FswMYGWvbvKyNcwhGDpplMJmodAN5DbABwl5yUEYjYMC16nk9jbbHYfvt1KFNX/+XnIfiPDas5HI7RI+cQ1hw78g452Q8HvRHGhk6c2EDJstSNhEt4ZuwSWh8eAHsbAPqQmLAyELEhOSnDp+FuaWll8Ooxvh9QDSHl/XsGnoq+crnWyX446I0kM6zAiQ30TJqwgHAJr129g+LnB8DdBgB38fHpgYgNGzb49uf+1KkqBq++OWc3ZprVqqpqyGPDp0+dTvbDQW8kseHwftrzx1dqtZZ8CR8pqaDdD+A1xAYAd4sWpgUiNhw4cNSnsV67diuDV7906TpmmtU2bdxLWHCMHS3kwBt4cdAb4RNKtTixgZJHD5vJY0ND/UNanx8AsQGgDwvmLwtEbDh//qpPwx09dR6DV5eIpZhsVoudnkxYcKQt3+RkPxz0ho0NLHWqvJo8Nkgkctr9AF7D3QYAd/PmpQYiNty//9j7sTaZzL/8PISpS0cNnoxpZjW1WkNecBQXnXay3/kK0rqZzw0nNlC0OWcf4RIeNWIOB24YAqshNgC4mytKCURsaG//5P1YP3vWwuClU1PXYJpZrb6uiTw2PLj/1Ml+be+d+ducG1Y5lyfRr8JZ1w7toz1/PDZv7grCJZyUsJp2J4DvEBsA3AkFSwIRG3x6/+mJ45UMXrr0yClMM6sVFhwjLDgiBk3TavVObrHZvmx16BQ7X7c47zc4r11ynj7+ZctvXo5zQ5YzNYF+mR5qDRsbaLHb7cOGxBGu4p07DlPrAMBXiA0A7gSCxYxnhrCwcT4NdNaqzQxe/dmzFkwzqyUnrSEsOGbFpTj5x2pxymXOd2+czU+d9bXOi1XOE0ecBbucW9Y7M5Y6k+fRr+OD3HBiAy1tbR3kNwzPV9VQ6wDAV4gNAO7mzE5iPDZMmSLyaaAnTxIydenffxtmsdgwzexls9mGD51JWHDkbMLjKX0wGP53s+JWjbPqjLP0kDN/+5ebFWmcewgKJzZQdON6A3lsaGl5S7MPAIgNAP82a2Yi47EhIX6F90NtMpl+HhjF1KXnzE7CLLPaq5fvyAuOqnPXaPeDfayWLw9BfWr/382K3oeg1q5wLp5PPwn41HBiA0UHD5wgXMIRg6KNRh+edAUIBNxtAHAXFxfPeGxYv2679wP95HEzg5fOyyvAHLPamdOXyGPD2zdttPvB2ZsV7958eS1s782K3oegkubSjwrfNmxsoGhF+mbCJRw7PZlmBwC+QmwAcBc7YxHjsaGwoNT7gS4rO8PgpW9cv4M5ZrV1a3cSFhzDh87s6emh3Q/ece3Ydt2sCIUd29jYQFH0lHjCVZy1yoffngACBLEBwN30mAWMx4ZzZy95P9CZGZsYvLRMpsAcs9pU4oJjcfJa2p0Ayju2sbGBIp1OHzFoGuEqLinmwrkrwHaIDQDuYqYxHxsaG5u8H+gJ42czdd3Ro2MxwawmkynJn1AqLDhOux/A8I5tX4+twMYGip4+fUm+iuvuPKDZB4CvEBsA3EVPncd4bHj/vt3LgdbrDQMHDGbqupkZmzDBrHbrZiMKDuiT2eyUdv2zs+L2deeFSufRIuf+Xc7N6/q4WdFYh1GkprLiMvkqFll7VC0AAB3DSURBVIulmEKgDrEBwN2UKSLGY4NO5+1JW01NTxm8bnl5FSaY1fbkHyEvOOTybtr9gGBzOJxajVPc4WxpdrY8d9rtmAJqtuYWEi7hkcNnORwOTCFQh9gAEMAzE1ztv3+P8X6UjxwpZ/DSr1/hPd/stnBBBmHBET01gXYnAHiNfBUnxGfR7gTAF4gNAO4mTRQwGxsmTRR4P8rp6dlMXfevP0fZ8Rsjm1kslqjIGYQFx7o1O2n3A4C/7HbHiGGzCFdx3vaDtPsB8AViA0AAdyS72qKFad6P8tgxcUxdd/78VMwuqz1/9or8CaVT5dW0+wHAXx0dneSr+ByOa4TQgNgA4G78uFnMxoa1a7d6Oco6nX7gAMauu29vMWaX1Y4fqyIvOF68aKXdDwD+qr19j3wVNzdjFUNIQGwACODv/f+U7/u8Ld/v33/M4HXr6+9jdlktM2MrYbUxZPAMi8VKux8A/FVcdIo8Nuh0Btr9APgCsQHA3ejRsczGhooKb58SKS46weB1NRotZpfVJo6fT1htLFyQQbsTALy2KnMb4SqOmZZIuxMA/0BsAHA3auR0ZmOD97/6L1+2jso+bAhBYrGE/EfK3bvwoBoATdNjkghX8aoMbx9zBQg0xAYAdyOGxzAbG96+/eDlKI8eNYOpi65btx1Ty2pXr9SSx4aaGpzyBUCN0WiKDJ9GuIqLDpdjCiFEIDYAuBs2LJrKWW8ajZbBi547ewlTy2p52w+SxwaxuIt2PwD468WLVvJVXHsbu9QgVCA2ALgbOmQqg+X7X3+O8nKI7zY0MXjdtrZPmFpWEwmWE1YbE8bNo90JAF6rOneNPDZ87pDQ7gfAPxAbANxFDZ7MYPk+fvxsL4f44MEypi4aFjbO4XBgaln+bEMMYbWxfNkm2v0A4LWdeYcJV/GwIXE4tRNCB2IDgLvBkZMYjA0L5i/zcoiXpqxm6qJJiSsxr6z28GEz+Y+U+/aU0u4HAK8lJqwmXMWLFmTS7gTA/yA2ALiLjJjIYGxYnbUl+FuxDx4sw7yy2pGSM+SxoaqqhnY/APjL4XCMHikgXMXbcgtp9wPgfxAbANyFD5rAYGzYu6fImyFWqVQMXrTpwRPMK6ulLdtEHhtu3rxLux8A/CWRyMhXcWXFFdr9APgfxAYAd2Fh4xis4E+fvuDNENfV3WPqij8PjDIYjJhX9nI4HGNGkf5IGR4W3dj4mHZXAPirof4h+Sp+9vQV7X4A/A9iA4C7//vvWAZjw53aRm+GuLCglKkrxsQswKSymlgsJa82wsOi6+ubaHcFgL9Kj1SQr2KtVke7HwD/g9gA4O7vv0YzGBtev37nzRAvXryKqStuztmNSWW1+romRmLDtat3aHcFgL/Wrt5BuISnTU2g3QmA7yA2ALj7689RDMYGjUYb5MMiLl26jklltbKjZxmJDSdPnKfdFQD+mhmbQriEV67w9o0aAMGB2ADg7o//jGCqgv/P78O9GV+5XMlgUJGIpZhUVstev5uR2JC7uYB2VwB4ymy2kB+9cujgSdr9APgOYgOAu99/G85UBT9u7Exvxvf27Qamrhg1eDJmlO3mz13BSGyYP28F7a4A8NTrV+/Jl/Ctm15tjQMIGsQGAHe//TqUqSJ+3tyl3ozvvr3FTF0xNXUNZpTtYqITGYkNkeExGg32UwJQUF19g3wJf/woxuRBSEFsAHD3y89DmCriMzNzvBnfxISVTF2x9MgpzCjbjR0tZCQ24NdKAFryd5cQLt5hQ+LsdjtmEEIKYgOAu4EDBjNVxO/efcib8R0cOZmpKz571oIZZbuoyOlMxYaMFbm0ewPAR0uS1xEu3gXzV9LuBIA7xAYAdwMHMFPBD/gp8uTJcx7Ht6tLxtTlfv9tmMViw4yymslkYSozhIdFD46YLpd30+4TAO+MGyMiXLy5W/BKAwg5iA0A7pgq4gf8FHn7doPH8b15o46py82ZnYTpZDtmY0N4WPTePaW0+wTAL3KZknzlnjl9iXY/ANwhNgB8x263MxgbXr1643F89+QfZupyeXn4dYoLyN/b+G0bGhUrlSpo9wmAR+41PiFfuU+e4IlTCDmIDQDfsdlsDMYGlUrlcXzjF6Uxdbkb13EqMBeMGjGH2RsOGSuxwwEgeI6VnSNftlqtHnMGoQaxAeA7FgtjseH334Y5HA6P4xsRPoGpK8pk+FGZC6ZMWshsbAgPi75eU0+7WwB8kb2O9MTGqZMX0e4EQB8QGwC+YzKZmSriR4+O9Ti4YrEkmJcDVhAKljMeG0YOn/3+/UfaPQPghTmzUgkXbNpyr17eDRBkiA0A3zGZTEzV8ULBEo+De+3abaYul5mxCXPJDWuytjMeG8LDomOiE7u71bQ7B8BxFouV/B3KBw+coN0PgD4gNgB8R683MFXHr1yx0ePg7tp5gKnLlZdXYS65oehweSBiQ3hY9MzYFLlMSbt/AFz2/Nkr8qV6/brnt/ABBB9iA8B3dDo9U3X8zh2FHgd3wfxlTF3u9au3mEtuuH69IUCxITwsenpMUltbB+0uAnDW8WNV5Ou0vR2LFEIRYgPAdzQaLVN1/Injlf0PrsPhCAsbx8i1/vpzlN1ux1xyw7t3HwMXG8LDokcMm1VTU0e7lwDclJqygXCFDo2KtdlwcCeEIsQGgEDFhps3PFRmHR1ipq41f34qJpIz7Hb7mFGCgCaH8LDolSu2SCQy2n0F4BSNRjs4gnRjQ2J8Fu1+APQNsQHgO93daqZK+ZaW1v4H98qVm0xda9/eYkwkl2StCsiuaLc2bEjczh1FCA8ATKm+cIN8YRbsP4YZgdCE2ADwHaWym6lSXi73sPc0L6+AqWvV19/HRHJJVVVNEGKDqw2OmJ62fNPVK7UajY52vwHYba4wjXxJNtQ/pN0PgL4hNgB8Ry5XMlLH//rLEI+bDeaKUpiKDRqNFhPJJZJOadBiQ2+LGDRt9qylm3P2lRSfvnK5trHx8YsXre3tn5VKldVqpT0kAKHu6dOXjKxEtVpDuysAfUNsAPiOXC5npI4fOWJ6/yPrcDj++/cYRq41aaIAs8g9ogAc+kbShg+dOXnigtmzliYmrF6Rvnnjhj27dxUXF506feri5cu36+ubnj59+f79R5lMYTKZaQ8eAAVLU7LJF9qsuBRMHoQsxAaA73R1yRgp5efMTup/ZNvaPjF1q2Hduu2YRe6prLhCPSqQtGFD4npjxsoVWzZt3JO/q6S46PSZ05euXqm92/Co+fnrtrYOhaK7p6eH9mADkLrX+ISRhVNYgI0NELoQGwC+09nZxUgpn562vv+RvXjxOlOx4dzZS5hF7tHrDcOGxFGv/oPQIgZNGztaOH1a0ry5K5amZK9Znbc1t7Bgf9mxsrNVVTU3bjQ8ePDs1at3HR2darUWLxqGEGS1WmfPXMrIcmh9/Z52bwB+CLEB4DtisYSRUj4vr6D/kd22dR9TsaGt7RNmkZM2bdhDvaZn9X0MiwVbMiAY9u8rY+S7HT0l3uFwYM4gZCE2AATkLIWysjP9j2xyciYjFwoLG4f/zHDVq5fvqNfonMkYCfFZri0Zu3YWFR3+/1sy6v7ZkiGVKoxGE+0JB1Z68rglMjyGka/r3j2ltHsD0B/EBoCAxIZr1273P7Lp6dmMXCgxYSWmkMNWZWylXnnzqmFLBvikSyKbMG4eU18/PKEEIQ6xAeA7Op2ekWq+uflV/yN75vQFRi504MBRTCGHfWwXM/VDJhrjIzBmlKB3S8bqrH+2ZJQdPVt17pprS8bLl29dWzKw7ZuTtFq9cM4ypr5OixZk0u4QgAeIDQDu4uLiCUv5338bZjJ5eODBZDKPHRNHHhtev36HKeQ27HDgRuDBlgyO0esNC+dnMPgNuX69gXafADxAbABw19T09OeBUSSl/Hrv3oj6sb1j/LhZJBdatDAN88d5Eol8xLBZ1KteNAoZY+Y/WzI2ZOe7tmScKq++fOmWa0vGu3fYkkGNUqmaP28FgzM+eeJCmw1vIoZQh9gA0IerV2/98dtw/0r5qVPm6nR6L4fVZDKX7C2eHjlh9N9jov4Y8fevQ38eMNjLC02eJFSpcJgoL5yvqkHVjhH40QgMjpg+fuzcuBmLFy7IWJa6cd3anXnbDx0oPH7ieFX1hRu1t+89etjc2vqhs1Oq1Xr7pwn60fbh07SpCcx+IcuOnsWYQ+hDbADo263i46ljp88eMikuauLU8PFTwseN/b8xo/87etifIyP/GDHo92F//jL0j5+HfFvHR0ZM3LGj0GAw+jSmLddulgjiv237Zy7Imy7aOHVO1sSZS8dOXzQiWjBkcnTEeMGsxClTRKNHx86fn3r06GmLxYbJ44/lyzaibsYIBPkNtlYr/si4u3qllvG7f6NHzkGiA1ZAbIDAstvtNpvNYrGYzWaTyWQwGPR6vfYrzVfqr1QqlfIrxVfyr2QyWZfvpFKp6//X9U+5/tnu7m7XVVwXdX0AnU5n+MpkMpnNZqvVarPZencuPjhZ4VbN/6hdzt2l0Wg1Gq1/Q1RfdNSbq5xMTnPifd48JpMpx4wSoG7GCAR5BEYOnz118iLhnGXJSWszM7bmbNq3J//IkZIzFWcuX7t6p/Euj07JEH/uSk/bHIhBPlVeTbtzAF5BbAB/uJKAKwbodDqNRuOq+xUKhUwmk0qlEomkk80kEslt76r5EkH83eJjJF+jC+u3eHOV2oIifFl5rq6uKWIQ6maMQOiOwNCo2EkT/tmSkZ72z5aMw4fKXVsy6u48ePqkxbUlw9e7snRpNLoDhceHRsUGYtCmTU2wWCy0uwjgFcQG6IPdbrdarSaTSa/X90YCuVzOgTzgPe9jQ8Px03K5XKlUuu5m6PV6o9Houn1ht9s9fMMcjrKFKd5cpbUWL9kA54kT56mXhmgYAQa3ZMROX7xw/j9bMrZvO+jaknHh/PXbtxpdWzLE4i6KD/CIP3ftyT8S0HcS1Fyrw582YAvEBl6z2Wxms9lgMGi1WpVK5bpXwJ9gwFRseHT5Wv//VFdXlytXqNVqrVbreizKarX29PRopHIvr6KVyWl/XyAkbMstRNmKEeDhCIwZJYiJTpwnSk9Zsj5r1fbcLQX79305JePc2as3rjc8uP/0ZcvbT586VSoN+SkZHR2dZyuvJsRnRQyaFtBOxS/M9PzrEkDIQGzgC5vN5rp7oFarlUqlVCoNVvnN/djwsvGB31d5duO2N5c4k5ZF+xsEocJms6Ut20S9hkPDCITyCIwYNuufLRmJazJW5rq2ZJQUn3ZtyXBt+259/b6jo1Ms7nr37uPjxy+u19QXF51anZUXzfRbkn7UhkbFfmwX0/6LAuADxAYOstvtFovFYDBoNBokhCDEhrbXrX5fpf7YKW8ucbOgyLWrW6vV6vV6k8lksVhsNht+puIni8WWtWo79coMDSOAESAZgfKTF2j/LQHwDWIDd+4kaLXa7u5uqVQqFov9L5bBx9hwZG6SHwPe3v7R9f91JW+PN1d5fPW6Nw9BuTZX6HS6b/dXkN+vhxBkt9s35+xD0YYRwAiwdAQWLcDjScA+iA2s1NPTYzQaNRqNXC7HVgS6saE8NdOPf3xr7p5ffxkydkxc3IhpCSOnrZ40a2/c/B9eRZjQ/vYdYXckEolUKnW9l/bbGxeujRYWiwUBg3UcDsfuXcXUqx80jABGwNcRGDViTkeHhPafEACfITawg91uN5vNOp1OqVR2dXURVpDAYGw4vyHXj/GMX5T271Of//h5yMi/Rs8ZMjl1zIyNU+ccnL3QdYmKlWuDPGW9x1/0HnnRe8yF0Wh07ed2xQw8JUXd7dv3Rg6fjboNI4ARYMsIRAyKvtvwiPZfDgB/IDaENLPZrNVq5XI5njsK2dhQs+eAH//4qJHT/x0b/t3+/nXoxLBxS4WLS0vLGxsffP78uTP0iMViiUTS1dUlk8nkcrnriD3XKX6usOHajPHtmXoIG8z6+FEsmJ1KvRhCwwhgBLwZgbKjZxn+EwAQLIgNIcdqter1eqVSSbsa5DsvY0PdsXJf/+X29vafB0Z5Exvcmuu5pqUpWbt2Fp49e/HRo6edLOd6dKo3bLjubKjVatdJ3q5nqFz3NyxfuY7xRur4N5PJsntXcWR4DOo2jABGIJRHYE1WnsPhoFBbADABsSFUWCwWjUaDB5BYFxseXrzi679cW9vgR2bosw2JmrI0Jevs2YufP/NrH3zvLQ5X6nC7y+HaF94bOcxmc2/kcHLau3cfkxJWUy+M0DACGIE+RyAxPstkMtH+OwHgP8SGkEgLOEWBvbGh5e49X//lIyUnmIoNvW3MmLjS0nK+hQe/uT1V5brL4brF4cobva+4Zd3vgg6H4+qV2ugp8ajbMAIYgZAagQXzV+r1Btp/IQCIIDZQYzKZZDIZ7fIJ3D172pyYuCIxccXsKYIp4eM8tkXzU13/+3+3tOXrcnJ2nTxZ+ebN228vsX7dNsZjg6vFxcW3tLzCpAbizobrtoYrYLiihdlsttlszpBkt9vr65oWzF9JvVRCwwhgBMLDogVzlqnVOtp/GABIITYEm91u1+l0eBgpZDU03GO8mv/1l6GzZyWWlZ1y3Q0QzEkOUGwY8FPk4MhJN2/eoT2KPCIWi6VSqUKhUKvVer3ebDaH1NaLh03P12TlDRsSh9INI4ARoDUCQsFylUpD+48BAAMQG4LKaDQiMPAwNvS2CRNmV1dfjYyYGLhLDPgp8s8/RjbU+/zoFDBFLBbLZDK1Wh06DzGbTKYbNxqyVm1HfkDpjBEI8gikLt2AZ5OAMxAbgketVqMy43lsCFqLjJj4/PkL2mMJXzZR6HQh9GSCzdbT+vp9RcXlDdn5sdOToyKno4jECGAEAjcCW3L2h+yjjAB+QGwIEoPBgBqKFbgRGwb8FCmYk0x7LOEf3d3dzlClVKjetLY11D+8cOHGqfLqIyUVBfvLtm09sCE7f1XG1pQl6xfMWzlrZkr0lPjRI+fgBa+osDECXo5AxKDoIyUVtNc3AMMQG4IEtxrYgjOxYcBPkefOXaQ9nPCFRCJxcojJZJHJlB/ef2x9/f7Z01f1dU23bjZevnT71KmLRYfLC/aX7dpZtCE7Pz0tJ2XJ+vhFq2bFpUwcP3/0yDkRg1B0YgR4MQLjx8691/iE9koFYB5iQ5BYLBYUUKzApdgwdkwczhenTiwW6/X6YP2lYUfkEIslH95/dIscZWVniw6XuyLHmqzt6Wk5rsgRE504cfx83OigXgqjeTkCqSnZCoWK9lIDCAjEhuCxWCzYDx36uBQbBvwUibcqUSQWixUKhcViCeKfGS7T6QxyubKjQ9L6+v3jRy/uNjy6caOhqqrm5IkLJcWnC/aXbc0tzF63K2NlbsqS9fPmps+MXTJ18iLc5UC5H7QRGDFsVsWZy6w77AXAe4gNQWW327VarUQioVnLAJ9iw/p12zDhwadQKHQ6ndVqDe4fGPDt2arLl25XVdW4nq3atbNoa25hn89WoezGCHgzAulpORKJHIsQuA2xgQ6j0ahQKPAASQgKcmwYOGDw7FlJI0bE/DxwcCD+/bFj4miPKPeJxeKuri6lUqnVak0mU0id2wCBfrbqR9s5XM9WRQyahpqb8yMQOz35/v2nWGvAB4gNNFmtVq1WK5PJkB/4fLchd0t+Z2fnp08djY0PSkvLN2zImz8vdcTwaYz847//NgzfLsbJZDKlUhma57tBqNFqdTKp8uNHcevr9w8fNtfXNV2vqa+qqjlxvKro8Kl9e49uzS1ct3bnyvQtSxavmytKj52xePLEhbjLwZbAcOniLZuth/a3DCBIEBtCQk9Pj16vVyqVzBc4EPKxYcL4WX1+kjdv3tbU3Dp8qGx11ubpMQv+/GOkf//+ixcv8S3wQ1dXl1wud8UDnU5nMBgsFktPD+oDCNFnq+IXrZorSnc9WzVk8AzqJTW32+yZSy9fuo0zGYBvEBtCi91uN5vNWq1WoVBgCwR/9ja8ft3q8YN9/ix+9PDJ6dNVW7fuSUxYMXrUjJ8HRnnzjzc04MRod11dXTKZTKFQdHd3q1QqjUbjCgYmk8lqtSIbAAdYLDatVi8WS96///iiubWp6dntW18erKqsuFJWdvZA4fFdO4u2bN6/Jmv7stSNCfFZc4VpMdGJ48fOxVHi/aSFqMgZa7Ly7t97gn3PwE+IDSHNarXq9fru7m6pVIpHTTgcG25cr/Xjo7a3f7xz527pkZPZ67cJ5iRHRkzq8x+/f/9hJw+IxWKJROK6ReDKA2q1WqvV6vV6Vx6wWCw2mw0PFAF4Q6vVS6Xyj+1fn61qel5X11Rzra6qqub4saqiw+V795RuzS1cu2bHivTNS5K/Pls1PXnSxAWjRnB2B/m8uekVZy6r1SF06DtA8CE2sIbdbrdarQaDQa1Wy+Vy2kUaZ1GJDZWV1Yx8+Ldv3337XNNff44a8FPk27fvOtlJIpFIpdJvY4Bare69M2A0Gs1ms9VqtX1Fe4ECwD9MJotWq+fAs1XDh85MT8upqqrBK5IAXBAbWMyVIjQajVKplMlktGs8jmhvb6+tbQhye/PmbSD6IhaLHz9+2kmV6w6AVCp1PRSkVCp7nwvqvRVgNBpdTwe5HhDCDQEA3rJYLGq1TiyWvH3b3vz12apbNxsvXbxVUXG5rOxswf5jO3cc3pyzb03W9tSU7PhFq4SC5THRiWNHC4dGxZLnhBHDZsUvzNy29cC5c9devnyLv0UAbhAbOMVms5lMJp1Op1KpFApFV1cXHm0CBp//kclkrt/+lUqlSqVy/fav1WoNX/X+/I/qHwAonYykl0jkbW0dr16+a2p6dqf2/tWrd6qqasrKzh46eLJgf1lv25pbuCPvcHHR6aqqmrq6pubmVkmnFDsWAPqH2MB9NpvNbDabTCatVqtWqxEneK73yZ9vH/7RfNX78I/JZOp9/ge/twEAAABiA993SphMJoPB4IoTSqVSLpd3dXXRLmvBh+q/98kf12//Wq1Wp9Pp9XrTV2azGfuAAQAAgBG42wBehYru7m5XrpBKpXgzLONcT/+7/fzvygC9D/+4AgDeDQoAAABUIDaAn3p6eqxWq9lsNhqNer1eq9VqNBqVStUbMFz3LviTMXo3APS//Rc3AQAAAICNEBsgGOx2e09Pj81mcyUN1yM0rn20Op1O+5VGo3G9YdMVPBRfufbgushksq7vSb7x7zpe8mNu/07vVVwXVX7l+jC9z/33/vb/70eA8PIfAAAA4DzEBgAAAAAA8ACxAQAAAAAAPEBsAAAAAAAADxAbAAAAAADAA8QGAAAAAADwALEBAAAAAAA8QGwAAAAAAAAPEBsAAAAAAMADxAYAAAAAAPAAsQEAAAAAADxAbAAAAAAAAA8QGwAAAAAAwAPEBgAAAAAA8ACxAQAAAAAAPEBsAAAAAAAADxAbAAAAAADAA8QGAAAAAABAbAAAAAAAADK42wAAAAAAAB4gNgAAAAAAgAeIDQAAAAAA4AFiAwAAAAAAeIDYAAAAAAAAHiA2AAAAAACAB4gNAAAAAADgAWIDAAAAAAB4gNgAAAAAAAAeIDYAAAAAAIAHiA0AAAAAAOABYgMAAAAAAHiA2AAAAAAAAB4gNgAAAAAAgAeIDQAAAAAA4AFiAwAAAAAAeIDYAAAAAAAAHiA2AAAAAACAB4gNAAAAAADgAWIDAAAAAAB4gNgAAAAAAAAeIDYAAAAAAIAHiA0AAAAAAOABYgMAAAAAAHiA2AAAAAAAAB4gNgAAAAAAgAeIDQAAAAAA4AFiAwAAAAAAeIDYAAAAAAAAHiA2AAAAAACAB4gNAAAAAADgAWIDAAAAAAB4gNgAAAAAAAAeIDYAAAAAAIAHiA0AAAAAAOABYgMAAAAAAHiA2AAAAAAAAB4gNgAAAAAAgAeIDQAAAAAA4AFiAwAAAAAAeIDYAAAAAAAAHiA2AAAAAACAB4gNAAAAAADgAWIDAAAAAAB4gNgAAAAAAAAeIDYAAAAAAIAHiA0AAAAAAOABYgMAAAAAAHiA2AAAAAAAAB4gNgAAAAAAgAeIDQAAAAAA4AFiAwAAAAAAeIDYAAAAAAAAHiA2AAAAAACAB4gNAAAAAADgAWIDAAAAAAB4gNgAAAAAAAAeIDYAAAAAAIAHiA0AAAAAAOABYgMAAAAAAHiA2AAAAAAAAB4gNgAAAAAAgLN//w9u7eekUV7g4AAAAABJRU5ErkJggg==;opacity=80;" vertex="1" parent="1">
          <mxGeometry x="80" y="190" width="62" height="48.02" as="geometry" />
        </mxCell>
        <mxCell id="wFE6L6VrelONgTwsdIlD-3" value="" style="shape=image;imageAspect=0;aspect=fixed;verticalLabelPosition=bottom;verticalAlign=top;image=data:image/jpeg,/9j/4AAQSkZJRgABAQEASABIAAD/2wBDAAQDAwMDAgQDAwMEBAQFBgoGBgUFBgwICQcKDgwPDg4MDQ0PERYTDxAVEQ0NExoTFRcYGRkZDxIbHRsYHRYYGRj/2wBDAQQEBAYFBgsGBgsYEA0QGBgYGBgYGBgYGBgYGBgYGBgYGBgYGBgYGBgYGBgYGBgYGBgYGBgYGBgYGBgYGBgYGBj/wAARCACAAIADASIAAhEBAxEB/8QAHAAAAgMBAQEBAAAAAAAAAAAABQYDBAcCAAEI/8QANRAAAQMDAwIEBQMDBAMAAAAAAQIDBAAFEQYSITFBBxNRYRQicYGRMqGxFSNCCGLR4YLB8f/EABoBAAIDAQEAAAAAAAAAAAAAAAMEAQIFBgD/xAAmEQACAgEEAAcBAQEAAAAAAAABAgARAwQSITEFEyIyQVFhgbEV/9oADAMBAAIRAxEAPwDQI85tjKHMc96ikXiLHSVAgmlSW884kKSshX1qv8E+615jrhrnUwr7jBljD6L6mWsobOOaNWmQlvkg/elKxxGzcghSgB1+tNxSywfkOU+melVzEKaWERGI3Qg/dE7PkRk+uK4akIdTuWjr3qFpxiQ3tAAIojEtztwQWITCnnAMnbxtHqT0H3oPns/HzCKl2ZGGt+ABwe1edhMJCVrxxzQy9XW26feVEuF9iCS2M+RHCnVZ9CQMUHc1jCNwchOSWy60grU2lWVYACjgdzg9M56+lF/5usU7tpAMkNjPUYpjBLKVRx+1dNW1E1kodT82OhrmwXqx3kIYXc24bijgJlJLQ/KsU1ydOzLYyZram5UUdXWDlI9/ce4yKHk0erwHcy9SyupNmZ+/YW2pRSEYGa4dsrSmyjPNNTwS+veBmhz0R1DhXnipXxJrHME2EXwIMhWlqGzkcn1qy3I2JUdo6dcVXmKksnodvcV0XCmJzjJFGfUFqJMgBV4nCJiC+VLc2jPSrab3ESfJLieaSL67JjoUWyo57CloS5qH0lRVk9qaTAMgu4IuVjGkBbe8q/6rhU5GfLz+K9awl4rStXA4q4i2NIf8wnODmgNkUNRkyuw3J2l1tBHcVOxOmIWUvhWDwTRVL7LbO1AGAKCypqXZBSkDihJkbISCvE8wocGMliYEuegKkpZaJG91XRA7k1b1BrJUiCu36UdeYtKMhUltOXH8HBUB6nHX8cUkTZka3WLz5KyClRe2lWN3GAP5rB9V6+vjl1VLg3CRFUFDy0xlYBA6Z7mtTQ4/KtwPUfmMLjFAtNWf1LJsjzrcOztqKlbit9zzHV57qBHFU7VrS6v39LciyQFPAlbY8ryljg8pUR1rKGtSa0kxG35Lb0kOg4WtJ5q4zqXWkFjLrQU2kY+ZGCke4pl23G2PMYXG1cDibXc4Vyv8fzVTJceMtJKo7jIO1YHylKuvX9qIeHniHrrw/ujduuy3ZtmWUhaH0FxvB4ITjlNYUvWfifFZU5GceLQAKU7Aof8AyjWndc3+7ynF3aKpG5AStEfISojPOOx+lWTK1UeRB5MQvgET9Q3fUdkmXbzdPKd8t1AeVGW2UloHg4V0I3cfg96nRLDzKdwGay/Sk9M0sLgSjHnYXmLIVuQ6AOnXjjn7EU/PTm4zwbOMnsOmfb2rA8Q0o3bkHc8AV7PEIpbbkBQUPbNDZ1vcStJB+UGr8WTHdAVuAJ689KKlEWRH2gg8Vl7irUZZsO8RJuEFpzaFJBoNNtUVspWEgqFNlybDLiiEkpHpS85IjuKOSNw9a1dO5AsRJ1rgyQafagQy4pWVHPOaGPuuNo65AqS46ibU1scWMDtmhgu0Z87d6TRFwu3LQLZgOBI3rgpCSM4oWt99bgLQ6nr2q89HakOFRUAPaq7yY7Cm0k8bx0+tN48QWU8zdxM78T9RyXJCrXACiprCFunok+gHrV3w/wDDdl2Am6Xtv4iQ8NyQ5zgUo6hmCdfYyQRmTLUooT1ICtozX6Ms0ZLdqZZCQnagDHpxXsrlVCidRosCsSx+IOFggtxm20st7UdEpA/aqcywQ3GFAsowpJByBTYtlIVwcH8ZqB1CQgg4I9xUhRNIKOoCTY4ghbUIRgJwOKzbVcR2wPOTYzA8rad4Snoa2ZsNEEDHvkdqo3O0Qp8B1lxlK0qBByKIorqKZ0UijMR03qaG7KavMFaY8yKsKWyo7d3PY/v9q2O8asck26NLabSo7Q4VDuknB+4P8ivzPqaxStGeIfwzqdsOQVeWcZCk9cfkVqOhrk1c9OSiXHCiPlBbwTtS4EkEfRSFfmr5UujMVj6WUx/t+pw6sAukHuKZYupjHSfmKsDjFZEiHLYfVIQSEZ4NEYd4WlZZWOvfNJZdIjG4iuUgzWmr+i4tlOzBIoIqJtmreWMpJyMUtRrwIgGVkE1eRfXHykKGEnvQ1xeX7Zd8m73RHelSH15yT2r4hchKwQSBXxqU0lkHjOK89LBQMcVqAfEz+5eVcXUbUeYal89Tq2tx3fMPlz15oS3/AHFDOau22A9N1JDYClBCnkZx6Zyf2zXqAl0XcwCxIs9qE/xug2ry/wCzGWtwnHCtpKv5rZrxe7vb9zNvixWWW+FSpjm1GfYDk0LiaaEHxXtd4Q2hDEpp0jb2VgnBH0NNt109Buj7bj7DckoJUlDnKQfXFIO+5gana4tO2INjPdzMmtdaievKI7t0sshJVgiPvBPsCeK0MsSndOmSXcOFJVycj6VUb0hDZk/ELixkbTlKW2gkZ7UyNx0f0ZUcAdDgetFFl+YZQyp3zMNmTtUKuikTLxcg0nJ2QGQnAz6nJNGdPSZbs1JjXC/tuHlKbgghDnqORWhC0w3V7lEhXbCtpFFYNpabTuSsrX1/uHdRPUIo2In1GZx4raVRqDw7cnIQn4uHh9tQHI7KH4pd8ILU98G+/MS80zKbEYKR+ncropWewIH5Narqd9CdNz2FgAqYUnH1GKE6aYch25yw+QylCW0LjuNg5UnAI3Huc5qWc7KgsekXLltuq5/yCn3kojrjLTtWklCkkdxxS6tK2pZUpJAHtxUl6vjadVzHkEFoyFn689amFwYuLW1pOcDtU7Svc5tiLr6k79whvxwnOFgY9MV03N3tBCDgetBTBBUtTiyPYcZqGI/5MlTalnaDxmvFARxKEnuQySWn9oPHrXt6Vs5zgjvQt6atb2FevWvPS0pb2pOCab2mLhSYWZnBsgZzij9uu6Ik+PKTyW1pX9R3/akZp8BWSfrRaM6n4feD0oeRB8y6kobE1+8R3PiYN1iqR8LEKF7887SQPxtNHXZaI7GUgepx3rLbJrRLFjkWi4JK2VtKQy5jJbJ6D3H8U3wpS7haWypQC/LAz6Ejis3Ihxm522m1yaqmHdczyr+XZD6sAttHoeAo+lCZHiC5GjlpcVtcnJwlnKkj06jNUGYV7g3OIw7FaXDkuKEics5+G7geX3z602s6VtCmUKk6jUCSCryW0o4x249aulk3GHaxzx/IoN325XKMJshPkvNAgFDZQlQznnPf3o9ZtTPzIu5BwpHBHcGq9707HkW1cGxXi4IkKwDIWoFKfX5T1HeobfaY9nYfcacU4ogJKl/5bR1+5NEyWCCIAOQCpkurLkpyzqaBHmLwVZ6dRRmfNi2fSQuiQ0pSWsNFPVRI4GfQHnFJTYGptTtWTeAZbgSQOqE45P8AFWvFW4R4lqtdhgkeWw2E8HqAAOam/WqD5mVn1LYlYr2Zlc6Stx488k9auWe5OQQpO0nd3qBqIl5z3IqcRFsgjZn3p9qIqc/ZHUIO3BTwKtxHfFQx3wuSM4xnmqbW8A+YCBXQQpJC2+ntQ9okiVXnRkJKSCO9VVZWvIPfpmiTEJy4/I0g7s9T2q61ppbeA67z3xRmyKvcgiL4WpCwDVtqUtCylIP0pnjabiF1LrqyojnFW5Ma3xjhLIKiMA45oLZweAJ6ri4Gn3Gw4lpRHsOlaTpia63Fbak78DhB9eOn/FKcBx5L/lmN8hPFadpu1pdtb8h5LQacAQlsn5lkHkgeg9fU0pqGLCiI74bkdNQoHzK8K+NzJDrDqAgbto3c/mhV5mXNmUERo5UgnkhzCU5NDb9p28WuU5Ks6zJaKt/kqOFJPsehpF1Jd9XSghkWichW4ZUlPBx9KFiX6M6R9SyA/c1ZqUqHBJcCEvKHCAc5P1oKvUjCG3GpA24ISQTk80hRXtZTXmvMiFjZ3dXg0zWDSbof+IuUoyVlQVtI4zRiABzFDlZ2sRk8N7SoX5d+kIwtxRSykjBCM8H70r6otDsryNQplqmWyWVCNJA2gFJwptQ7KSevr1rV7O2mIhCwAEpwSaHeEEE6h8IdU6auLAegxr1NLJxlTJDhWlSe/AWfsaLgG5v2I+IY6QTI41olqCXmmjgdwOtGP6bJSwCtkj7UxqMiz3JdrnQltKazhakEBYHRSc9QfWuTf4S1+S6gJxxkiqPkybqqZBoRBnthpRTtrhljbG9N3NFr4hEmckxGysnskZqolC0ANqbKSnqFUyvI5kSla7h8GSAkZ61ejTJb8lS1hZT1GKhmW9tiKh1sJB4otYZbCh5DgG4D0qcqjsCeqfYr77b391CsZFHHYyVwBKW2kDrg+lR2623G5zXxHguKjtEb3lDCEfVX/rrR27NT7XoqRMDURmCwyXFzJxwk+gQ3ySc4wVfihY9K+VuB/ZKj7ge12G53Nz4qJHUYaFJDj3RKcnA69T7CmNN4aZ8YIWmmeG2ra8vbnoAUgfc8mvng5a5+o3DfdRTXEMhneyyV7UpSeEkDoOpP4oGzaxI/1RXG42t1TsWJBUjnkqCilPB9Mgmj59MMeNwvJjmjcLmS4/SY6VKIxwetBZdpbcyoJpkJChhQ+9QONYB7isNbBnTtRiqizNIXu2gnNEY0BCDuI96I+TleAKkUjYjFH3QQQXB81/4e3OEHACaW/Au6TUr1KI8pxptd0W4kJ/ScgIJx3/TTBeoMt2ySHkgNtIbUouOcJAAyaVfA266Lj2u12OXqaFAv89hUpyI/8m9TjqnEDccAqKSOM56Vo6BaO5upk+KZB6VTnnmPdu1vb3UT7ZqWzLu6rc15ymUtbiEhSmyW/wDIYKcnHTIpIkz9Caynra088qDKVnyo0xYSpfsFdCfY0wv21/T3jq62+Ult5DzSSOMhS0Lxj2JNLS9HaduuryJcJIK5UkLWyotq4xjp6E1tPpcWSyR/RMF8uzapHc9Z9KzYFxe+NbXkII2LGFV8dsDcm6uFxRSBgAYximmHqy0aQ1expbVUqdcrY7GS6y6tAW4zyRgkDJHA5HPsabXtM6N1bbXJehNTLXMIOyLKAIXjryMKT9SMVk6jR515XkfcOWULRmNI0jdL2GIVvb3uLI5UoJCR3KlHgD3NPelfCm0RL42iROVfpSWy44iFlEdrHq4eXOeOMD3qZ25w7fb/AIS3xvP2JytW3O4+pHf2Bo74eTrrJtk6e4HAXHENjEfGEgZI6/SmRpyibsncoMi3UuXS33ORJTbWIrUOK38gYaIQlKQMqIA7kYGfc1kPigLtf75a9LriSGYa3fPeQlBx5SOnPTk579hWwJlzntSSXHVqQwgbFKWjKFAcqIxyP+qxrWviNJVenpMcMsJwSFkk7G08J4IwKcwqxahVCCxZFNk9n/Jqehob0XT13lycRWWWENtgADbwcAdcdqr6ctcRjU0h9LO2QlBZLw6rCXFY/k1j8rxhccs8DTmmob9zdwmTNmSCUNKIwV4HVWOmeBx3rZNJ3D+qhczaE7ufryTn9xS+Qggj9h0SsgP5GWTa2HslTPzHo40cH7iqirOlXCX1Af7kUZAOBtJH0rvKiQk8/Wkm06NzU0U1ORBQMBJsaErBU8Sn2TVxu2Rm/mS1yP8AJYyaJho8kq5r4tJOMDNQunRTwJLajI/BaZp4zXNux+CuoJas+a5GMVs56F0hH8KNfka+2c3HS1s1EmO6qQYzTbziASApACACO3yBBBHqfSv0R/qclPvaTsWmIhJeulySNo7hA/5WPxUdi0Fb2vC5/ZIWpmQhb7SgsLSlKUJSlQzxyBn700tCg3UUyswFqIA8Cdb3S4XVNrv78i4OwmvMivSBvcSgFKSgqPJGNuCemK3YR7NB1imaxDTvdkOnG3P6kJV9BWE+E8LTVs108l55DanGHCht0kqwNpI44ODW2G92CbfgkrKPh3WicpKUnKCBx36UzjHY/JnarfakfcDeI12iM62ZcRDQlQjJUV7UnABOf05JoHC1SUSQpUVnag7kONpWhSc/+PFDvGPxAtVn1fGRGgOu+bEQVqSAjCSo/npSRH8Xo620NqtD5CRtCg8kZx68Uxj9o9MMUcm90//Z;" vertex="1" parent="1">
          <mxGeometry x="10" y="10" width="150" height="150" as="geometry" />
        </mxCell>
        <mxCell id="wFE6L6VrelONgTwsdIlD-5" value="&lt;font style=&quot;font-size: 14px;&quot; face=&quot;roboto&quot; data-font-src=&quot;https://fonts.googleapis.com/css?family=roboto&quot;&gt;&lt;b&gt;Lucas&lt;/b&gt;&lt;/font&gt;" style="text;html=1;strokeColor=none;fillColor=#3396ff;align=center;verticalAlign=middle;whiteSpace=wrap;rounded=0;gradientColor=none;" vertex="1" parent="1">
          <mxGeometry x="10" y="160" width="150" height="30" as="geometry" />
        </mxCell>
        <mxCell id="wFE6L6VrelONgTwsdIlD-7" value="&lt;font style=&quot;font-size: 36px;&quot; data-font-src=&quot;https://fonts.googleapis.com/css?family=roboto&quot; face=&quot;roboto&quot;&gt;Lucas Owen&lt;/font&gt;&lt;br&gt;&lt;font style=&quot;font-size: 14px;&quot; data-font-src=&quot;https://fonts.googleapis.com/css?family=roboto&quot; face=&quot;roboto&quot;&gt;DiseÃ±ador web / Phyton expert / Ingeniero en electrÃ³nica&lt;/font&gt;" style="text;html=1;strokeColor=none;fillColor=none;align=center;verticalAlign=middle;whiteSpace=wrap;rounded=0;" vertex="1" parent="1">
          <mxGeometry x="340" y="40" width="330" height="70" as="geometry" />
        </mxCell>
        <mxCell id="wFE6L6VrelONgTwsdIlD-8" value="&lt;font style=&quot;font-size: 18px;&quot;&gt;Lo que tienes que saber sobre mi&lt;/font&gt;" style="text;html=1;strokeColor=none;fillColor=none;align=center;verticalAlign=middle;whiteSpace=wrap;rounded=0;fontSize=14;fontFamily=roboto;fillStyle=solid;" vertex="1" parent="1">
          <mxGeometry x="367.5" y="160" width="245" height="30" as="geometry" />
        </mxCell>
        <mxCell id="wFE6L6VrelONgTwsdIlD-9" value="" style="endArrow=none;html=1;rounded=0;fontFamily=roboto;fontSource=https%3A%2F%2Ffonts.googleapis.com%2Fcss%3Ffamily%3Droboto;fontSize=18;exitX=0;exitY=0;exitDx=0;exitDy=0;entryX=1;entryY=0;entryDx=0;entryDy=0;strokeWidth=5;strokeColor=#3399FF;" edge="1" parent="1" source="wFE6L6VrelONgTwsdIlD-8" target="wFE6L6VrelONgTwsdIlD-8">
          <mxGeometry width="50" height="50" relative="1" as="geometry">
            <mxPoint x="440" y="170" as="sourcePoint" />
            <mxPoint x="490" y="120" as="targetPoint" />
          </mxGeometry>
        </mxCell>
        <mxCell id="wFE6L6VrelONgTwsdIlD-10" value="&lt;font style=&quot;font-size: 14px;&quot;&gt;Soy Ingeniero ElectrÃ³nico, tengo una amplia carrera en las comunicaciones&amp;nbsp;is simply dummy text of the printing and typesetting industry. Lorem Ipsum has been the industry&#39;s standard dummy text ever since the 1500s, when an unknown printer took a galley of type and scrambled it to make a type specimen book. It has survived not only five centuries, but also the leap into electronic typesetting, remaining essentially unchanged. It was popularised in the 1960s with the release of Letraset sheets containing Lorem Ipsum passages, and more recently with desktop publishing software like Aldus PageMaker including versions of Lorem Ipsum.&lt;br&gt;is simply dummy text of the printing and typesetting industry. Lorem Ipsum has been the industry&#39;s standard dummy text ever since the 1500s, when an unknown printer took a galley of type and scrambled it to make a type specimen book. It has survived not only five centuries, but also the leap into electronic typesetting, remaining essentially unchanged. It was popularised in the 1960s with the release of Letraset sheets containing Lorem Ipsum passages, and more recently with desktop publishing software like Aldus PageMaker including versions of Lorem Ipsum.&lt;br&gt;&lt;/font&gt;" style="text;html=1;strokeColor=none;fillColor=none;align=center;verticalAlign=middle;whiteSpace=wrap;rounded=0;fontSize=18;fontFamily=roboto;" vertex="1" parent="1">
          <mxGeometry x="170" y="190" width="630" height="250" as="geometry" />
        </mxCell>
        <mxCell id="wFE6L6VrelONgTwsdIlD-11" value="" style="endArrow=none;html=1;rounded=0;fontFamily=roboto;fontSource=https%3A%2F%2Ffonts.googleapis.com%2Fcss%3Ffamily%3Droboto;fontSize=18;exitX=0;exitY=0;exitDx=0;exitDy=0;entryX=1;entryY=0;entryDx=0;entryDy=0;strokeWidth=5;strokeColor=#3399FF;" edge="1" parent="1" target="wFE6L6VrelONgTwsdIlD-17">
          <mxGeometry width="50" height="50" relative="1" as="geometry">
            <mxPoint x="362.5000000000002" y="450" as="sourcePoint" />
            <mxPoint x="607.5" y="450" as="targetPoint" />
          </mxGeometry>
        </mxCell>
        <mxCell id="wFE6L6VrelONgTwsdIlD-17" value="Datos Personales" style="shape=table;startSize=30;container=1;collapsible=0;childLayout=tableLayout;strokeColor=default;fontSize=16;fillStyle=solid;fontFamily=roboto;fontSource=https%3A%2F%2Ffonts.googleapis.com%2Fcss%3Ffamily%3Droboto;fillColor=none;gradientColor=none;swimlaneLine=0;rowLines=0;columnLines=1;swimlaneHead=0;swimlaneBody=0;horizontal=1;top=0;bottom=0;left=0;right=0;separatorColor=#3399FF;strokeWidth=2;connectable=1;allowArrows=1;dropTarget=1;" vertex="1" parent="1">
          <mxGeometry x="360" y="450" width="231" height="110" as="geometry" />
        </mxCell>
        <mxCell id="wFE6L6VrelONgTwsdIlD-18" value="" style="shape=tableRow;horizontal=0;startSize=0;swimlaneHead=0;swimlaneBody=0;strokeColor=inherit;top=0;left=0;bottom=0;right=0;collapsible=0;dropTarget=0;fillColor=none;points=[[0,0.5],[1,0.5]];portConstraint=eastwest;fontSize=16;fillStyle=solid;fontFamily=roboto;fontSource=https%3A%2F%2Ffonts.googleapis.com%2Fcss%3Ffamily%3Droboto;" vertex="1" parent="wFE6L6VrelONgTwsdIlD-17">
          <mxGeometry y="30" width="231" height="20" as="geometry" />
        </mxCell>
        <mxCell id="wFE6L6VrelONgTwsdIlD-19" value="&lt;font style=&quot;font-size: 12px;&quot;&gt;Fecha nacimiento&lt;/font&gt;" style="shape=partialRectangle;html=1;whiteSpace=wrap;connectable=0;strokeColor=inherit;overflow=hidden;fillColor=none;top=0;left=0;bottom=0;right=0;pointerEvents=1;fontSize=16;fillStyle=solid;fontFamily=roboto;fontSource=https%3A%2F%2Ffonts.googleapis.com%2Fcss%3Ffamily%3Droboto;" vertex="1" parent="wFE6L6VrelONgTwsdIlD-18">
          <mxGeometry width="115" height="20" as="geometry">
            <mxRectangle width="115" height="20" as="alternateBounds" />
          </mxGeometry>
        </mxCell>
        <mxCell id="wFE6L6VrelONgTwsdIlD-20" value="&lt;font style=&quot;font-size: 14px;&quot;&gt;30 / 04 /72&lt;/font&gt;" style="shape=partialRectangle;html=1;whiteSpace=wrap;connectable=0;strokeColor=inherit;overflow=hidden;fillColor=none;top=0;left=0;bottom=0;right=0;pointerEvents=1;fontSize=16;fillStyle=solid;fontFamily=roboto;fontSource=https%3A%2F%2Ffonts.googleapis.com%2Fcss%3Ffamily%3Droboto;" vertex="1" parent="wFE6L6VrelONgTwsdIlD-18">
          <mxGeometry x="115" width="116" height="20" as="geometry">
            <mxRectangle width="116" height="20" as="alternateBounds" />
          </mxGeometry>
        </mxCell>
        <mxCell id="wFE6L6VrelONgTwsdIlD-22" value="" style="shape=tableRow;horizontal=0;startSize=0;swimlaneHead=0;swimlaneBody=0;strokeColor=inherit;top=0;left=0;bottom=0;right=0;collapsible=0;dropTarget=0;fillColor=none;points=[[0,0.5],[1,0.5]];portConstraint=eastwest;fontSize=16;fillStyle=solid;fontFamily=roboto;fontSource=https%3A%2F%2Ffonts.googleapis.com%2Fcss%3Ffamily%3Droboto;" vertex="1" parent="wFE6L6VrelONgTwsdIlD-17">
          <mxGeometry y="50" width="231" height="20" as="geometry" />
        </mxCell>
        <mxCell id="wFE6L6VrelONgTwsdIlD-23" value="&lt;font style=&quot;font-size: 12px;&quot;&gt;Lugar de nacimiento&lt;/font&gt;" style="shape=partialRectangle;html=1;whiteSpace=wrap;connectable=0;strokeColor=inherit;overflow=hidden;fillColor=none;top=0;left=0;bottom=0;right=0;pointerEvents=1;fontSize=16;fillStyle=solid;fontFamily=roboto;fontSource=https%3A%2F%2Ffonts.googleapis.com%2Fcss%3Ffamily%3Droboto;" vertex="1" parent="wFE6L6VrelONgTwsdIlD-22">
          <mxGeometry width="115" height="20" as="geometry">
            <mxRectangle width="115" height="20" as="alternateBounds" />
          </mxGeometry>
        </mxCell>
        <mxCell id="wFE6L6VrelONgTwsdIlD-24" value="&lt;font style=&quot;font-size: 14px;&quot;&gt;Villa Elisa, ER&lt;/font&gt;" style="shape=partialRectangle;html=1;whiteSpace=wrap;connectable=0;strokeColor=inherit;overflow=hidden;fillColor=none;top=0;left=0;bottom=0;right=0;pointerEvents=1;fontSize=16;fillStyle=solid;fontFamily=roboto;fontSource=https%3A%2F%2Ffonts.googleapis.com%2Fcss%3Ffamily%3Droboto;" vertex="1" parent="wFE6L6VrelONgTwsdIlD-22">
          <mxGeometry x="115" width="116" height="20" as="geometry">
            <mxRectangle width="116" height="20" as="alternateBounds" />
          </mxGeometry>
        </mxCell>
        <mxCell id="wFE6L6VrelONgTwsdIlD-26" value="" style="shape=tableRow;horizontal=0;startSize=0;swimlaneHead=0;swimlaneBody=0;strokeColor=inherit;top=0;left=0;bottom=0;right=0;collapsible=0;dropTarget=0;fillColor=none;points=[[0,0.5],[1,0.5]];portConstraint=eastwest;fontSize=16;fillStyle=solid;fontFamily=roboto;fontSource=https%3A%2F%2Ffonts.googleapis.com%2Fcss%3Ffamily%3Droboto;" vertex="1" parent="wFE6L6VrelONgTwsdIlD-17">
          <mxGeometry y="70" width="231" height="20" as="geometry" />
        </mxCell>
        <mxCell id="wFE6L6VrelONgTwsdIlD-27" value="&lt;font style=&quot;font-size: 12px;&quot;&gt;Lugar de residencia&lt;/font&gt;" style="shape=partialRectangle;html=1;whiteSpace=wrap;connectable=0;strokeColor=inherit;overflow=hidden;fillColor=none;top=0;left=0;bottom=0;right=0;pointerEvents=1;fontSize=16;fillStyle=solid;fontFamily=roboto;fontSource=https%3A%2F%2Ffonts.googleapis.com%2Fcss%3Ffamily%3Droboto;" vertex="1" parent="wFE6L6VrelONgTwsdIlD-26">
          <mxGeometry width="115" height="20" as="geometry">
            <mxRectangle width="115" height="20" as="alternateBounds" />
          </mxGeometry>
        </mxCell>
        <mxCell id="wFE6L6VrelONgTwsdIlD-28" value="&lt;font style=&quot;font-size: 14px;&quot;&gt;Santa Fe, SF&lt;/font&gt;" style="shape=partialRectangle;html=1;whiteSpace=wrap;connectable=0;strokeColor=inherit;overflow=hidden;fillColor=none;top=0;left=0;bottom=0;right=0;pointerEvents=1;fontSize=16;fillStyle=solid;fontFamily=roboto;fontSource=https%3A%2F%2Ffonts.googleapis.com%2Fcss%3Ffamily%3Droboto;" vertex="1" parent="wFE6L6VrelONgTwsdIlD-26">
          <mxGeometry x="115" width="116" height="20" as="geometry">
            <mxRectangle width="116" height="20" as="alternateBounds" />
          </mxGeometry>
        </mxCell>
        <mxCell id="wFE6L6VrelONgTwsdIlD-30" style="shape=tableRow;horizontal=0;startSize=0;swimlaneHead=0;swimlaneBody=0;strokeColor=inherit;top=0;left=0;bottom=0;right=0;collapsible=0;dropTarget=0;fillColor=none;points=[[0,0.5],[1,0.5]];portConstraint=eastwest;fontSize=16;fillStyle=solid;fontFamily=roboto;fontSource=https%3A%2F%2Ffonts.googleapis.com%2Fcss%3Ffamily%3Droboto;" vertex="1" parent="wFE6L6VrelONgTwsdIlD-17">
          <mxGeometry y="90" width="231" height="20" as="geometry" />
        </mxCell>
        <mxCell id="wFE6L6VrelONgTwsdIlD-31" value="&lt;font style=&quot;font-size: 12px;&quot;&gt;Nacionalidad&lt;/font&gt;" style="shape=partialRectangle;html=1;whiteSpace=wrap;connectable=0;strokeColor=inherit;overflow=hidden;fillColor=none;top=0;left=0;bottom=0;right=0;pointerEvents=1;fontSize=16;fillStyle=solid;fontFamily=roboto;fontSource=https%3A%2F%2Ffonts.googleapis.com%2Fcss%3Ffamily%3Droboto;" vertex="1" parent="wFE6L6VrelONgTwsdIlD-30">
          <mxGeometry width="115" height="20" as="geometry">
            <mxRectangle width="115" height="20" as="alternateBounds" />
          </mxGeometry>
        </mxCell>
        <mxCell id="wFE6L6VrelONgTwsdIlD-32" value="&lt;font style=&quot;font-size: 14px;&quot;&gt;Argentina&lt;/font&gt;" style="shape=partialRectangle;html=1;whiteSpace=wrap;connectable=0;strokeColor=inherit;overflow=hidden;fillColor=none;top=0;left=0;bottom=0;right=0;pointerEvents=1;fontSize=16;fillStyle=solid;fontFamily=roboto;fontSource=https%3A%2F%2Ffonts.googleapis.com%2Fcss%3Ffamily%3Droboto;" vertex="1" parent="wFE6L6VrelONgTwsdIlD-30">
          <mxGeometry x="115" width="116" height="20" as="geometry">
            <mxRectangle width="116" height="20" as="alternateBounds" />
          </mxGeometry>
        </mxCell>
        <mxCell id="wFE6L6VrelONgTwsdIlD-53" value="" style="shape=image;verticalLabelPosition=bottom;labelBackgroundColor=default;verticalAlign=top;aspect=fixed;imageAspect=0;image=data:image/png,iVBORw0KGgoAAAANSUhEUgAAAvsAAAKoCAIAAABm+adAAAAACXBIWXMAAAsTAAALEwEAmpwYAAAgAElEQVR4nO3dZ3sTV96A8eeLZZNdwOn0lmA6hE6AEMgmlFSySSgJSTZNYHq3wRSBMZjeMcZggytgY8uy5CZbbrKkeS6hrOOAy1jS/Gfm6P5d58UuiUE+TGZuz5nyfxoAAIDq/s/sDwAAAGA4igcAAKiP4gEAAOqjeAAAgPooHgAAoD6KBwAAqI/iAQAA6qN4AACA+igeAACgPooHAACoj+IBAADqo3gAAID6KB4AAKA+igcAAKiP4gEAAOqjeAAAgPooHgAAoD6KBwAAqI/iAQAA6qN4AACA+igeAACgPooHAACoj+IBAADqo3gAAID6KB4AAKA+igcAAKiP4gEAAOqjeAAAgPooHgAAoD6KBwAAqI/iAQAA6qN4AACA+igeAACgPooHAACoj+IBAADqo3gAAID6KB4AAKA+igcAAKiP4gEAAOqjeAAAgPooHgAAoD6KBwAAqI/iAQAA6qN4AACA+igeAACgPooHAACoj+IBAADqo3gAAID6KB4AAKA+igcAAKiP4gEAAOqjeAAAgPooHgAAoD6KBwAAqI/iAQAA6qN4AACA+igeAACgPooHAACoj+IBAADqo3gAAID6KB4AAKA+igcAAKiP4gEAAOqjeAAAgPooHgAAoD6KBwAAqI/iAQAA6qN4AACA+igeAACgPooHAACoj+IBAADqo3gAAID6KB4AAKA+igcAAKiP4gEAAOqjeAAAgPooHgAAoD6KBwAAqI/iAQAA6qN47KGpyXfh/I0/ft+7etWG6VM/GD1qzhuvTXv5pfEMZoAZsOkMDP3Xu2+9MeOdCYuWLP5sw/o/0g+dLC19Eg6Hzd7ZAMqieCytpsa7fVv6zOkfvvIP83fQDGaAGTB6Boa/NfOLzzffuJ4XCoXM3v0AqqF4LOr27fvLlnxB6HCIZQaScwZGj3xvx/Z0v7/V7F0RoA6Kx3Ly7z6cO+dj03e4DGaAGTB9Bt54bVra1oPt7Z1m75YAFVA8FtLQ4Fv31c+m72QZzAAzYKkZmDhh4bWrd8zePwG2R/FYRd6dwtEj3zN938pgBpgBa87Al1/8yMkeIB4UjyXs3JHxyj8mmL5LZVhhBlInLTmckZV55PTUyctM/zAMS83ArBkr3G6v2bsrwK4oHpOFw+EfN28zfU/KsMgMjBw+2+driW4bfn/rmFFzTP9IDEvNwKgR75WWPjF7vwXYEsVjplAo9MVnP5i+D2VYZwY+/+yHnlvIf77+r+kfiWG1GXjrjemlJY/N228BdkXxmGnzD2mm7z0ZlpqBhQvW9NxCli753PSPxLDgDIx4e1ZlZbV5uy7Alige0+zZnWn6fpNhwRnYv+9Y+JmM9JOmfxiGZWdg0juLeVoPMCgUjzkK7hf/65WJpu80GdacgTdfn/7WG9NN/xgMi8/A6lUbTNqBAbZE8Zigudk/ZtRc03eXDGaAGbD7DBw5nGXGPgywJYrHBBvW/2H6jpLBDDADCszA669O8XjqzdiNAfZD8Uh78KCUt2WZfpxgMAPKzMBnn34vvhsDbInikbbk/c9M30UymAFmQKUZKC4qF9+TAfZD8YgqLCw1fefIYAaYAcVmgEuYAT0oHlGrPllv+s6RwQwwA4rNwCv/GM/jeYABUTxympp8Q/75bpy7trffnPH1Vz+fPHk+9/b94qJyBjPADNh0BgoKii9furV926HZsz6KP3ocf+wT3JkBtkTxyDl00BnPHm3IP9/Z4tjf2tom+JEBSMi9fX/alA/i2T+MGzs/HA7ztwX0g+KRs2Rx7Ncsv/n69Dt3CgQ/LABRbW3tH//723iip4jrl4F+UTxCOjo6hw2ZFNuO7F+vvJN7+77UJwVgjq6u4OJFn8ZcPHv3ZPI3B/SD4hGSm3s/5h3Zr7/skvqYAMzkdntj/tFoxfJ1/OUB/aB4hOzfdyy2vdhrKVOam/1SHxOAyX7cvC22fcXoUXPM/uyApVE8QtZ/+1tse7G1azZKfUYA5nvwIPandvE2daAfFI/VL1vOSD8p9RkBmC8cDr86bHJsu4vi4kdmf3zAuigeITOmfxjbLuzSxZtSnxGAJbw7cXFsu4vbt+6Z/dkB66J4hEycsDC2XditW/lSnxGAJcyeuTK23cWF8zfM/uyAdVE8QkaNeI/iAWBo8Zx0nmeGgb5QPEJGvD2L4gFgaPE4T5xjhoG+UDxCKB4AOlE8gBEoHiEUDwCdKB7ACBSPEIoHgE4UD2AEikcIxQNAJ4oHMALFI4TiAaATxQMYgeIRQvEA0IniAYxA8QiheADoRPEARqB4hFA8AHSieAAjUDxCKB4AOlE8gBEoHiEUDwCdKB7ACBSPEIoHgE4UD2AEikcIxQNAJ4oHMALFI4TiAaATxQMYgeIRQvEA0IniAYxA8QiheADoRPEARqB4hFA8AHSieAAjUDxCKB4AOlE8gBEoHiEUDwCdKB7ACBSPEIoHgE4UD2AEikcIxQNAJ4oHMALFI4TiAaATxQMYgeIRQvEA0IniAYxA8QiheADoRPEARqB4hFA8AHSieAAjUDxCKB4AOlE8gBEoHiEUDwCdKB7ACBSPEIoHgE4UD2AEikcIxQNAJ4oHMALFI4TiAaATxQMYgeIRQvEA0IniAYxA8QiheADoRPEARqB4hFA8AHSieAAjUDxCKB4AOlE8gBEoHiEUDwCdKB7ACBSPEIoHgE4UD2AEikcIxQNAJ4oHMALFI4TiAaATxQMYgeIRQvEA0IniAYxA8QiheADoRPEARqB4hFA8AHSieAAjUDxCKB4AOlE8gBEoHiEUDwCdKB7ACBSPEIoHgE4UD2AEikcIxQNAJ4oHMALFI4TiAaATxQMYgeIRQvEA0IniAYxA8QiheADoRPEARqB4hFA8AHSieAAjUDxCKB4AOlE8gBEoHiEUDwCdKB7ACBSPEIoHgE4UD2AEikcIxQNAJ4oHMALFI4TiAaATxQMYgeIRQvEA0IniAYxA8QiheADoRPEARqB4hFA8AHSieAAjUDxCKB4AOlE8gBEoHiEUDwCdKB7ACBSPEIoHgE4UD2AEikcIxQNAJ4oHMALFI4TiAaATxQMYgeIRQvEA0IniAYxA8QiheADoRPEARqB4hFA8AHSieAAjUDxCKB4AOlE8gBEoHiEUDwCdKB7ACBSPEIoHgE4UD2AEikcIxQNAJ4oHMALFI4TiAaATxQMYgeIRQvEA0IniAYxA8QiheADoRPEARqB4hFA8AHSieAAjUDxCKB4AOlE8gBEoHiEUDwCdKB7ACBSPEIoHgE4UD2AEikcIxQNAJ4oHMALFI4TiAaATxQMYgeIRQvEA0IniAYxA8QiheADoRPEARqB4hFA8AHSieAAjUDxCKB4AOlE8gBEoHiEUDwCdKB7ACBSPEIoHgE4UD2AEikcIxQNAJ4oHMALFI4TiAaATxQMYgeIRQvEA0IniAYxA8QiheADoRPEARqB4hFA8AHSieAAjUDxCKB4AOlE8gBEoHiEUD4C/dHVpbW2az6fV1WnB4HMzQ/EARqB4hFA8gOKCQa2jQ2tp0RoatNparapKe/JEKy3VHjzQ8vO127e169e1S5e0nBwtK0s7efKvcfWqFgj0/J0oHsAIFI8QigewfcfU1OiNmMGOK1e0zs7uP5PiAYxA8QiheAD7nYyJJ2IGOy5e1Nrbox+Q4gGMQPEIoXgAS0TMqVOiHTOocf681tpK8QAGoXiEUDxAMkbMYMe5c1prK+d4ACNQPEIoHkCXykrt7FmlImawIydn7dLPX35pfAzDeeIcmxnQF4pHCMUDDKyyMqlb53+j9eixuRMWUDxAYlE8QigeYAAVFaanhnWG/0jmgncWco4HSCCKRwjFA/Tn0SPTI8Nqo/3osQ+mLGVVC0gUikcIxQP0qbzc9Lyw5ggcP/7JzOVcxwMkBMUjhOIBekfuDBA9J9bMXsGVy0D8KB4hFA/Qi5IS08+jWH+EnM7/LPyEe7WAOFE8Qige4HkPH5oeE3YZYadz87JPuTsdiAfFI4TiAf7mwQPTM8JeI+x0/nf5AM/p4Xk8QD8oHiEUD/CXwkLTA8KmY/eabykeIDYUjxCKB4gIh7X7903vBluPvWu/feUfEzjHAwwWxSOE4gEiuXPvnunFoMDIXPf9P//BqhYwOBSPEIoHyS4cjrwB1OxWUGZkr//pXy9P5DoeQD+KRwjFg6QWDmt37pheCYqNnI3/HfLK36KHK5eBflA8QigeJK9QiNwxKHqu/fRHyj/foXgAPSgeIRQPklQopOXmmn46ROFx97e014dM4hwPMCCKRwjFg2QUDGq3bpneBMqPh1t3vp0ymVUtoH8UjxCKB0knGNRu3jS9BpJkFKftGp4ymet4gH5QPEIoHiQXckc8ep7s2pfjzDH7Lx6wLopHCMWDJNLVpV27ZvppjyQcrc6TWmur2X/9gEVRPEIoHiSLQIDcMbN7cnI0v9/sjQCwIopHCMWDpBAIaFevmn6qI9nH2bOaz2f2pgBYDsUjhOKB+jo7tcuXzT/eM06e1LKztcZGszcIwFooHiEUDxRH7littLKztYYGszcLwEIoHiEUD1TW2aldumT+MZ7x3AxkZWler9kbB2AVFI8QigfKam/XLlygNiw6A6dOaW632ZsIYAkUjxCKB2oid2wRPS6X2RsKYD6KRwjFAwW1tXF2xzbj6VOzNxfAZBSPEIoHqmlt1c6dM/9AztA5A06n9vix2RsNYCaKRwjFg0HJz3+YdepCWekTi86b30/u2C+2nE7t0SOzNx3ANBSPEIoHOj196lowf/X8uas2bnBMSV26ZvXGpqZma82e3x95sK/px29GbDNQVGT2BgSYg+IRQvFAj1MnL4wZNedoZnb0/4ZCod27jowdPe/qlVyrTGBzc+SRvtSGrWfg4UOzNyPABBSPEIoH/WtoaPr4o2/nz11VXfX8vcRFD8snT1q6/rvf29s7TJ5Gn4/cUWTcv6+FQiZvToAsikcIxYN+XL+WN27MvLStB0L/OwiFw+FAIND9L3R0dG7+IW1K6tLionLTZtLn086cMf9QzUjUDNy9S/QgqVA8Qige9Kq1tW39d79PnbKspOSv+2iCwWBdXZ3L5fL9/X2QN2/mjx87v2cYyWlsjLy1wJTauHZNu3lTu3IlMi5ditwPf/58pL3OnIk8U3jwv2HX8eNk058zkJenhcPS2xJgEopHCMWDFxUWlKS++/5zy1WdnZ1ut9v1P16vNxgMdv/TxkbfJx9/N2/uJ1VVNXJTWl9vWu7cuaPrEwYCkdHREblnvrU1cjrK54u8VaquLvKahby8yFP4nv2GjYcOlTgcdfv3h51OuicyA7dvaz02MEBhFI8Qigc9BYPBtK0HJo5feOdOQc9fb21tdb2gpqamvb29nwucjVVXp50+bU4cXLigdXXF9eHr67WLF3v+ns0ZGWVbtxY7HE+2b2/PzCR6IjNw40a88wzYAcUjhOJBtydPqmbPXLl2zUafr6X7F8PhcGNjo6tvTU1N4R4LEDU1noUL1qxetcHnM/Leda/XtNzJyoqcp4lZIKAVFPT6OwdPnHDv2VPscBQ7HO49e0Kc7IkuHfa4bgxQEsUjhOJBNGuOZmaPGTXndNbFnhMSDAa9Xm8/udO9wtXV42fxYDC4e9eRcWPmXbtqzL3rHk9sF8okZlRWxv7Ja2oGvKesLTPz8bZtxQ5HeVqaLz2dkz3a5cuRZUFAXRSPEIoH9fWNKz/8etnSLzyeup6z0dHR0fPCnf7V1NS0tbX1/PIHD0pTJy1J/L3r5ubO3bsxfuzWVu3WLZ1/StjprD9woOTZyZ6qXbsCx44le/dcvBh5NSygKIpHCMWT5M7lXBszeu7uXUdCob/dGtPS0uIavMbGxp4rXNF716dOXlZcnKB3CNTUdF/qa85xN4bLSsJh7cmTGNbgAseOPd25s9jh4IrmyIRcuBB5QSygIopHCMWTcA31TdXVbuuP0tLHn3z83eRJS65du9Pz16uqah48KM7LuxfbuH//QWVldc/f0HkiZ/TI9zb/sPXpU1dcn/nu/eq9Bwwdrr0Huo6f6D1BTp/WWv66vEkvny9y73ocmcUVzX/NxrlzkReJAMqheIRQPAmUnX1p7Oh5705cPHvWRxYfs2aunD51+YzpK3r9R/GPF3/b6dM+nD7tw17/ka4xc+XsGSuMHjOnLX/7jRlfL//Sf+SFu6Wqqwe3NQSDWnFxQs5IcUXzX7Nx9mzkdSKAWigeIRRPoly9kjt1yjLRp9HAAF1dwf/+tGPl/FV/y47CwsH9LrW1CX+FO1c0/zkVZ87Eda8cYD0UjxCKJ1EWLVhzL5/3IKogFApPn/LBox17/jzEXr48iEfhdXRo+fmJbZ3uwRXNf05FdnbkKY6AKigeIRRPorz1xvRAgKelKeLbb34988Pvf55RaG3V+2WVlQLPgO55RXP9gQNJ+ozmrKzIM5kAJVA8QiieRHktZUrP25Rga5s2Ok5u+jVyZHU//8b43jU3R56VJ3jI54rmSPR4PIZvCoDxKB4hFE+iUDwKFk9R0cD/aiiklZaa8oggrmiOXBhew5VzsD2KRwjFkygUj2rF8+v2gV/f/cLrseQHVzRrT58KbRaAMSgeIRRPolA8qhXPsTP9/Rudndq9e+a2TvdI9iuanc7IMx4B26J4hFA8iULxWILPp5WXR1rk5k3tzp3IbVOlpZFH6TQ2RhplUMVz8nw8r8eSH0l9RbPTqT1K0HO9AXEUjxCKJ1EoHpPV1GiXLg1wXMzOjjwBOS8v8mzAp08ja1J9vK2pz+IZzOuxTBlJfUWznuuuAOuheIRQPIlC8ZgmENBfIV3Hj3c+t+iTlRVJpdxc7eFDraIics9za+sPm7Y8Xzyxvh5LfiT1Fc1ED2yI4hFC8SQKxWOOtjb91w4Hjh0rcTiqd+0a8N8MOZ2tJ09FQqqwUHv8ODLMvkJ5sCN5r2guKIjcQAfYB8UjhOJJFIrHBMFg5IHIgzkcPkpLK3E4gif6eF2oWiN5r2i+e5fogY1QPEIoHlOKp7FBKypM5Cgv1bqS8IHPBQWDPRZ69+8vdjiS6pzHc1c0m/55hEZe3sAPFwCsgeIRQvEIF0+wSzu0V1s0S1s4M8Fj1XLtYYGWRPz+GN5M3nH0aLHDUbPnf+/MstIIO53tmZkJHK1HjnQP1+7d0St7KpLniubc3EG8EA0wD8UjhOIRLp7MQ4lvne6xZI7mqtaSxeBP8ERH2datj7dtM/94/MIIHDsWjRKBkSxXNF+/npQnP2EzFI8QikeyeNrbtPfnGFg8C2dqu7ZqyeLcudiOgpU7dhQ7HBZ8XE3wxAnv/v1io/HQIQtOQuLHtWuRu/kAC6N4hFA8ksXjqjY2dxbO1L7/RksKfn/Mh8CaZ3dudx0/bv7BmCEzA5cvD+r5k4AwikcIxSNZPG2t2uLZxhbPji1aUqiri/n4F31WzfNP5WGoPQMXL/b1tEnAdBSPEIpH+Dqeg3sMzJ3352hVSfJSRbc7znM8SXSrNiM6AxcuRJ7eBFgPxSOE4hEunkBn5FIbI3Lno/e1u7lasojjHE/F9u0llryOh2H4DJw/H3lPCGAxFI8QiseU5/G4a7S829qdWwkbBfcil0Unkba22I55Iaez5Nkd2uRFks7A2bNac7PZmy/wNxSPEIonUXjmsqhwWMvJieGA13joUHFSPYiP8eIMnDmj+Xyy2yvQH4pHCMWTKBSPtAcPBns4D544UZ6WVrplS5K8ZYLR5wxkZ2uNjeKbLNA7ikcIxZMoFI+05uZBPXM57HRW7dpV7HA0HDxICjADWlaW5vWKb7VALygeIRRPolA8Vn7scuh/uVOl48XpjGSZgawszeMxY8MF/obiEULxJArFY4JAIHIh6kAHNv/hw4/S0qK5wy1a5neGpcapU5EnHQCmoniEUDyJQvGYo6lJO32614NZ8MQJX3p6xfbt0deGe/fvJ3fMLwxrjqdJ8hgrWBTFI4TiSRSKxzQez3MX9PgPH46+PCs6qnft6jh61PzDKsPKM1BZad4WjGRH8QiheMwqnkBn5Flolh3BoGYnHk/k7pv/Hb186enFDkfljh0NBw/ybGXzY8IWw+nUnjwxeztGkqJ4hFA88sWTe1P79CPDXyka51g0S9uwTqu00SGgtVW7dCl69Ao5nSxgmd8QdhxlZWZvx0hGFI8Qike4eK5cNL9m9I8lc7QqG53s7+qK3L01mFvWGczA8zNQVGT2doykQ/EIoXgkiyfQqX240PyOGdTY/J1mMz6fdv06B3JmIPYZePDA7I0YyYXiEULxSBbP0wrzC2awY9k8zZaqqiLvyuYsDjMQ2wzcv6+FQmZvxEgWFI8QikeyeOq85hfMYMcnH2h2FQ5rtbXazZsc9ZmBWGYgLy+yCQHGo3iEUDzC1/F8/635ETOocTRDs72mJi0/v6/H9jCYgT5nIDeXMz0QQPEIoXiEi8fr0T7/2PyO0Tl+3hi5GlgRXV2Rpa6bN7m0mcQZxAzcvGm3RzXAfigeIRSP/N3pgU7tYo52YJe2d7t1x6G92t1cRU/qBwJadXVkzaLHI3wYzECfM3D9ukLhDyuieIRQPInCM5ftJxyO3NhVXs6JH3JngBm4elXr7DR7e4WyKB4hFE+iUDz2FgxGLnMuKNDOn+fwzwz0MgOXL2sdHWZvplATxSOE4kkUikcdLS3nt+11HXVysTPp87cZuHhRa283e+uEgigeIRRPQjx6VJkyNHVQ79WClW3a6Hhn4qJjmdl/LXtlZXH4ZwYipwBbW83ePKEaikcIxROnUCh88OCJsaPnvTpsMsWjjE0bHQcOnFi0YM3qT9b7fM2RXwoGtcePOeQzA1pOjtbSYvYWCqVQPEIonnjU1HgWL1z74fJ1dXUNrGqpZNNGx8mT54PB4O5dR8aNmXftam7kV8PhyNGOG7uYgbNnteZnHQwkAsUjhOKJ2amTF0YOn33w4Ino/6V41Cue6P9++LAsddKS9d/93t7eoRUWcrxnBiIzkJ2tNTaavZ1CERSPEIonBo2Nvk8+/m7e3E+ePnV1/yLFo2rxaJrW0dG5+Ye0qZOXFd+6y/GeGfhzBrKytLo6U7dTKILiEULxDNbNG3fHj52ftvVA6O8vGqR4FC6ev/3Vr/k25HRy1GcG/owej8ekjRTqoHiEUDz6/fWDflH5i/+U4lG+eDRNa2ho+njZl/MnLqzec4BDPjMQmYFTpyKP8AbiQPEIoXh0evCg9K+LOXpD8ahk00bH8eNn+/qnpw5njXlz+tF138dwyPfu31+7b1/oxAlyQakZuHpVq6+X3UihDopHCMUzoL9u2Ll2p59/jeJRyaaNjv37jzb3fT+Oq6pmwfTla95b6cs4PNjiKXY42jIzzT9IMxI7A05n5GVtfr/spgoVUDxCKJ7+VVe7F8xfvXbNxj8fytI3ike94nG5XPX19c9dsPW3FP59z7i3Zlz/yaH/uNhw8GCxw9GSkUFwKDsD9+/zPgoMCsUjhOLpSzgcPpqZPWbUnKOZ2XpmkuJRsnhcLpfb7e7o+4VKD/Ifpo6Zu37x6vajx/QcDpszMoodjsZDh8w/MDOMm4GsLK2kJPLUSkAHikcIxdOrhvqmj1b+Z+n7n9fW6r37lOJRtXii+lnham/v2Lzup6lj5pRs2z3gsbAtM7PY4fDu309wqD8DOTlaRUXkwZVAvygeIRTPiy6cvz5m9Nzdu46EQnp3VW1tbRSP2sXjcrnq6uqCff/Ufv3CjXFvz0z7eF3I2d9RsPPYsWKHw71nj/nHY4bMDFy8qNXUyG6/sBmKRwjF05Pf37b+u9+nTfmgrPSJ/jlsbm52uVwUj/LFM+AKV0N940eL1iydvKR2f5+LViGns9jheLJ9Ow/1Sa7kunFDa2qS3YphGxSPEIqn2/37xe9OXLz5h7RAIKBz9kKhUH19ffRYSPEkQ/FE+Xy+vt4aG7n8a9/RMW9Oz/r2x74OfhXbtxc7HOVpaa1HjiTkaFp34AD9ZJubuXj1Ol5A8QiheDRN6+oKpm098M6ERXfzCvVPXSAQqK2t7T4KUjzJUzwul8vr9fazwlXxqGJ26pK1763wZfTSNGGns/7AgRKHI7q8FX+s+NLTH6WltXPHuy3GqVPczIXnUDxCKJ7HjypnzVixds3GlpZBPEijra2tpqam5yGQ4kmq4nG5XDU1Ne3t7X39DsFgMO2nbROHz7rz69Zej3wdR48+eXay51FaWvyP5+k4evTxtm11B3gStE1GdrZWVsbNXIiieIQkc/GEw+GDB0+MHT3v4oUbg/qqpqamF49/FE+yFU9UU1NTXytcmqYV5hVOGj1387JPA8ePv3jYCzud0QcSFjsctXv3huM72RNyOmv27Hm6a1ewtz+LYcUZ4GYuPEPxCEna4nG7ve8v/nT5B195vQ36vyoYDHq93l6PfBRPchZPdIWrq6urv8vhP/t+2ug5ZX3cu96emfl427Zih+Pxtm0dR4/GeRD1pac/3raNZzrbaVy8qNXWym7gsBaKR0hyFs+5nGtjRs05ePBEPz+dv6izs9Ptdvd12KN4krZ4oitcbW1t/fyGF7IujHlrxu7Ie9d7OeaFnc7avXuLHY4Sh6Mu7kf1dB479mT7dla4bDa4mSuJUTxCkq14Wlr8X36+ee57H1dWugb1hX6/v/9jHsWTzMUT1djY2E9DN9Q1rlywetmUJZ4Dvd+73nrkSHlaWrHDUbF9e+cxXU9w7mtEE+rpzp1drHDZa3AzV1KieIQkVfHcupU/ftyC337d3dU1iKe/h8PhhoaGAY92FI9KYisel8vl8Xj6WeGK3Lu+N3PMm9NPr/+51wNeyOl079kTPdlTH/dlyC0ZGY+3bfMfHty7Thkmz0BWllZUpHV2ym7yMBPFIyRJiqejo/O3X3e/O3Hx/XtFg/rCrq4uj8ej51BH8agk5uKJrnD5+32B9pPyitmT3l/73ormw73fotWckVG2dWuxwzCmVgwAACAASURBVBH/SZrAsWMV27d79u0LkzL2mgFu5komFI+QZCiehw/LJk9auv6739vb+3xabq86Ojr6uXCH4lFYPMUT1dDQ0M8KV+QRUD+mvTN81t3f0no94AVPnKjetavY4SjdsqUpvteOhp3Ouv37K3bs6PV+MYalZyAnR3v6VHbbhwkoHiFqF08wGNy968i4MfOuXL492K9taWkZ1BGOczwqib94oitc/T+/uyCv4N1Rc57du36i1wOeLz29dMuWYoejateuOE/2tB458igtrTkjw/yjOGOwM3Dlilan95XGsCOKR4jCxeNy1S5csGb1qg1NTX2+9XrAd0dQPMkpIcWjZ4Urcu/62o3Tx8wt2977u0UDx4493bmz2OEo27q1Jb5e6Tp+vHLHjprdu+N88A/DnBm4cUPz+QT/I4AcikeIqsVz6uSFMaPmHM3MHuwXPvfuCIonOSWqeKIaGhpCoVA/f9z5k+f6uXddO3my6dCh6FspXLt3B0/0fkJI56jbv//x9u2dcT/4h2HODNy9q/X9pG/YFMUjRL3iaWho+vijb+fPXVVd5R7s17747ghrFk9zc3NZWdmD5FNWVuYT+TE3scXjcrlqa2s7+737pr6uYcWCVR9MWeo9kN7roa7z2TXICXkFaeuRI4+3b/el9/4HMexxM5fuFx7D+igeIYoVz/VreePGzEvbeqD/H6l71dzcHM8hTax4PB7P7eRWU1Nju+KJam7ub4E1cu/6niNj3ph2po971xP4CtLgiRNVu3bV7N4diu+MEcO0GThzJvJmrsHv6GBBFI8QZYqntbVt/Xe/T52yrKTk8WC/NhgM1tXVxXkwkymezs7OO3fu3E5uubm5/bzC08rF43K56uvr+8/xx6WPZ76z6Kv5H7dmHjX6FaQNBw8+ScSrLRimzcCFC5rxPwDAaBSPEDWKp7CgJPXd9zf/kNb/rTExvDvCasVTV1dndm9Ygts96CVLixSPy+Vyu90dHf09KCEQCPy24fd3hs/K/31br8e57leQljgc3v3747kSOfpWr8aDB6kWG8/A1atafb2h/0XAUBSPELsXTzAYTNt6YOL4hXfuFMTw5a2trYk6jFE8FE8CV7g0Tcu9ljth+KzfVnzR173rbZmZj569laJmT+/3eekcIafTtXt39a5d8SyTMcyfgRs3tIE2KlgTxSPE1sXz5EnV7Jkr167Z6PO1DPZrw+FwY2NjonKHVS1Jtl7V6qmuri4Y7O+FJ35/65cf/WfO+PmVu/b1FSvuPXvifAlXdPjS0x9t29YW3zXRDPNn4P59buayHYpHiE2LJ3KNZ2b2mFFzTp++FMOXB4NBr9eb2KOX2JXLtbW1t5ObyzW4t8Batnj0rHBpmnbuRM6YN6cf/Hy90c/R6Th69PG2bQ0HD2qnTpl/5GbEPAPczGU3FI8QOxZPfX3jyg+/Xrb0C48nlueQDurdEda8O93n85WWlhYUFNxPJgUFBSUlJU1NTQIzLFY8UQPecu921b4/a8XyqX3eu56oEXI62zMztVOnQtnZNIe9Z+DsWa2igpu5bIHiEWK74jmXc23M6Lm7dx0JhWLJi8G+O0I/3jKhEuHicblcXq+3/xWucDh8cNuBsW/OuPzDbwLHy9CTJ4GrV80/bDPinAFu5rIDikeIjYrH72/96sufZkxbXl5eEcOXh8PhhoYG445YFI9K5Isn+kqKAa9PelRcPmPiwq/mf9zWx73rCRsPH2rhcOfDh6xwqVBd3MxlbRSPELsUT+7t+xPGLfjt192BQFcMX97V1eXxeAw9XFE8KjGleKJ8Pl//y6OdnYHf1v/2zohZ9/q4d/3PceeOdvNm7MfIu3ejf1zA7Q6dPWv+MZsR5ww4nVpentbaKvXfEAaB4hFi/eKJ7N9/3f3OxEX5+Q9j+x3ieXeEfhSPSkwsnugKV1fXAGV/+/Kt8c/uXe/q4971yGUcoZDW1KTl50cuZR3sAfL27e4/K9TeHrh2jeZQZAbu39cGulgewigeIRYvHrfbO3b0vBHDZ21x7G9sjOWFSnG+O0I/ikcl5hZPdIWrra2t/w9Z9LA0deLiEW/O+Pnj/7Qc6e3hy91P4+3s1EpLtZyc2Irnz9+jqKj9aAJug2eYPwPZ2Vp5udbvdWOQRPEIsXLxeDx1Y0fP27/vWNHD8p9+3D5y+Oyvv/q5uKhc55eHQqH6+nqxQxTFoxLTiyeqsbHxxRWuUCh0+fKt5R98NX7cgp07MgoLS7f8sW/qmLm95MidO899ZaSBdC51FRe/OC1zZn204J0Fu1b/58nOuJ55yLDEDOTkRG7mkrrDFP2geIRYuXg2/5C2b9+x7v/b1tZ+5HDW1MnLFsxbdfbMla6u/n5ACQQCtbW1kgcnikclFikel8vl8Xi6V7gaGpp27Tw8YdyC5cu+vHzpVs/3c3372feHv9z0/CHt9Onef44fcKnr1KleL/iYPXNl9x5g4lszfli65tbPf/S5rMawxQxcvMibuUxH8QixcvEsXrj2xTM64XD49q17H//727Gj523fdqihvsmsC3eeQ/GoxDrFE13hunXz7hefbR414r2ff9rx9GkvD2A84zz37aJVvRzP6vp+ZlU/S10Vvd8O2bN4usfbKalrZi0/9c3m5sM8r9m24+bNSAfDJBSPECsXz7y5n/RzI7rXU5+29cDokXPWrtl4/15R9BfD4XBTU5MphyWKRyUWKZ6Kisp9ezOnTF46bcqywxmn2tv7vOD0wpnL6+b/u5cjWflAq8ChkOZyad0XJl+5onk8ff27vRZP9/jnPybMHjd367+/Ktqyw/xDOGOwM8DNXOaheITYt3iiAoHAqZMXZkxbPnvWR0cOZ1VXm3ZwEi6eUCjU2dnZkWR6ruOoXTx37uRvWP/byOGzV65Ydzrr/IBXMfdZPPfu6f2e29sjZ3361X/x9Bwzx857untPR2ZmmPKw1wycOhV5FNNAWwISi+IRYvfi6ZZ7+97KFetGjpi9Yf1v9+8/ULh4QqFQZWXlnTt3bief3NzcioqK/p9NbOviqaqqPn4se8H8VePHzf/1l51FRSV6HkvYX/G8cMtVPPQXz8svjZ88Ymb5tu01e/Y0HDjQeuRI8ASX+9hnZGdrZWXczCWG4hGiRvH4/f7oAaOwsOjHzVtHDp8V/clYyeIpLy+/ndxKSkrUK54HD4p+/WXn2NFzF8xflZHurKqqil7BM+B7Rgconrw8s4rn5ZfGL5/8ftWuXa7du6PDu39/c3p6Qt70zpCYgRs3ErjxoB8UjxC7F0+v746orIxc/TA5dcm0Kct27jj05EmFMsXj9/vN7g1LGPDVmzYqniuXb6z65Lu335zx9bqf7t693/3rbrc7EAjo/MB9Fk/Rn5e4mVI8L780ftP7q7qLp3u49+5tPHiwPTPT6LfBM+KaAeN/tEAUxSPE1sUz4LsjoseSkcNnbVj/2717hQoUj8fjMTs2LKGm+9l6ti2e8vJHO3ccmjxpybSpH+zccejx4yc9/+mgcqe/4mloMLd4Xn5p/OYlq1+Mnuio2bOn/sAB/+HDwePHqRPLzUBzcwI3HvSD4hFi3+Lp6Ohwu916Di2FhQ9/3Lx1+Fszly75zLilLpniaWhoMDs2LMHr9dq3eG7fztuw/rcRb0fWXi9cuPriv1BbWzvgWyZ0Fc9zTyA0qXhefml8bvrRvqKne3j27WtOT+84avAbUhk6Z+DixcRuPOgHxSPEvsUTCATq6ur0H2YqKysz0p2zZqyYOnnpiz9S26V4QqHQ/fv3bye3/Pz8wQaBFYqnsvJpRrpzwfxVE8Yt+PWXnSUlpb3+ax6PJ4ZLsy+cu7bug8//es/5qVOR1ycl+hLvmIvHeeKcv6ioeqDo6V7zajh4sO3IkRBrXib2WWlpYjce9IPiEWLf4olqa2vTeaan18sm7uUX2O7KZb/ff+/evdvJKj8/v9n4k+2JLZ7CwshVyWNGzVkwf9XxY9nVfT9Ewev1xnYH/oXz19d99VPkDvOKCq262qBXRcZTPJH738vLmzIy6g8c8Ozbpyd9XLt31+3f33L4cBdrXvLF09JixCaEXlE8QuxePNHTHj6fL7ZbY8aMmhNd6urnIGTB5/EEg0Gv11tdXV2VZPS8VNxSxXMu53L3QxMGzOu6urqYN6E/i8dgcRZPRFOTdu5c9JgaPHGi4+hR/+HDTYcO1R84ULt3bz/pU7t3r+/ZmhcP+JHIncuXjd6W0BPFI0SB4oltkavnQsPsmSvembBoy5a98Sx18cxllcRZPGVl5Tt3HJr07uLoVckVFZUDfkk8uWOn4nl2CV7ktufeDrQhpzNw7FhbZmZzRkbDwYOefftq9ux58WLn6AN+WPMysHjKyozeltATxSNEmeKJam9vj+0Folcu3/j8s++HvzXz63U/5ce01EXxqCTm4rly5ebnn30/4u1Zn3/2/fVrt3V+VUNDQ5wnCO1UPFEVFZEXneo4+kZPBbUeOeJLT3/uVJB3//6WjIwAD/hJePH4/UZvS+iJ4hGiWPFEn9DT3Nwc25tEHz4o1nm9xYsonmQunuh18Qvmr5o4YeGvv+wsLS3X/7WNjY3xf2D7FY+mRV7Pfv16DMfjsNPZdfx4e2ZmS0ZG46FD3v37Pfv2NR06xAN+EpM7V64YvSHhORSPEPWKJ6qrq6u+vl7/UafXe2omTliof6mL4knO4iks+NuzDwZ7QVhTgl5YbcviiXK7tfPn4z9Od18V5D98mFvc45rMR4+M3pDwHIpHiKrFE+ci14tLXT0fhtsriiepiqeqqvp01vmVK9aNGvFezK9yS+BNZzYunmcnZiOLXGfOJH51hjHYGXA6I+feIIviEaJ28cS5yBX18OGzpa5nLzzqZ6mL4kmS4ikrK9+yZe/4sfNnz1qZke6srHwa23blT+ilEvYunqiuLq28XMvJIVPMnIGrV43eivAiikeI8sUTFQwGGxsbXXGoqqqKvtR64vgFW7bsffTo8XP/AsWjfPFEz/lFr0q+cSM3ns2pNdE/RqtQPFHhsFZVFbk7mtMzpszA48fGbkPoDcUjJEmKJ6qjo6P/93DpcfXqrehS1+effX/rVl73r1M8qhZPRUXkquTZM1e8O3FRr7E7WG1tbQn/wOoUT7fm5shrUM+eJX1EZ6C93ZBNB/2ieIQkVfFE+f3+eBa5ei5tjO2x1EXxqFc8eXn3Nqz/beTw2StXrEvIG9lqamrajTmiKFg8UeGw5vVq9+6RPhK5c/16grcY6EPxCEnC4knIIlfU06eRu7rmzP7onQmLhg6ZtHv3Eb8/8T++Q1Ig0HXmzOUxo+akvvv+uDHzfv1lR1FRSfybSjR3Oox5+YPKxdNTa2vkAue8PC07mxM/hsxAhSH7WwyI4hGSnMUT1dnZ6fV6E3Iwu3b11orlX6UMSU0ZmvrZp98/elRp3MeGQerqGv74Y++br00bOiR16uRlRzOzqqqqErJ5uFwut9vd2dlp3N9dUhRPt1BI8/m0p0+1Bw8ij28mgBJVPIYVOfpH8QhJ5uKJam1tHey7SPtSVlb+yy873npj+rChqamTluScvRrbWyEh7F7+ww+WfvHqsMmvDpv88b+/6Xl5VkK43e5AIGDot5BcxfOi9natvj7yCtVHj7TCQu3Oncg9R91vkmfomYEbN4z9O0LfKB4hFE/M7yLtS1VV9dHM09OmLksZOvmtN2ds3XLA5+MtxFbk97cdOnhi9Mj3hg1NHTN6btrW/fG8WK0vtbW1Am8/Tfbi6VVHh1ZSwhkgvcFXyZlp01A8QiieboFAIFGLXFG5t++u+uS7lCGpQ4dM+vijbwTOV0GnkpLHn679PmVo6rAhkxYuWH3+3BWXMTweTzAYFPh7oXj6FAhE7rjmnq8Bi8fIVVf0j+IRQvE8p62tLVGLXH9f6prRvdQlcwjEiwKBrpyzV2dO/zBlWOpbb0z/4fstxcWlLsN4vV6xZU2KZwDBYOSyXB5v2Ffu3Lols6GiVxSPEIrH6EWuqKqq6lMnz82cETnWvvHatF9/2eXzJewNAxiQ11P/88/bX0uZMmxo6rSpyzLSnQm8Ktn03KF49AqHI9c7X7zIlT3Pz0BVlaHbJ/pH8QihePoSCATq6uoSfiDMzc1fveq7YUNShw1J/fdH35SVsdRloFAofPvWvSWLPxs2dNKrKVO+/OKH/PwCl/Hq6urC4bAmiHM8gxAKRV5feuUK3fPnDJw6FXnFB8xD8QiheAx9F2lfysoebd2yd8Tbs1KeLXWdPXOFpa7Eamnx7959ZPhbM4cNmTR2zLzt2w48eVLhEtHQ0CCcOxRPjOrrI6s53MmVm5vYrRGDRfEIoXgE3kU64FLXsCGpb7w29ddfdjY1sdQVr+Ki8rVrN6UMTR36r0lLl3x27eotl6DGxkbNDJzjiV1TU+Sphk5n8qZPdXUCN0XEgOIRQvHo1NXVVV9fb9Bh8s6d/C8+//7VYZOHDUn9aOU3ZaVPjP1bV1EgEDiTfTn13SUpwyYPf2vGj5vTSkrKXLKamprM+vYpnnj5fNrdu+bHh/zIymJJy3QUjxCKxwqLXFHl5ZGlrpHDZ6cMTZ04YZHzxLmuLu7qGlhVVc2mjVtef3XK0H9Nmjnjw6xT56qrq13impvNPD9H8SRGa2vkAYZZWeaHiNjIy0vQ3CF2FI8Qisc6i1xRVVXVp7POz5/3yf+WunY1NvoM+bu3uVAofPNG/uKFa1OGpr6WMuWrLzffu1foMonf7zd3NiiexD+68PRp83NEYNTUJHTuEAuKRwjFE5tgMNjQ0GDoQTQv794Xn0WWulKGpi5f9mVBQXGC/+5tq6GhKW3rwbffnJEyNHXc2Pl7dh+urHzqMk9ra6vZU0LxGCAQ0MrKFH9kc1ZW5ElFMBvFI4TiiUdHR4fH4zH0aPpsqWvfyBGzhg1JnTBu4YnjSb3UVVxUvvqT9SlDU1OGpK78cN3167ddZmtra9MsgHM8RunqijyyWdVHF7KkZQ0UjxCKJ35+v9+4Ra6o6uq/lrpef23qD99v9XrqtaTR2Rk4cTxn/LgFrw6bPOLtWT/9mFZWVu4yW01NTXt7u2YNFI+xQqHIowsvXDC/URI73G6DJw66UDxCKJ6ECAaDjY2NAkfZvDv3/ndXV+TW6/v3FV/qqqx0bfju98izkodMmjvn36ezzptyVfKLampqOjo6NMugeCQo9ujC06dZ0rIIikcIxZNAnZ2dRi9yRT169Hhb2oHRIyIv/Z4wbuGRw1mdnQFNIaFQ6NLFW7Nnrnx2VfLUr9f9VFDwwGUZbre702KvXaR4RHm92tWr5idLnCM/X3bW0CeKRwjFY8dFrm7nci5HlrqGpr7+6tTvN27xeOo0m6uvb3T8se/N16cPGzLpnQmL0g+dePrUzKuSX+R2uwMBy/UlxWPaI5vt++jC2lozZg29oHiEUDx2eRdpP/Ly7n315Y/RpZ8l739++9Y9zYaKi8pXrvh62JDUlKGp//7oPzdv5Lqsp7a2tsuSbyCieExj00cXZmdHFulgDRSPEIrHOIFAwOv1ih2MKyoq9+w+PHrknGFDU8ePnZ+Rfqqjw1orL71qbW3LSD81dvS8lKGpY0bNSdu67/HjJy5L8ng8ln39GcVjMr8/8ujCU6fMTxmd4/59s6cMf6F4hFA8Rmtra3O73ZIH5nM5lxcuWJXybKlr00ZHba1Fl7oqKqq++vKnlKGpw4ZMmj/vk9NZ510W5vV6Qxb+mZjisYT2dts8stnrNXuy8BeKRwjFo94iV1RhYdG33/z3tZQpQ4e8O2/OJ9ZZ6goEus6evTpz+ofRJtuw/teiohKXtVk8dygeKz6y2cqPLjxzhiUtS6F4hFA8YgKBQF1dnfChurIystQ1ZvTclGGTx42Zl5F+0sSlLq+34Y8/9kavSp4yeWlGurOqqspleXV1deFwWLM2zvFYTiAQeXTh2bPm982Lo6DA7NnB31A8Qigeld5F2o8rl28sef+zZ3d1Tdm00eF2y53TDofDt2/d+2DpFynP3pixdvX6vLx7LptoaGiwfu5QPNYVDEYeXXj+vPmV03PUWXSlO2lRPEIoHvXeRdqPwsKH3337S/QBhgJLXX5/66GDJ0aPfG/YkNQxo+duSztg2auSe9XY2KjZBOd4LC0Uiryw8+JF81vn5MnIaSc7RHxSoXiEUDxm6erqqq+vN+VAXllZeejg8YnjF7w6LHXss6Wu9vYEPz64uPjRp2s3RdLqX5MWLVh9/vxVl900NTVp9kHx2IPbbf6jCwsLzZ4FPI/iEULxJOciV8+lrpShk14dNvk/X//XXeOJ89sJBAJnsi9Pn7o8ZVjqW2/M2PzD1pKSUpcNNTc3a7ZC8djv0YVmFU9Dg9nfP55H8QiheJJ5kSvqwYOiTRv/eOPVqcOG/rnUFcOVK9XV7k0bt7yWMiVlaOq0KcuOHT1tkRdgxcDv92t2Q/HYT1OTCY8uzMkx+9tGLygeIRSPRQSDQbMWuaIqK58+W+pa+OqwySNHzN6zJ1PPUlcoFL51M3/xwrUpQ1NfTZny5Reb7+UXuOzMjrlD8dhYc7No9zx8aPY3jF5QPEIoHkvp6OiQeRfpwHd1DXm21LXuvy5X7y/faWnx7959ePhbM1OGpo4bO3/7tgMVFZUum2tra9PsiXM89tbaKvToQvtcjJ9UKB4hFE+Sv4u0Lw8eFH2/0fHGa1OHDU2dPXPl5Uu3upe6iovKV6/aEH1W8ooP112/dttlfzU1Ne3t7ZptUTwqMPrRhefPm/0doncUjxCKx5qCwWBjY6PZGRC5q2vvnsPjx85PGZr69pszFi5YPWrE7JShqSOHz/7jjz1lZY9cSqipqenoSPDdasIoHnUY9+jCoiKzvzf0juIRQvFYWWdnp+mLXFEXL1z75OPvpk1d9snH353JvuhSiNvt7uy0wStX+0fxqKarK9I9OTmJLB6fz+zvCr2jeIRQPNZnhUUuVbnd7kAgoNkfxaOmcDjyyOYLFxKQOxcumP3NoE8UjxCKxxZCoVBTU5PZeaCa2trarq4uTQkUj8pCocijC69ciat4SkrM/jbQJ4pHCMVjI4FAwOv1mt0JivB4PMFgUFMFxZMU4nl0od0eqplUKB4hFI/ttLW1ud1us4PB3jweTygU0hRC8SRd9zidg8idS5fM/tDoD8UjhOKxo1Ao5PP5zM4Gu/J6vYrlDsWTjHy+QTy6sLTU7I+L/lA8Qige+woEAnV1dWb3g83U1dXF8A4N6+McT1I/uvDUqQGKx55PEk8eFI8QisfuWOTSr6GhQcncoXiSXfTRhadP9547ly+b/fkwAIpHCMWjANPfRWoLjUo/X59zPOjzkc3l5UyOxVE8QigeZXR1dZn7LlIra2pq0pRG8aDPRxeypGV5FI8Qikcx7e3ttbW1ZgeGtTQnwX25FA/+JhT689GFV68yM9ZH8QiheNTDIlf0YcoNDQ1+v1+NRyoPiOJBL0IhTvDYAsUjhOJRVRIucnk8nsbGxtbWVmWepKwfxQPYF8UjhOJRW0dHh0XeRWqEmpqaurq65ubm9vZ29R6xMygUD2BfFI8Qikd54XBYpXeRJttylU4UD2BfFI8QiidJBIPBxsZGlz15vV6fz9fW1qbSm7ASi+IB7IviEULxJJXOzk5bLHLV1NTU19c3Nzd3dHSo+szAxKJ4APuieIRQPEnImotctbW1SXvdcfwoHsC+KB4hFE9yCoVCpi9ycd1xAlE8gH1RPEIonmQWCAS8Xq9k5bjd7vr6+paWls7OTparEojiAeyL4hFC8cDod5F6PJ6mpiauOzYUxQPYF8UjhOJBdJHL5/MlKnG47lgexQPYF8UjhOJBt0AgUFdXF891xzwmxywUD2BfFI8QigexLXJFrzv2+Xw879gKKB7AvigeIRQPXhQKhZqbm1+8g53rji2L4gHsi+IRQvGgL11dXXV1dTzv2BYoHsC+KB4hFA+gAIoHsC+KRwjFAyiA4gHsi+IRQvEACqB4APuieIRQPIACKB7AvigeIRQPoACKB7AvikcIxQMogOIB7IviEULxAAqgeAD7oniEUDyAAigewL4oHiEUD6AAigewL4pHCMUDKIDiAeyL4hFC8QAKoHgA+6J4hFA8gAIoHsC+KB4hFA+gAIoHsC+KRwjFAyiA4gHsi+IRQvEACqB4APuieIRQPIACKB7AvigeIRQPoACKB7AvikcIxQMogOIB7IviEULxAAqgeAD7oniEUDyAAigewL4oHiEUD6AAigewL4pHCMUDKIDiAeyL4hFC8QAKoHgA+6J4hFA8gAIoHsC+KB4hFA+gAIoHsC+KRwjFA8Spo127m6tdvhDvuHVda2yI8TNQPIB9UTxCKB4gHnVebc0KbeHMxIwP5msPCmL5GBQPYF8UjxCKB4hH2m8Jy53oWLMilo9B8QD2RfEIoXiAeHy9NsHFs3Cm1t426I9B8QD2RfEIoXiAeOzYkuDc+ezjWD4GxQPYF8UjhOIB4tHYoH25KmG5s/J9rbQ4lo9B8QD2RfEIoXiAOHV1aSUPtTu34h0F97RWf4yfgeIB7IviEULxAAqgeAD7oniEUDyAAigewL4oHiEUD6AAigewL4pHCMUDKIDiAeyL4hFC8QAKoHgA+6J4hFA8gAIoHsC+KB4hFA+U8bBQ+/pTbfHsxD8EWWZ8uEjb4dBaW2P53ikewL4oHiEUD9RQW6MtnWt+tcQ//vg5lm+f4gHsi+IRQvFADWdOmh8rCRmLZ2uBzkF/+xQPYF8UjxCKB2q4cNb8WEnIWDZPC4UG/+2fv77uq580g82eufLll8bHMJwnzhn92QD7oniEUDxQQ0uz9u8l5vdK/CNjfyzfPsUD2BfFI4TigTLqvdqe7dr6r7RvPrfl+GmDdiFHC4dj+d4pHsC+KB4hFA+gAIoHsC+KRwjFAyiA4gHsi+IRQvEACqB4APuieIRQPIACKB7AvigeIRQPxGyJEgAACv5JREFUoACKB7AvikcIxQMogOIB7IviEULxAAqgeAD7oniEUDyAAigewL4oHiEUD6AAigewL4pHCMUDKIDiAeyL4hFC8QAKoHgA+6J4hFA8gAIoHsC+KB4hFA+gAIoHsC+KRwjFAyiA4gHsi+IRQvEACqB4APuieIRQPIACKB7AvigeIRQPoACKB7AvikcIxQMogOIB7IviEULxAAqgeAD7oniEUDyAAigewL4oHiEUD6AAigewL4pHCMUDKIDiAeyL4hFi5eKZP3dVWVmF0X8KoIDz5659/dXPRv8ps2eujG134TxxzujPBtgXxSPEysXz5Rc/nsu5ZvSfAihg+7ZDO7anG/2nUDyAESgeIVYunrt5hamTllRXuY3+gwBbe1BYOnb0vOpqw/9LoXgAI1A8QqxcPJqmncm+PGb03MmTls6e9RGDGWAGXpyBdyYuSp20JO9OocB/jxQPYASKR4jFiyfK66mvrnYzmAFm4MUZaGhoEvsvkeIBjEDxCLFF8QCwAooHMALFI4TiAaATxQMYgeIRQvEA0IniAYxA8QiheADoRPEARqB4hFA8AHSieAAjUDxCKB4AOlE8gBEoHiEUDwCdKB7ACBSPEIoHgE4UD2AEikcIxQNAJ4oHMALFI4TiAaATxQMYgeIRQvEA0IniAYxA8QiheADoRPEARqB4hFA8AHSieAAjUDxCKB4AOlE8gBEoHiEUDwCdKB7ACBSPEIoHgE4UD2AEikcIxQNAJ4oHMALFI4TiAaATxQMYgeIRQvEA0IniAYxA8QiheADoRPEARqB4hFA8AHSieAAjUDxCKB4AOlE8gBEoHiEUDwCdKB7ACBSPEIoHgE4UD2AEikcIxQNAJ4oHMALFI4TiAaATxQMYgeIRQvEA0IniAYxA8QiheADoRPEARqB4hFA8AHSieAAjUDxCKB4AOlE8gBEoHiEUDwCdKB7ACBSPEIoHgE4UD2AEikcIxQNAJ4oHMALFI4TiAaATxQMYgeIRQvEA0IniAYxA8QiheADoRPEARqB4hFA8AHSieAAjUDxCKB4AOlE8gBEoHiEUDwCdKB7ACBSPEIoHgE4UD2AEikcIxQNAJ4oHMALFI4TiAaATxQMYgeIRQvEA0IniAYxA8QiheADoRPEARqB4hFA8AHSieAAjUDxCKB4AOlE8gBEoHiEUDwCdKB7ACBSPEIoHgE4UD2AEikcIxQNAJ4oHMALFI4TiAaATxQMYgeIRQvEA0IniAYxA8QiheADoRPEARqB4hFA8AHSieAAjUDxCKB4AOlE8gBEoHiEUDwCdKB7ACBSPEIoHgE4UD2AEikcIxQNAJ4oHMALFI4TiAaATxQMYgeIRQvEA0IniAYxA8QiheADoRPEARqB4hFA8AHSieAAjUDxCKB4AOlE8gBEoHiEUDwCdKB7ACBSPEIoHgE4UD2AEikcIxQNAJ4oHMALFI4TiAaATxQMYgeIRQvEA0IniAYxA8QiheADoRPEARqB4hFA8AHSieAAjUDxCKB4AOlE8gBEoHiEUDwCdKB7ACBSPEIoHgE4UD2AEikcIxQNAJ4oHMALFI4TiAaATxQMYgeIRQvEA0IniAYxA8QiheADoRPEARqB4hFA8AHSieAAjUDxCKB4AOlE8gBEoHiEUDwCdKB7ACBSPEIoHgE4UD2AEikcIxQNAJ4oHMALFI4TiAaATxQMYgeIRQvEA0IniAYxA8QiheADoRPEARqB4hFA8AHSieAAjUDxCKB4AOlE8gBEoHiEUDwCdKB7ACBSPEIoHgE4UD2AEikcIxQNAJ4oHMALFI4TiAaATxQMYgeIRQvEA0IniAYxA8QgZNeK9l18aH8O4dStf6jMCsHfxnHSeN/uzA9ZF8QiZOGEhxQPA0OK5cP4GMwz0heIRMmP6hzHuwi6wCwOSyzsTF8W2u7h9657Znx2wLopHyJLFn8W2C8tIPyn1GQGYLxQKvzpscmy7i+LiR2Z/fMC6KB4h67/7PbZd2OpVG6Q+IwDzFRaUxLavePml8X5/q9kfH7AuikfIgf3HY9uFvZYyxedrkfqYAEy2+Ye02PYVo0fNMfuzA5ZG8Qi5k1sQ889t//15p9THBGAmd41n2JBJse0oVixfx18e0A+KR0hnZ2fMO7J/vjzx2rU7Up8UgDm6uoKLF66N+UejvXuP8jcH9IPikbPk/RgvXn75pfFvvj499/Z9wQ8LQFRbW/u/P/om5l0Ely0DA6J45KQfOhnP7uxfr7zzx+97/f42wY8MQMLNm/lTJy+LZ/8wfuz8cDjM3xbQD4pHTlNTy5B/vhvPTu3ll8a/9cb0r7786aTz3O1b94qLyhnMADNg0xkoKCi+eOFG2taDs2asiHO38PJL47c49gvuzABbonhErV61If5dG4MZYAaYgZ4z8Mo/xj99WiO7MwPsh+IRVVRUzp6aGWAGmIHEzsDa1Rtl92SALVE80pYt+YLdPTPADDADCZyBoqJy8T0ZYD8Uj7TiovJX/jGB3T0zwAwwAwmZgS8+3yy+GwNsieIxwaYNDvb1zAAzwAzEPwOvvzrF46k3YzcG2A/FY4Lm5paxo+eyu2cGmAFmIM4ZyMzMNmMfBtgSxWOOwoKSf70ykd09M8AMMANxXLDMa4aBQaB4TLN371H29cwAM8AMxDYDk959v6WFN6UDg0DxmOnHzdvY3TMDzAAzMNgZGD3yPZer1tS9F2A/FI+ZQqHQF59vZnfPDDADzID+GXjrjRmlpU9M3XUBtkTxmCwcDv/843Z298wAM8AM6Dy7U1ZWYfZ+C7AliscSdu868s+XuZCZYx4zwAz0NwOzZ6301HIvOhAjiscq8vIKR4+aw4+5zAAzwAz0OgPffftbZ2en2TsqwMYoHgtpavJ98/Uv7O6ZAWaAGeg5A+9OXHzjep7Z+yfA9igey7l3r2j+vFXs8ZkBZoAZePP1adu3pXd0cGoHSACKx6Lu5BZ8sPSLV/7BTp8ZYAaScQZGj5qzc0cGT9wBEojisTS327tr5+HZs1by8lHTj0AMZkBgBka8PeurL3+8eTM/FAqZvfsBVEPx2ENzs//SxZuOP/Z9umbTjOkfjhsz783Xp3EEYgaYAfvOwLAhk0a8PevdiYuXLfli0wbH4Yys8vKKcDhs9s4GUBbFAwAA1EfxAAAA9VE8AABAfRQPAABQH8UDAADUR/EAAAD1UTwAAEB9FA8AAFAfxQMAANRH8QAAAPVRPAAAQH0UDwAAUB/FAwAA1EfxAAAA9VE8AABAfRQPAABQH8UDAADUR/EAAAD1UTwAAEB9FA8AAFAfxQMAANRH8QAAAPVRPAAAQH0UDwAAUB/FAwAA1EfxAAAA9VE8AABAfRQPAABQH8UDAADUR/EAAAD1UTwAAEB9FA8AAFAfxQMAANRH8QAAAPVRPAAAQH0UDwAAUB/FAwAA1EfxAAAA9VE8AABAfRQPAABQH8UDAADUR/EAAAD1UTwAAEB9FA8AAFAfxQMAANRH8QAAAPVRPAAAQH0UDwAAUB/FAwAA1EfxAAAA9VE8AABAfRQPAABQH8UDAADUR/EAAAD1UTwAAEB9FA8AAFAfxQMAANRH8QAAAPVRPAAAQH0UDwAAUB/FAwAA1EfxAAAA9VE8AABAfRQPAABQH8UDAADUR/EAAAD1UTwAAEB9FA8AAFAfxQMAANRH8QAAAPVRPAAAQH0UDwAAUB/FAwAA1EfxAAAA9VE8AABAfRQPAABQH8UDAADUR/EAAAD1UTwAAEB9FA8AANCU9/9CaLVMZXervgAAAABJRU5ErkJggg==;" vertex="1" parent="1">
          <mxGeometry x="100.23" y="260" width="44.88" height="40" as="geometry" />
        </mxCell>
        <mxCell id="wFE6L6VrelONgTwsdIlD-33" value="" style="shape=table;startSize=0;container=1;collapsible=0;childLayout=tableLayout;fontSize=16;sketch=0;fillStyle=solid;strokeColor=#3399FF;strokeWidth=1;fontFamily=roboto;fontSource=https%3A%2F%2Ffonts.googleapis.com%2Fcss%3Ffamily%3Droboto;fillColor=none;gradientColor=none;dashed=1;dashPattern=1 4;" vertex="1" parent="1">
          <mxGeometry x="10" y="190" width="150" height="350" as="geometry" />
        </mxCell>
        <mxCell id="wFE6L6VrelONgTwsdIlD-50" style="shape=tableRow;horizontal=0;startSize=0;swimlaneHead=0;swimlaneBody=0;strokeColor=inherit;top=0;left=0;bottom=0;right=0;collapsible=0;dropTarget=0;fillColor=none;points=[[0,0.5],[1,0.5]];portConstraint=eastwest;fontSize=16;sketch=0;fillStyle=solid;strokeWidth=2;fontFamily=roboto;fontSource=https%3A%2F%2Ffonts.googleapis.com%2Fcss%3Ffamily%3Droboto;" vertex="1" parent="wFE6L6VrelONgTwsdIlD-33">
          <mxGeometry width="150" height="58" as="geometry" />
        </mxCell>
        <mxCell id="wFE6L6VrelONgTwsdIlD-51" value="&lt;font style=&quot;font-size: 14px;&quot;&gt;&lt;br&gt;&lt;br&gt;+54 342-451122445&lt;/font&gt;" style="shape=partialRectangle;html=1;whiteSpace=wrap;connectable=0;strokeColor=inherit;overflow=hidden;fillColor=none;top=0;left=0;bottom=0;right=0;pointerEvents=1;fontSize=16;sketch=0;fillStyle=solid;strokeWidth=2;fontFamily=roboto;fontSource=https%3A%2F%2Ffonts.googleapis.com%2Fcss%3Ffamily%3Droboto;" vertex="1" parent="wFE6L6VrelONgTwsdIlD-50">
          <mxGeometry width="150" height="58" as="geometry">
            <mxRectangle width="150" height="58" as="alternateBounds" />
          </mxGeometry>
        </mxCell>
        <mxCell id="wFE6L6VrelONgTwsdIlD-48" style="shape=tableRow;horizontal=0;startSize=0;swimlaneHead=0;swimlaneBody=0;strokeColor=inherit;top=0;left=0;bottom=0;right=0;collapsible=0;dropTarget=0;fillColor=none;points=[[0,0.5],[1,0.5]];portConstraint=eastwest;fontSize=16;sketch=0;fillStyle=solid;strokeWidth=2;fontFamily=roboto;fontSource=https%3A%2F%2Ffonts.googleapis.com%2Fcss%3Ffamily%3Droboto;" vertex="1" parent="wFE6L6VrelONgTwsdIlD-33">
          <mxGeometry y="58" width="150" height="59" as="geometry" />
        </mxCell>
        <mxCell id="wFE6L6VrelONgTwsdIlD-49" value="&lt;br&gt;&lt;br style=&quot;border-color: var(--border-color); color: rgb(0, 0, 0); font-family: roboto; font-size: 14px; font-style: normal; font-variant-ligatures: normal; font-variant-caps: normal; font-weight: 400; letter-spacing: normal; orphans: 2; text-align: center; text-indent: 0px; text-transform: none; widows: 2; word-spacing: 0px; -webkit-text-stroke-width: 0px; background-color: rgb(251, 251, 251); text-decoration-thickness: initial; text-decoration-style: initial; text-decoration-color: initial;&quot;&gt;lucasowen@mail.com" style="shape=partialRectangle;html=1;whiteSpace=wrap;connectable=0;strokeColor=inherit;overflow=hidden;fillColor=none;top=0;left=0;bottom=0;right=0;pointerEvents=1;fontSize=16;sketch=0;fillStyle=solid;strokeWidth=2;fontFamily=roboto;fontSource=https%3A%2F%2Ffonts.googleapis.com%2Fcss%3Ffamily%3Droboto;" vertex="1" parent="wFE6L6VrelONgTwsdIlD-48">
          <mxGeometry width="150" height="59" as="geometry">
            <mxRectangle width="150" height="59" as="alternateBounds" />
          </mxGeometry>
        </mxCell>
        <mxCell id="wFE6L6VrelONgTwsdIlD-46" style="shape=tableRow;horizontal=0;startSize=0;swimlaneHead=0;swimlaneBody=0;strokeColor=inherit;top=0;left=0;bottom=0;right=0;collapsible=0;dropTarget=0;fillColor=none;points=[[0,0.5],[1,0.5]];portConstraint=eastwest;fontSize=16;sketch=0;fillStyle=solid;strokeWidth=2;fontFamily=roboto;fontSource=https%3A%2F%2Ffonts.googleapis.com%2Fcss%3Ffamily%3Droboto;" vertex="1" parent="wFE6L6VrelONgTwsdIlD-33">
          <mxGeometry y="117" width="150" height="58" as="geometry" />
        </mxCell>
        <mxCell id="wFE6L6VrelONgTwsdIlD-47" value="&lt;br&gt;&lt;br&gt;&lt;font style=&quot;font-size: 14px;&quot;&gt;TÃ­tulos y cursos&lt;/font&gt;" style="shape=partialRectangle;html=1;whiteSpace=wrap;connectable=0;strokeColor=inherit;overflow=hidden;fillColor=none;top=0;left=0;bottom=0;right=0;pointerEvents=1;fontSize=16;sketch=0;fillStyle=solid;strokeWidth=2;fontFamily=roboto;fontSource=https%3A%2F%2Ffonts.googleapis.com%2Fcss%3Ffamily%3Droboto;" vertex="1" parent="wFE6L6VrelONgTwsdIlD-46">
          <mxGeometry width="150" height="58" as="geometry">
            <mxRectangle width="150" height="58" as="alternateBounds" />
          </mxGeometry>
        </mxCell>
        <mxCell id="wFE6L6VrelONgTwsdIlD-34" value="" style="shape=tableRow;horizontal=0;startSize=0;swimlaneHead=0;swimlaneBody=0;strokeColor=inherit;top=0;left=0;bottom=0;right=0;collapsible=0;dropTarget=0;fillColor=none;points=[[0,0.5],[1,0.5]];portConstraint=eastwest;fontSize=16;sketch=0;fillStyle=solid;strokeWidth=2;fontFamily=roboto;fontSource=https%3A%2F%2Ffonts.googleapis.com%2Fcss%3Ffamily%3Droboto;" vertex="1" parent="wFE6L6VrelONgTwsdIlD-33">
          <mxGeometry y="175" width="150" height="58" as="geometry" />
        </mxCell>
        <mxCell id="wFE6L6VrelONgTwsdIlD-35" value="&lt;br&gt;&lt;br&gt;&lt;font style=&quot;font-size: 14px;&quot;&gt;Experiencia laboral&lt;/font&gt;" style="shape=partialRectangle;html=1;whiteSpace=wrap;connectable=0;strokeColor=inherit;overflow=hidden;fillColor=none;top=0;left=0;bottom=0;right=0;pointerEvents=1;fontSize=16;sketch=0;fillStyle=solid;strokeWidth=2;fontFamily=roboto;fontSource=https%3A%2F%2Ffonts.googleapis.com%2Fcss%3Ffamily%3Droboto;" vertex="1" parent="wFE6L6VrelONgTwsdIlD-34">
          <mxGeometry width="150" height="58" as="geometry">
            <mxRectangle width="150" height="58" as="alternateBounds" />
          </mxGeometry>
        </mxCell>
        <mxCell id="wFE6L6VrelONgTwsdIlD-38" value="" style="shape=tableRow;horizontal=0;startSize=0;swimlaneHead=0;swimlaneBody=0;strokeColor=inherit;top=0;left=0;bottom=0;right=0;collapsible=0;dropTarget=0;fillColor=none;points=[[0,0.5],[1,0.5]];portConstraint=eastwest;fontSize=16;sketch=0;fillStyle=solid;strokeWidth=2;fontFamily=roboto;fontSource=https%3A%2F%2Ffonts.googleapis.com%2Fcss%3Ffamily%3Droboto;" vertex="1" parent="wFE6L6VrelONgTwsdIlD-33">
          <mxGeometry y="233" width="150" height="59" as="geometry" />
        </mxCell>
        <mxCell id="wFE6L6VrelONgTwsdIlD-39" value="&lt;br&gt;&lt;br&gt;&lt;font style=&quot;font-size: 14px;&quot;&gt;Resumen PDF&lt;/font&gt;" style="shape=partialRectangle;html=1;whiteSpace=wrap;connectable=0;strokeColor=#3399FF;overflow=hidden;fillColor=none;top=0;left=0;bottom=0;right=0;pointerEvents=1;fontSize=16;sketch=0;fillStyle=solid;strokeWidth=1;fontFamily=roboto;fontSource=https%3A%2F%2Ffonts.googleapis.com%2Fcss%3Ffamily%3Droboto;shadow=0;" vertex="1" parent="wFE6L6VrelONgTwsdIlD-38">
          <mxGeometry width="150" height="59" as="geometry">
            <mxRectangle width="150" height="59" as="alternateBounds" />
          </mxGeometry>
        </mxCell>
        <mxCell id="wFE6L6VrelONgTwsdIlD-42" value="" style="shape=tableRow;horizontal=0;startSize=0;swimlaneHead=0;swimlaneBody=0;strokeColor=inherit;top=0;left=0;bottom=0;right=0;collapsible=0;dropTarget=0;fillColor=none;points=[[0,0.5],[1,0.5]];portConstraint=eastwest;fontSize=16;sketch=0;fillStyle=solid;strokeWidth=2;fontFamily=roboto;fontSource=https%3A%2F%2Ffonts.googleapis.com%2Fcss%3Ffamily%3Droboto;" vertex="1" parent="wFE6L6VrelONgTwsdIlD-33">
          <mxGeometry y="292" width="150" height="58" as="geometry" />
        </mxCell>
        <mxCell id="wFE6L6VrelONgTwsdIlD-43" value="&lt;br&gt;&lt;br&gt;&lt;font style=&quot;font-size: 14px;&quot;&gt;MiscelÃ¡neos&lt;/font&gt;" style="shape=partialRectangle;html=1;whiteSpace=wrap;connectable=0;strokeColor=inherit;overflow=hidden;fillColor=none;top=0;left=0;bottom=0;right=0;pointerEvents=1;fontSize=16;sketch=0;fillStyle=solid;strokeWidth=2;fontFamily=roboto;fontSource=https%3A%2F%2Ffonts.googleapis.com%2Fcss%3Ffamily%3Droboto;" vertex="1" parent="wFE6L6VrelONgTwsdIlD-42">
          <mxGeometry width="150" height="58" as="geometry">
            <mxRectangle width="150" height="58" as="alternateBounds" />
          </mxGeometry>
        </mxCell>
      </root>
    </mxGraphModel>
  </diagram>
</mxfile>
